<?xml version="1.0" standalone="no"?>
<!DOCTYPE svg PUBLIC "-//W3C//DTD SVG 1.1//EN" "http://www.w3.org/Graphics/SVG/1.1/DTD/svg11.dtd" >
<svg xmlns="http://www.w3.org/2000/svg">
<metadata>
This is a custom SVG webfont generated by Font Squirrel.
Designer    : Cesar Puertas
Foundry     : Cesar Puertas
Foundry URL : www.myfonts.com
</metadata>
<defs>
<font id="webfontkEOKNDHl" horiz-adv-x="457" >
<font-face units-per-em="1000" ascent="750" descent="-250" />
<missing-glyph horiz-adv-x="203" />
<glyph unicode=" "  horiz-adv-x="203" />
<glyph unicode="&#x09;" horiz-adv-x="203" />
<glyph unicode="&#xa0;" horiz-adv-x="203" />
<glyph unicode="!" horiz-adv-x="266" d="M43 81q0 84 103 84q41 0 59.5 -21.5t18.5 -66.5q0 -86 -102 -86q-79 0 -79 90zM199 208h-127l-22 455q32 8 83 8q55 0 73 -20q14 -17 14 -62v-16z" />
<glyph unicode="&#x22;" horiz-adv-x="478" d="M25 554q0 40 28 65t73 25q100 0 100 -117q0 -56 -35 -118t-88 -99l-9 3q-58 21 -58 53q0 12 9 23q46 65 46 90q-30 2 -48 21.5t-18 53.5zM255 554q0 40 28 65t73 25q100 0 100 -117q0 -57 -35 -118.5t-89 -98.5q-8 3 -9 3q-57 21 -57 53q0 12 9 23q46 65 46 90 q-30 2 -48 21.5t-18 53.5z" />
<glyph unicode="#" horiz-adv-x="449" d="M100 344l-74 -4q-4 30 -4 38q0 31 16 42q14 10 44 10h6h20l10 155q28 4 52 4q32 0 44 -13q8 -10 8 -28q0 -8 -2 -18l-16 -102h62l11 157q28 4 52 4q33 0 44 -13q8 -10 8 -28q0 -8 -2 -18l-16 -102l78 3q4 -30 4 -39q-1 -31 -16 -41.5t-50 -10.5q-17 0 -29 2l-13 -111 l84 2q4 -20 4 -39q0 -31 -15.5 -41.5t-50.5 -10.5q-12 0 -30 3l-9 -152q-17 -4 -51 -4q-30 0 -41 13q-7 9 -7 29q0 8 1 17l13 101h-61l-14 -157q-17 -4 -50 -4q-30 0 -40 14q-8 9 -8 29q0 7 1 16l14 100l-71 -4q-4 30 -4 38q0 31 15.5 42t50.5 11l21 -1zM258 347h-65 l-12 -118h63z" />
<glyph unicode="$" horiz-adv-x="470" d="M186 -89v80h-3q-93 5 -148 40v7q0 61 16 90q17 31 43 31q19 0 56 -13t66 -13q21 0 35 6q8 15 8 31q0 14 -3.5 23t-21.5 22.5t-53 27.5q-77 29 -112 72.5t-35 116.5t38 127t112 71v89h113v-81q64 -4 124 -26q-4 -77 -20 -107t-42 -30q-18 0 -50.5 8.5t-60.5 8.5 q-24 0 -37 -6q-8 -16 -8 -32q0 -31 75 -60q89 -31 122 -78.5t33 -115.5q0 -74 -36.5 -125.5t-99.5 -72.5v-91h-111z" />
<glyph unicode="%" d="M33 0l147 311q-30 -16 -74 -16q-51 0 -77.5 43t-26.5 110q0 148 133 148q105 0 105 -154v-6l73 154h111l-148 -310q30 16 74 16q105 0 105 -154q0 -148 -134 -148q-52 0 -78.5 43.5t-26.5 110.5v5l-73 -153h-110zM103 445q0 -43 15 -57q13 0 15 1q8 22 8 57q0 42 -16 57 q-9 0 -15 -2q-7 -23 -7 -56zM318 145q0 -46 15 -58q9 0 15 2q7 25 7 57q0 41 -15 56q-12 0 -15 -1q-7 -20 -7 -56z" />
<glyph unicode="&#x26;" horiz-adv-x="542" d="M188 210q0 -33 17.5 -53.5t53.5 -20.5q25 0 41 9q15 32 15 78q0 25 -5.5 56t-5.5 42q0 63 52 64l180 8q10 -31 10 -61q0 -63 -55 -63q-9 0 -20 2l-12 -8q18 -40 18 -80q0 -83 -63 -138t-168 -55q-97 0 -163 47.5t-66 146.5q0 53 24.5 91.5t58.5 60.5q-26 17 -42.5 49.5 t-16.5 72.5q0 91 62.5 136t150.5 45q106 0 166 -46q-13 -63 -27 -87t-38 -24q-13 0 -46.5 9.5t-56.5 9.5q-27 0 -42 -5q-14 -21 -14 -48q0 -34 16.5 -49.5t58.5 -15.5q4 -15 4 -31q0 -10 -1 -20q-4 -27 -14 -50q-9 -1 -18 -1q-13 0 -25 2q-29 -29 -29 -73z" />
<glyph unicode="'" horiz-adv-x="251" d="M103 310l-8 3q-59 21 -59 53q0 12 9 23q46 65 46 90q-30 2 -48 21.5t-18 53.5q0 40 28 65t73 25q100 0 100 -117q0 -56 -35 -118t-88 -99z" />
<glyph unicode="(" horiz-adv-x="346" d="M73 292v1q0 104 17 185t46 129t56 75t56 40q31 -10 53.5 -30.5t22.5 -47.5q0 -13 -10.5 -25.5t-25.5 -32t-30 -50.5t-25.5 -94t-10.5 -149t10.5 -149.5t25.5 -94.5t30 -50.5t25.5 -32t10.5 -25.5q0 -27 -22.5 -47.5t-53.5 -30.5q-29 13 -56 40t-56 75t-46 129t-17 185z " />
<glyph unicode=")" horiz-adv-x="346" d="M124 293q0 86 -10.5 149t-25.5 94t-30 50.5t-25.5 32t-10.5 25.5q0 27 22 47.5t53 30.5q29 -13 56.5 -40t56 -75t45.5 -129t17 -185v-1q0 -104 -17 -185t-45.5 -129t-56 -75t-56.5 -40q-31 10 -53 30.5t-22 47.5q0 13 10.5 25.5t25.5 32t30 50.5t25.5 94.5t10.5 149.5z " />
<glyph unicode="*" horiz-adv-x="404" d="M69 336q-19 19 -34 43q-13 22 -13 36q0 4 1 8q5 16 36 30l53 26l-99 42q2 21 20 50q14 29 29 33q3 1 6 1q15 0 39 -16l50 -32l-10 108q20 6 54 6q33 0 44 -12q8 -9 8 -29q0 -7 -1 -16l-5 -60l88 64q15 -13 33 -42q13 -23 13 -37q0 -4 -1 -7q-4 -16 -34 -30l-55 -26 l100 -43q-2 -20 -19 -49q-16 -30 -31 -34q-3 -1 -6 -1q-14 0 -37 16l-51 32l10 -108q-20 -6 -54 -6q-33 0 -43 12q-9 9 -9 31q0 7 1 14l5 60z" />
<glyph unicode="+" d="M90 374l71 -1l-4 160q33 6 72 6q49 0 63 -15q11 -12 11 -47v-11l-2 -94l138 4q5 -28 5 -65q0 -48 -14 -61q-13 -12 -47 -12h-11l-71 1l4 -161q-38 -5 -72 -5q-49 0 -63 15q-12 13 -12 52v6l2 94l-138 -4q-5 37 -5 65q0 48 15 61q13 12 52 12h6z" />
<glyph unicode="," horiz-adv-x="250" d="M94 -158q-58 21 -58 53q0 12 9 24q46 63 46 89q-30 2 -48 21.5t-18 53.5q0 40 28 65t73 25q100 0 100 -116q0 -57 -35 -119t-88 -99z" />
<glyph unicode="-" horiz-adv-x="344" d="M31 210q-6 26 -6 58q0 79 65 79h224q6 -31 6 -54q0 -83 -70 -83h-219z" />
<glyph unicode="." horiz-adv-x="250" d="M26 89q0 39 28 65t84 26q48 0 68 -23.5t20 -72.5q0 -44 -29.5 -68.5t-84.5 -24.5q-86 0 -86 98z" />
<glyph unicode="/" horiz-adv-x="336" d="M-10 -155l206 832h144l-206 -832h-144z" />
<glyph unicode="0" d="M184 312q0 -106 9.5 -140t34.5 -34q5 0 11.5 2t11.5 5t6 3q12 69 12 167q0 112 -8 144.5t-34 32.5q-11 0 -29 -9q-14 -62 -14 -171zM14 324q0 315 220 315q115 0 162.5 -76t47.5 -250q0 -45 -5.5 -86.5t-20.5 -86t-38.5 -76.5t-62.5 -53t-90 -21q-213 0 -213 334z" />
<glyph unicode="1" d="M350 629v-485h87q6 -54 6 -68q0 -44 -19.5 -60t-69.5 -16h-291q-6 40 -6 68q0 43 18.5 59.5t66.5 16.5h36v309l-40 -27q-11 -7 -27.5 -14t-28.5 -7q-57 0 -61 126l169 98h160z" />
<glyph unicode="2" d="M425 443q0 -70 -41.5 -131t-106.5 -106q-46 -38 -66 -65l221 5q6 -36 6 -62q0 -44 -19 -64t-66 -20h-303q-18 44 -18 105q0 54 32 101t93 105l45 45q16 16 30 39t14 43q0 45 -47 45q-19 0 -60.5 -20.5t-65.5 -20.5q-44 0 -55 123q88 74 206 74q201 0 201 -196z" />
<glyph unicode="3" d="M201 138q23 0 43 10q12 26 12 50q0 30 -13 42.5t-43 12.5q-43 0 -81 -10q-18 26 -18 75q0 43 9 66l10 -1q11 -1 26 -1.5t26 -0.5q42 0 59 7q15 22 15 50q0 47 -55 47q-26 0 -58.5 -10.5t-45.5 -10.5q-48 0 -58 120q35 23 90.5 39t109.5 16q191 0 191 -165 q0 -40 -21.5 -77.5t-47.5 -55.5q41 -16 63.5 -53.5t22.5 -89.5q0 -97 -63 -152.5t-166 -55.5q-127 0 -190 67q18 106 73 106q13 0 46 -12.5t64 -12.5z" />
<glyph unicode="4" d="M147 629h232v-375h14q35 0 49.5 -12.5t14.5 -53.5q0 -32 -9 -88h-69v-100h-159v100h-143q-67 0 -67 94q0 63 39 189.5t98 245.5zM156 240l64 5v219h-11q-22 -72 -53 -224z" />
<glyph unicode="5" d="M21 52q11 110 60 110q6 0 46 -13t80 -13q27 0 37 6q14 30 14 68q0 41 -19 57t-57 16q-65 0 -131 -11q-4 50 -4 242q0 69 21 92t74 23h277q5 -42 5 -64q0 -47 -18.5 -62t-64.5 -15h-140l-2 -87q39 9 72 9q83 0 125 -45t42 -142q0 -106 -62 -169.5t-163 -63.5 q-128 0 -192 62z" />
<glyph unicode="6" d="M238 136q17 0 26 7q12 26 12 65q0 36 -9.5 50t-32.5 14q-21 0 -45 -8q0 -128 49 -128zM285 414q21 0 39 -3t41 -14t39 -30t27 -55t11 -85q0 -105 -56.5 -171t-158.5 -66q-106 0 -159.5 82t-53.5 237q0 170 69.5 250t184.5 80q82 0 143 -29q1 -16 1 -30q0 -47 -12 -69 q-17 -29 -53 -29q-14 0 -45 5.5t-49 5.5l-41 -6q-23 -50 -24 -93q41 20 97 20z" />
<glyph unicode="7" d="M264 481h-95q3 -43 3 -68q0 -70 -73 -70q-44 0 -73 13v273h396q16 -45 16 -98q0 -13 -1 -27q-110 -253 -128 -504h-190q4 90 48.5 234t96.5 247z" />
<glyph unicode="8" d="M183 460q0 -50 56 -65q8 7 18 25.5t10 38.5q0 51 -41 51q-18 0 -35 -10q-8 -20 -8 -40zM196 225q-7 -17 -7 -30q0 -18 12 -31q11 -24 34 -24h7q7 0 14 8t11 21q0 37 -25 64q-2 2 -7 2q-11 0 -39 -10zM95 328q-27 19 -48 53.5t-21 77.5q0 93 61.5 136.5t142.5 43.5 q94 0 144.5 -40.5t50.5 -122.5q0 -71 -67 -138q33 -17 59 -54.5t26 -87.5q0 -88 -59.5 -147t-161.5 -59q-93 0 -149.5 47.5t-56.5 138.5q0 51 24.5 90.5t54.5 61.5z" />
<glyph unicode="9" d="M219 493q-11 0 -25 -7q-12 -26 -12 -68q0 -63 43 -63q9 0 41 8q0 69 -10.5 99.5t-36.5 30.5zM242 141q25 41 25 94q-30 -21 -86 -21q-75 0 -120.5 47t-45.5 146q0 104 55.5 168t163.5 64q208 0 208 -312q0 -170 -67.5 -253.5t-179.5 -83.5q-101 0 -152 32q-2 17 -2 31 q0 95 69 95q13 0 45 -6t51 -6t36 5z" />
<glyph unicode=":" horiz-adv-x="250" d="M26 89q0 39 27.5 65t83.5 26q48 0 68.5 -23.5t20.5 -72.5q0 -44 -29.5 -68.5t-84.5 -24.5q-86 0 -86 98zM26 420q0 39 27.5 65t83.5 26q48 0 68.5 -23t20.5 -72q0 -44 -29.5 -69t-84.5 -25q-86 0 -86 98z" />
<glyph unicode=";" horiz-adv-x="250" d="M26 420q0 39 27.5 65t83.5 26q48 0 68.5 -23t20.5 -72q0 -44 -29.5 -69t-84.5 -25q-86 0 -86 98zM94 -158q8 -3 9 -3q53 37 88 99t35 119q0 116 -100 116q-45 0 -73 -25t-28 -65q0 -34 18 -53.5t48 -21.5q0 -26 -46 -89q-9 -12 -9 -24q0 -32 58 -53z" />
<glyph unicode="&#x3c;" horiz-adv-x="450" d="M28 302l288 287q31 -10 56.5 -35.5t25.5 -54.5q0 -35 -37 -68q-80 -73 -151 -129q96 -78 151 -129q37 -33 37 -69q0 -29 -25.5 -54.5t-56.5 -35.5z" />
<glyph unicode="=" d="M345 134h-302q-5 40 -5 60q0 40 16 53t55 13h307q5 -29 5 -56q0 -43 -17.5 -56.5t-58.5 -13.5zM345 323h-302q-5 40 -5 59q0 40 16 53t55 13h307q5 -28 5 -55q0 -43 -17.5 -56.5t-58.5 -13.5z" />
<glyph unicode="&#x3e;" horiz-adv-x="450" d="M132 589l289 -287l-289 -288q-30 10 -55.5 35.5t-25.5 54.5q0 36 36 69q23 21 151 129q-75 60 -151 129q-36 33 -36 68q0 29 25.5 54.5t55.5 35.5z" />
<glyph unicode="?" horiz-adv-x="406" d="M90 81q0 86 102 86q44 0 61 -21.5t17 -68.5q0 -85 -102 -85q-78 0 -78 89zM125 208q-17 29 -17 76t19 83t41.5 54t41.5 38.5t19 40.5q0 38 -41 38q-23 -1 -58.5 -19t-47.5 -18q-51 0 -60 107q72 72 187 72q89 0 137.5 -42.5t48.5 -116.5q0 -41 -14.5 -72.5t-35 -51.5 t-41 -37.5t-35 -41t-14.5 -52.5q0 -68 -56 -68q-53 0 -74 10z" />
<glyph unicode="@" horiz-adv-x="754" d="M343 273q0 -63 8 -84t26 -21q26 0 41 32v168q-14 9 -35 9q-19 0 -30 -6q-10 -34 -10 -98zM195 268q0 112 33.5 173.5t114.5 61.5q53 0 84 -31q26 29 66 29q38 0 55 -24v-278q0 -32 21 -35q13 -1 22.5 16.5t14.5 48t5 69.5q0 66 -4.5 104.5t-17 71.5t-38.5 48.5 t-65.5 23.5t-101.5 8q-44 0 -96.5 -14t-88.5 -34q-56 -94 -56 -242q0 -146 58 -216q59 -71 162 -71q71 0 114 18q16 -42 16 -94v-11q-54 -27 -140 -27q-70 0 -128.5 21.5t-107 67t-75.5 125.5t-27 188q0 194 94.5 300.5t283.5 106.5q100 0 167.5 -23t106.5 -71t55.5 -114.5 t16.5 -162.5q0 -127 -49.5 -196.5t-133.5 -69.5q-39 0 -68.5 19t-39.5 51q-13 -30 -44 -49.5t-64 -19.5q-144 0 -145 232z" />
<glyph unicode="A" horiz-adv-x="486" d="M295 87l-4 33h-103l-14 -120h-173l108 629h271l106 -623q-38 -14 -88 -14q-57 0 -77.5 19.5t-25.5 75.5zM230 474l-27 -222h73l-25 222h-21z" />
<glyph unicode="B" horiz-adv-x="483" d="M219 -10q-87 0 -178 20v619h189q110 0 165 -36t55 -119q0 -40 -19.5 -79t-48.5 -60q41 -18 65 -53t24 -82q0 -98 -65.5 -154t-186.5 -56zM269 265h-61v-143q14 -5 32 -5q25 0 41 10q18 28 18 67q0 54 -30 71zM235 504l-27 -1v-127h58q26 26 26 72q0 56 -57 56z" />
<glyph unicode="C" horiz-adv-x="427" d="M16 326q0 313 265 313q92 0 136 -28q0 -140 -55 -140q-11 0 -36.5 6t-55.5 6q-27 0 -51 -11q-23 -51 -23 -154q0 -93 25.5 -131.5t74.5 -38.5q54 0 96 26l26 -139q-63 -45 -159 -45q-125 0 -184 80t-59 256z" />
<glyph unicode="D" horiz-adv-x="508" d="M210 497v-362q12 -5 35 -5q29 0 48 14q26 69 26 178q0 101 -17 138t-62 37h-30zM41 12v617h222q127 0 178 -74.5t51 -229.5q0 -69 -14 -126t-44.5 -105.5t-87 -76t-135.5 -27.5q-94 0 -170 22z" />
<glyph unicode="E" horiz-adv-x="420" d="M212 255v-117l186 6q6 -29 6 -69q0 -45 -19 -60t-69 -15h-174q-70 0 -85.5 14.5t-15.5 78.5v536h356q5 -31 5 -65q0 -45 -20 -59q-18 -13 -64 -13h-7l-99 1v-101h164q7 -34 7 -70q0 -43 -19 -56q-17 -12 -58 -12h-13z" />
<glyph unicode="F" horiz-adv-x="398" d="M212 232v-232h-171v629h341q5 -27 5 -64q0 -43 -19 -59q-17 -14 -64 -14h-6l-86 1v-124h150q6 -42 6 -69q0 -43 -20 -57q-17 -12 -59 -12h-12z" />
<glyph unicode="G" horiz-adv-x="478" d="M16 322q0 164 66 240.5t205 76.5q102 0 158 -34q-1 -69 -12 -99t-43 -30q-11 0 -44.5 7.5t-61.5 7.5q-45 0 -67 -13q-24 -62 -24 -156q0 -99 22 -141.5t67 -42.5q14 0 21 3v126h-54q-9 32 -9 58q0 41 17 57.5t62 16.5h131v-359q-71 -50 -187 -50q-133 0 -190 82.5 t-57 249.5z" />
<glyph unicode="H" horiz-adv-x="527" d="M213 0h-172v619q40 14 97 14q49 0 62 -18t13 -82v-142h102v231q39 11 96 11q50 0 63 -18t13 -82v-533h-172v252h-102v-252z" />
<glyph unicode="I" horiz-adv-x="359" d="M94 489l-78 -2q-5 33 -5 71q0 44 16 57.5t66 13.5h251q3 -45 3 -70q0 -36 -9.5 -52.5t-36.5 -18.5q-5 0 -15 0.5t-20 0.5v-349l77 2q4 -37 4 -70q0 -46 -14.5 -59t-66.5 -13h-248q-7 36 -7 71q0 36 13.5 51.5t45.5 18.5q8 1 24 1v347z" />
<glyph unicode="J" horiz-adv-x="349" d="M140 486l-112 -3q-6 45 -6 75q0 41 17.5 56t64.5 15h130q51 0 64 -16t13 -79v-328q0 -108 -49.5 -162t-141.5 -54q-63 0 -106 24l14 134q27 -9 54 -9q58 0 58 67v280z" />
<glyph unicode="K" horiz-adv-x="517" d="M318 629h194l-128 -298l135 -331h-200l-106 309zM212 531v-531h-171v620q41 13 94 13q52 0 64.5 -17.5t12.5 -84.5z" />
<glyph unicode="L" horiz-adv-x="375" d="M213 527v-385l154 5q6 -37 6 -64q0 -46 -19.5 -64.5t-67.5 -18.5h-245v619q36 14 95 14q54 0 65.5 -18t11.5 -88z" />
<glyph unicode="M" horiz-adv-x="682" d="M41 0v629h223l71 -334h10l64 334h232v-617q-43 -17 -84 -17q-42 0 -59 17q-16 16 -16 63v6l7 302h-11l-60 -321q-38 -14 -88 -14q-41 0 -58.5 18t-25.5 70l-50 248h-11l9 -384h-153z" />
<glyph unicode="N" horiz-adv-x="541" d="M41 0v629h217l86 -397h11l-1 397h147v-620q-66 -19 -136 -19q-56 0 -78 23.5t-32 87.5l-63 290h-11v-391h-140z" />
<glyph unicode="O" horiz-adv-x="528" d="M196 316q0 -91 16 -132.5t54 -41.5q31 0 49 16q17 46 17 158q0 92 -15.5 132.5t-53.5 40.5q-29 0 -47 -14q-20 -63 -20 -159zM16 317q0 74 12.5 129.5t42 100.5t84 68.5t133.5 23.5q224 0 224 -307q0 -60 -6.5 -107t-24.5 -92.5t-48 -75.5t-79.5 -48.5t-115.5 -18.5 q-113 0 -167.5 88t-54.5 239z" />
<glyph unicode="P" horiz-adv-x="478" d="M240 311q29 0 43 12q13 29 13 91q0 45 -11.5 65.5t-41.5 20.5q-19 0 -33 -3v-183q12 -3 30 -3zM41 629h221q110 0 157.5 -52t47.5 -168q0 -106 -59 -171.5t-168 -65.5q-23 0 -30 1v-173h-169v629z" />
<glyph unicode="Q" horiz-adv-x="528" d="M16 317q0 74 12.5 129.5t42 100.5t84 68.5t133.5 23.5q224 0 224 -307q0 -211 -94 -289l110 -38q-15 -58 -38 -87.5t-50 -29.5q-6 0 -13.5 2t-17.5 8l-18 10q-8 5 -23 16l-25 19l-31 23l-33 26q-26 -2 -41 -2q-113 0 -167.5 88t-54.5 239zM196 316q0 -91 16 -132.5 t54 -41.5q31 0 49 16q17 46 17 158q0 92 -15.5 132.5t-53.5 40.5q-29 0 -47 -14q-20 -63 -20 -159z" />
<glyph unicode="R" horiz-adv-x="491" d="M234 335q26 0 40 7q23 27 23 78q0 43 -13 61.5t-48 18.5q-22 0 -26 -1v-162q6 -2 24 -2zM41 0v629h221q109 0 156.5 -48.5t47.5 -141.5q0 -60 -26.5 -105t-61.5 -62l106 -255q-46 -26 -112 -26q-43 0 -62 16.5t-31 56.5l-51 170h-10q-4 0 -8 1v-235h-169z" />
<glyph unicode="S" horiz-adv-x="430" d="M19 433q0 91 57 148.5t167 57.5q96 0 163 -27q-4 -77 -20.5 -106.5t-43.5 -29.5q-18 0 -49.5 8t-59.5 8q-23 0 -38 -6q-7 -11 -7 -30q0 -10 3.5 -17.5t21 -20t49.5 -24.5q88 -30 121.5 -78.5t33.5 -116.5q0 -97 -60.5 -153t-158.5 -56q-118 0 -179 41v7q0 61 17 90 q17 30 43 30q18 0 54 -12.5t65 -12.5q24 0 37 6q9 7 9 31q0 13 -3.5 22.5t-21.5 23.5t-53 27q-78 30 -112.5 73.5t-34.5 116.5z" />
<glyph unicode="T" horiz-adv-x="410" d="M115 491l-107 -5q-7 36 -7 75q0 42 18.5 55t69.5 13h314q5 -25 5 -63q0 -45 -16 -62q-14 -13 -45 -13h-11l-50 1v-492h-171v491z" />
<glyph unicode="U" horiz-adv-x="507" d="M35 196v426q41 11 94 11q50 0 64.5 -18t14.5 -85v-332q0 -32 10.5 -44t34.5 -12q25 0 46 12v475h170v-579q-103 -60 -232 -60q-112 0 -157 47t-45 159z" />
<glyph unicode="V" horiz-adv-x="495" d="M124 0l-120 622q42 11 96 11q56 0 74 -17t25 -75q2 -13 14.5 -107.5t21 -164.5t9.5 -103h20l56 463h171l-116 -629h-251z" />
<glyph unicode="W" horiz-adv-x="803" d="M114 0l-110 620q48 13 104 13q52 0 70 -17.5t24 -80.5l35 -328h13l48 415q57 10 111 10q69 0 92 -17t33 -79l46 -329h12l37 422h170l-107 -629h-214l-64 443h-11l-64 -443h-225z" />
<glyph unicode="X" horiz-adv-x="492" d="M487 629l-138 -300l136 -318q-52 -19 -101 -19q-50 0 -72 15.5t-36 61.5l-38 113l-69 -182h-162l136 307l-136 312q54 18 109 18q51 0 70.5 -15t31.5 -62l36 -117l67 186h166z" />
<glyph unicode="Y" horiz-adv-x="472" d="M154 195l-154 424q60 18 120 18q50 0 66 -19t23 -75l37 -197h1l61 283h163l-146 -428v-201h-171v195z" />
<glyph unicode="Z" horiz-adv-x="428" d="M408 506l-199 -365l49 1l98 2l49 1q10 -40 10 -72q0 -41 -21 -57t-70 -16h-293q-15 41 -15 116l203 375l-113 -3h-9q-39 0 -58 15q-21 17 -21 61q0 34 9 65h364q17 -45 17 -123z" />
<glyph unicode="[" horiz-adv-x="346" d="M221 566v-549q30 3 40 3q42 0 62 -18t20 -67q0 -17 -5 -50h-260v814h260q5 -33 5 -51q0 -48 -20 -66t-62 -18z" />
<glyph unicode="\" horiz-adv-x="336" d="M326 -140h-144l-174 812h144z" />
<glyph unicode="]" horiz-adv-x="346" d="M125 17v549l-40 -2q-42 0 -62 18t-20 66q0 18 5 51h260v-814h-260q-5 33 -5 50q0 49 20 67t62 18q10 0 40 -3z" />
<glyph unicode="^" horiz-adv-x="472" d="M62 620l169 92h10l169 -92q-7 -45 -27 -63.5t-40 -18.5t-48 23l-59 50l-60 -51q-27 -22 -47 -22t-40 18.5t-27 63.5z" />
<glyph unicode="_" horiz-adv-x="551" d="M31 -117q-6 28 -6 59q0 78 65 78h431q5 -26 5 -54q0 -83 -69 -83h-426z" />
<glyph unicode="`" horiz-adv-x="472" d="M178 748l172 -153l-60 -54q-61 24 -109 56q-59 37 -59 76q0 22 17 42.5t39 32.5z" />
<glyph unicode="a" horiz-adv-x="436" d="M158 167q0 -48 34 -48q26 0 46 19v83q-57 -4 -71 -9q-9 -21 -9 -45zM403 1q-31 -11 -75 -11q-36 0 -54 13t-22 48q-38 -61 -119 -61q-56 0 -88.5 41t-32.5 110q0 91 53.5 127t172.5 46q0 36 -8 49.5t-38 13.5q-18 0 -55.5 -7.5t-53.5 -7.5q-32 0 -45 26t-14 85 q90 40 208 40q89 0 130 -39t41 -134v-339z" />
<glyph unicode="b" horiz-adv-x="484" d="M293 243q0 81 -10 108.5t-37 27.5q-18 0 -44 -13v-232q17 -17 42 -17q24 0 31 7q18 36 18 119zM201 590v-126q16 17 47.5 33t67.5 16q74 0 112 -60.5t38 -199.5q0 -124 -47.5 -193.5t-123.5 -69.5q-33 0 -61.5 14.5t-42.5 34.5q-17 -27 -39.5 -38t-59.5 -11q-31 0 -55 6 v661q42 14 82 14q50 0 66 -16t16 -65z" />
<glyph unicode="c" horiz-adv-x="360" d="M18 248q0 132 56 198.5t158 66.5q79 0 123 -33q0 -120 -49 -120q-8 0 -30.5 7.5t-38.5 7.5q-12 0 -27 -5q-20 -40 -20 -117q0 -128 77 -128q37 0 73 18l15 -112q-60 -41 -133 -41q-96 0 -150 63t-54 195z" />
<glyph unicode="d" horiz-adv-x="483" d="M190 255q0 -73 11.5 -103t35.5 -30q27 0 45 16v229q-21 18 -50 18q-12 0 -26 -3q-16 -37 -16 -127zM18 256q0 119 45.5 188t129.5 69q55 0 89 -32v176q35 14 89 14q46 0 60.5 -15t14.5 -66v-592q-33 -8 -71 -8h-9q-34 1 -52.5 13t-25.5 43q-45 -56 -118 -56 q-74 0 -113 71t-39 195z" />
<glyph unicode="e" horiz-adv-x="436" d="M268 294v15q0 76 -37 76q-4 0 -28 -8q-13 -33 -13 -90zM18 251q0 118 55 190t160 72q99 0 141 -60t42 -178q0 -44 -4 -84h-221q5 -70 69 -70q30 0 63 8t39 8q23 0 32 -25q9 -22 9 -74v-11q-65 -37 -174 -37q-211 0 -211 261z" />
<glyph unicode="f" horiz-adv-x="322" d="M9 494h57v20q0 98 39.5 139.5t151.5 41.5q57 0 120 -21q0 -40 -2 -60t-13.5 -35t-34.5 -15q-8 0 -26.5 2t-29.5 2q-24 0 -42 -5v-69h93v-125h-93v-369h-163v369h-57v125z" />
<glyph unicode="g" horiz-adv-x="484" d="M191 264q0 -69 10 -101t38 -32q25 0 44 17v214q-21 21 -51 21q-12 0 -24 -4q-17 -37 -17 -115zM205 -163q-99 0 -146 28l15 118q55 -22 131 -22q45 0 78 10v72q-8 -10 -38.5 -23.5t-62.5 -13.5q-164 0 -164 264q0 119 47.5 180.5t125.5 61.5q27 0 52 -10t36.5 -19 t16.5 -15q18 24 38 34t62 10q6 0 12 -0.5t11 -1.5t9.5 -1.5t8 -1.5t6 -2t3.5 -1l1 -1v-457q0 -119 -62 -164t-180 -45z" />
<glyph unicode="h" horiz-adv-x="481" d="M37 0v657q42 15 87 15q49 0 64.5 -16t15.5 -65v-126q52 48 123 48q121 0 121 -136v-377h-165v334q0 37 -32 37t-47 -17v-354h-167z" />
<glyph unicode="i" horiz-adv-x="239" d="M31 620q0 76 103 76q39 0 56.5 -19t17.5 -59q0 -78 -103 -78q-74 0 -74 80zM204 0h-167v489q37 15 87 15q49 0 64.5 -17t15.5 -65v-422z" />
<glyph unicode="j" horiz-adv-x="239" d="M31 622q0 74 100 74q40 0 56 -18.5t16 -58.5q0 -75 -100 -75q-72 0 -72 78zM204 422v-401q0 -89 -43.5 -136.5t-142.5 -47.5q-66 0 -93 12l2 29l4 56l2 29q32 -6 62 -6q32 0 42 5v527q37 15 87 15q49 0 64.5 -17t15.5 -65z" />
<glyph unicode="k" horiz-adv-x="459" d="M206 275l92 229h168l-102 -226l109 -278h-179l-88 253v-253h-169v654q36 18 87 18q49 0 65.5 -15t16.5 -66v-316z" />
<glyph unicode="l" horiz-adv-x="270" d="M34 125v528q40 18 87 18t63.5 -16.5t16.5 -64.5v-436q0 -35 31 -35q23 0 35 6l8 -107q-48 -28 -116 -28q-59 0 -92 34t-33 101z" />
<glyph unicode="m" horiz-adv-x="711" d="M37 0v495q38 18 83 18q33 0 50 -11t27 -43q18 20 54.5 37t76.5 17q76 0 97 -58q21 21 61 39.5t76 18.5q69 0 92 -39t23 -130v-344h-163v328q0 24 -5.5 33.5t-24.5 9.5q-10 0 -25 -6t-20 -10v-355h-164v328q0 24 -5 33.5t-23 9.5q-22 0 -46 -16v-355h-164z" />
<glyph unicode="n" horiz-adv-x="481" d="M37 0v495q42 18 85 18q32 0 50 -11.5t27 -42.5q52 54 127 54q122 0 122 -137v-376h-165v333q0 40 -33 40q-31 0 -46 -17v-356h-167z" />
<glyph unicode="o" horiz-adv-x="458" d="M181 251q0 -77 10.5 -105t38.5 -28q20 0 34 9q14 51 14 124q0 78 -10 105t-38 27q-20 0 -35 -8q-14 -42 -14 -124zM243 513q104 0 150.5 -67t46.5 -198q0 -258 -230 -258q-92 0 -142 71t-50 197q0 40 4.5 73t19 68t38.5 59t65.5 39.5t97.5 15.5z" />
<glyph unicode="p" horiz-adv-x="483" d="M293 242q0 61 -6 92t-14.5 38t-25.5 7q-12 0 -23.5 -3.5t-17.5 -6.5l-5 -3v-230q15 -17 46 -17q13 0 28 5q18 39 18 118zM465 249q0 -69 -16.5 -125.5t-57 -95t-99.5 -38.5q-54 0 -91 31v-169h-164v655q30 6 81 6q63 0 75 -55q58 55 122 55q79 0 114.5 -65t35.5 -199z " />
<glyph unicode="q" horiz-adv-x="485" d="M284 -148v185q-39 -47 -116 -47q-64 0 -107 61t-43 204q0 124 45 191t128 67q37 0 65 -13t40 -26q15 20 35 29.5t58 9.5q31 0 59 -11v-650h-164zM190 256q0 -70 10 -102t38 -32q19 0 46 16l-1 229q-4 6 -19.5 12.5t-33.5 6.5q-6 0 -14 -2t-9 -2q-17 -39 -17 -126z" />
<glyph unicode="r" horiz-adv-x="316" d="M37 0v495q31 18 81 18q34 0 48 -17t21 -57q41 74 128 74q7 -34 7 -79v-20q-2 -34 -9 -48t-27 -14q-52 0 -82 -24v-328h-167z" />
<glyph unicode="s" horiz-adv-x="367" d="M22 340q0 80 50.5 126.5t145.5 46.5q60 0 124 -19q2 -10 2 -21q0 -7 -1 -14q-1 -44 -14.5 -66.5t-35.5 -22.5q-8 0 -36 6t-51 6q-21 0 -37 -4q-3 -6 -3 -15q0 -13 13.5 -19.5t61.5 -20.5q62 -15 88.5 -52t26.5 -101q0 -84 -52 -132t-142 -48q-75 0 -135 29q-5 15 -5 42 q2 33 12 55.5t28 22.5q5 0 35.5 -8.5t64.5 -8.5q26 0 44 6q3 4 3 17q0 6 -2.5 10.5t-10 8t-14.5 5.5l-21 7q-15 4 -26 8q-113 38 -113 156z" />
<glyph unicode="t" horiz-adv-x="323" d="M5 368v126h61v44q0 47 36 66q27 14 79 14q19 0 41 -2v-122h89v-126h-89v-213q0 -36 34 -36q28 0 48 9l13 -107q-48 -30 -130 -30q-131 0 -131 140v237h-51z" />
<glyph unicode="u" horiz-adv-x="480" d="M444 504v-492q-42 -22 -90 -22q-32 0 -47.5 12t-22.5 43q-17 -20 -52 -37.5t-74 -17.5q-61 0 -93 37.5t-32 110.5v363q44 7 77 7q50 0 69.5 -14.5t19.5 -62.5v-254q0 -24 7 -33.5t24 -9.5q29 0 50 21v349h164z" />
<glyph unicode="v" horiz-adv-x="420" d="M106 0l-103 497q35 11 85 11q53 0 72 -14.5t23 -63.5l34 -325l40 399h162l-104 -504h-209z" />
<glyph unicode="w" horiz-adv-x="706" d="M93 0l-89 497q37 11 94 11q46 0 62.5 -15.5t21.5 -60.5l37 -317l32 373q42 17 115 17q62 0 83.5 -14.5t27.5 -62.5l38 -312l28 388h161l-90 -504h-201l-58 368l-52 -368h-210z" />
<glyph unicode="x" horiz-adv-x="405" d="M396 504l-104 -238l112 -250q-48 -24 -107 -24q-34 0 -51.5 12.5t-25.5 44.5l-25 90l-46 -139h-142l106 244l-110 246q44 21 106 21q37 0 55 -11t27 -51l22 -84l41 139h142z" />
<glyph unicode="y" horiz-adv-x="423" d="M111 0l-106 497q44 11 96 11q46 0 62.5 -15t21.5 -66l34 -316l41 393h162l-102 -511q-30 -156 -203 -156q-68 0 -109 19l10 111q48 -12 92 -12q48 0 75 8l8 37h-82z" />
<glyph unicode="z" horiz-adv-x="379" d="M364 384l-154 -252l152 5q6 -37 6 -64q0 -73 -53 -73h-280q-18 41 -18 97v16l163 257q-68 -5 -96 -5q-36 0 -53 16t-17 54q0 27 9 69h328q13 -46 13 -120z" />
<glyph unicode="{" horiz-adv-x="346" d="M40 222v148q70 8 70 68q0 30 -18.5 87t-18.5 89q0 48 40.5 75.5t111.5 27.5q79 0 123 -27q1 -12 1 -23q0 -96 -54 -96h-2q-16 0 -42 4q-21 0 -26 -2q10 -25 18.5 -69t8.5 -73q0 -101 -88 -127v-16q88 -25 88 -126q0 -30 -8.5 -74t-18.5 -69q13 -3 29 -1q5 0 18 1.5 t21 2.5q56 0 56 -96q0 -11 -1 -23q-43 -28 -123 -28q-70 0 -111 28t-41 75q0 32 18.5 89.5t18.5 87.5q0 59 -70 67z" />
<glyph unicode="|" horiz-adv-x="336" d="M238 -146h-138v816h138v-816z" />
<glyph unicode="}" horiz-adv-x="346" d="M311 370v-148q-70 -8 -70 -68q0 -30 18.5 -87t18.5 -89q0 -48 -40.5 -75.5t-111.5 -27.5q-79 0 -123 27q-1 12 -1 23q0 96 54 96h2q16 0 42 -4q21 0 26 2q-10 25 -18.5 69t-8.5 73q0 101 88 127v16q-88 25 -88 126q0 30 8.5 74t18.5 69q-13 3 -29 1q-5 0 -18 -2l-21 -2 q-56 0 -56 96q0 11 1 23q43 28 123 28q70 0 111 -28t41 -75q0 -32 -18.5 -89.5t-18.5 -87.5q0 -59 70 -67z" />
<glyph unicode="~" horiz-adv-x="500" d="M139 532q-66 23 -66 66q0 30 31 57t72 27q19 0 44 -7t59 -19l42 -16q27 15 45 53q60 -26 60 -71q0 -33 -29.5 -58.5t-74.5 -25.5q-22 0 -59 11.5t-63 22.5l-26 12q-26 -15 -35 -52z" />
<glyph unicode="&#xa1;" horiz-adv-x="266" d="M227 425q0 -84 -102 -84q-42 0 -60.5 21.5t-18.5 66.5q0 86 102 86q79 0 79 -90zM71 298h127l22 -456q-35 -7 -83 -7q-55 0 -73 20q-14 17 -14 62v16z" />
<glyph unicode="&#xa2;" horiz-adv-x="470" d="M324 -7v-82h-111v86q-180 32 -180 329q0 255 179 304v89h112v-80q57 -1 110 -29q0 -31 -2 -51.5t-7.5 -43.5t-17.5 -34.5t-31 -11.5q-14 0 -43.5 7.5t-50.5 7.5q-33 0 -48 -11q-25 -44 -25 -152q0 -173 112 -173q51 0 93 28l26 -138q-45 -39 -116 -45z" />
<glyph unicode="&#xa3;" horiz-adv-x="470" d="M17 244v121h81q1 61 5.5 100.5t16.5 76.5t33.5 57t57.5 32t87 12q33 0 71.5 -8t58.5 -19q-3 -73 -19 -100.5t-44 -27.5q-8 0 -30 4.5t-35 4.5q-34 0 -45 -9q-3 -20 -3 -69v-54h149v-121h-155q0 -69 -31 -100l233 4q6 -38 6 -63q0 -48 -20 -66.5t-68 -18.5h-314 q-20 38 -20 96q0 10 1 21q54 35 60 127h-76z" />
<glyph unicode="&#xa4;" horiz-adv-x="470" d="M-12 178l58 58q-26 47 -26 103t25 99l-57 59l88 83l54 -55q48 27 105 27q55 0 103 -28l55 56l89 -83l-60 -59q27 -45 27 -99q0 -51 -27 -102l61 -59l-90 -82l-55 55q-46 -27 -103 -27q-55 0 -104 27l-55 -55zM136 339q0 -41 29 -70.5t70 -29.5q40 0 69 29.5t29 70.5 q0 40 -29 69t-69 29q-41 0 -70 -29t-29 -69z" />
<glyph unicode="&#xa5;" horiz-adv-x="470" d="M28 154v123h96l-124 342q60 18 120 18q50 0 66 -19t23 -75l37 -197h1l61 283h163l-120 -352h91v-123h-117v-154h-171v154h-126z" />
<glyph unicode="&#xa6;" horiz-adv-x="336" d="M238 306h-138v364h138v-364zM238 -146h-138v365h138v-365z" />
<glyph unicode="&#xa7;" horiz-adv-x="412" d="M381 47q0 -85 -53.5 -134t-153.5 -49q-67 0 -127 20q-1 15 -1 29q0 43 12 65q16 29 42 29q19 0 44.5 -4.5t43.5 -4.5q22 0 40 4q6 10 6 21q0 19 -13.5 27t-66.5 25q-68 23 -102 61t-34 106q0 88 87 140q-72 45 -72 136q0 86 52.5 134.5t149.5 48.5q70 0 127 -21 q1 -16 1 -29q0 -44 -12 -65q-16 -29 -42 -29q-19 0 -44.5 5t-42.5 5q-20 0 -36 -4q-5 -8 -5 -21q0 -20 13.5 -28.5t66.5 -24.5q68 -23 101.5 -60.5t33.5 -105.5q0 -88 -88 -141q73 -44 73 -135zM249 287q-1 33 -48 55q-35 -26 -35 -65q0 -34 47 -54q36 27 36 64z" />
<glyph unicode="&#xa8;" horiz-adv-x="472" d="M66 623q0 71 88 71q58 0 58 -71t-90 -71q-56 0 -56 71zM259 623q0 71 91 71q55 0 55 -71t-91 -71q-55 0 -55 71z" />
<glyph unicode="&#xa9;" horiz-adv-x="623" d="M166 311q0 92 42 142.5t118 50.5q55 0 91 -24q-2 -87 -37 -87q-7 0 -22.5 5t-26.5 5q-9 0 -21 -4q-16 -32 -16 -85q0 -93 60 -93q24 0 52 13l11 -82q-44 -30 -97 -30q-70 0 -112 46.5t-42 142.5zM105 317q0 -120 55 -185t156 -65q81 0 141 43q61 77 61 203q0 114 -46 177 t-156 63q-34 0 -67.5 -6.5t-49.5 -12.5t-22 -10q-72 -70 -72 -207zM13 310q0 156 80 240.5t239 84.5q74 0 129 -25t87 -69.5t47 -97.5t15 -116q0 -158 -78.5 -248t-239.5 -90q-126 0 -202.5 88t-76.5 233z" />
<glyph unicode="&#xaa;" horiz-adv-x="316" d="M268 379q-18 -6 -44 -6q-41 0 -45 35q-18 -35 -66 -35q-33 0 -51.5 23.5t-18.5 62.5q0 47 24.5 68t77.5 29q12 2 27 3v7q0 26 -25 26q-12 0 -32 -4t-30 -4q-19 0 -26.5 14.5t-8.5 49.5q49 23 120 23q51 0 74.5 -23t23.5 -76v-193zM129 474q0 -25 19 -25q13 0 23 10v44 q-17 0 -37 -4q-5 -9 -5 -25z" />
<glyph unicode="&#xab;" horiz-adv-x="506" d="M403 77l-178 220l178 220q40 -8 66 -27t26 -47q0 -24 -35 -66q-34 -41 -74 -80q33 -31 74 -80q35 -42 35 -66q0 -28 -26 -47t-66 -27zM180 77l-178 220l178 220q39 -8 65 -27t26 -47q0 -25 -34 -66l-74 -80q26 -26 74 -80q34 -41 34 -66q0 -28 -26 -47t-65 -27z" />
<glyph unicode="&#xad;" horiz-adv-x="344" d="M31 210q-6 26 -6 58q0 79 65 79h224q6 -31 6 -54q0 -83 -70 -83h-219z" />
<glyph unicode="&#xae;" horiz-adv-x="424" d="M42 449q0 186 179 186q162 0 162 -175q0 -94 -41.5 -144.5t-138.5 -50.5q-77 0 -119 49.5t-42 134.5zM107 457q0 -134 108 -134q48 0 77 18q26 50 26 115q0 59 -22.5 91t-83.5 32q-37 0 -77 -12q-28 -45 -28 -110zM149 552h62q70 0 70 -58q0 -19 -8.5 -33t-17.5 -19 q1 -3 16 -38.5t16 -38.5q-12 -8 -32 -8q-16 0 -23 4.5t-10 16.5l-13 45h-6v-63h-54v192zM208 463h2q4 0 12 2q6 12 6 25q0 21 -20 21h-5v-48h5z" />
<glyph unicode="&#xaf;" horiz-adv-x="472" d="M91 566q-5 25 -5 48q0 31 12.5 41t41.5 10h242q3 -25 3 -42q0 -35 -13 -46t-43 -11h-238z" />
<glyph unicode="&#xb0;" horiz-adv-x="312" d="M21 501q0 58 36.5 96.5t99.5 38.5q62 0 98 -38.5t36 -96.5t-36 -97t-98 -39q-63 0 -99.5 39t-36.5 97zM113 500q0 -19 12 -31.5t32 -12.5t32 12.5t12 31.5t-12 32t-32 13t-32 -13t-12 -32z" />
<glyph unicode="&#xb1;" horiz-adv-x="450" d="M151 572q38 5 72 5q49 0 63 -15q12 -13 12 -52v-6l-2 -86l138 4q5 -38 5 -66q0 -48 -15 -61q-12 -11 -47 -11h-11l-71 1l4 -153q-27 -5 -72 -5q-49 0 -63 15q-11 12 -11 46v11l2 87l-138 -4q-5 37 -5 65q0 48 14 61q13 12 52 12h6l71 -2zM24 0q-6 33 -6 55 q0 35 15.5 47.5t49.5 12.5h349q6 -30 6 -52q0 -36 -16.5 -49.5t-50.5 -13.5h-347z" />
<glyph unicode="&#xb2;" horiz-adv-x="300" d="M246 582q0 -57 -61 -107q-14 -12 -17 -20q13 0 40 0.5t40 1.5q4 -19 4 -36q0 -25 -10.5 -35.5t-36.5 -10.5h-140q-11 27 -11 55q0 45 60 98q36 34 36 49t-15 15q-9 0 -27 -9.5t-28 -9.5q-27 0 -33 66q46 39 101 39q98 0 98 -96z" />
<glyph unicode="&#xb3;" horiz-adv-x="300" d="M138 453q7 0 13 3q3 12 3 16q0 16 -17 16q-19 0 -39 -5q-13 18 -13 43q0 21 7 37l14 -1h20q4 0 12 1l8 1q4 8 4 15q0 13 -17 13q-10 0 -25 -4.5t-21 -4.5q-29 0 -35 66q44 29 99 29q93 0 93 -83q0 -30 -25 -57q33 -21 33 -67q0 -47 -30.5 -73.5t-80.5 -26.5q-62 0 -94 36 q10 57 42 57q6 0 21.5 -5.5t27.5 -5.5z" />
<glyph unicode="&#xb4;" horiz-adv-x="472" d="M123 595l172 153q26 -14 41.5 -34.5t15.5 -40.5q0 -38 -59 -76q-46 -31 -110 -56z" />
<glyph unicode="&#xb6;" horiz-adv-x="615" d="M533 0h-116v668q21 7 57 7q39 0 49 -12.5t10 -58.5v-604zM250 670h106v-670h-115v257h-7q-97 0 -150.5 58.5t-53.5 147.5q0 98 59.5 152.5t160.5 54.5z" />
<glyph unicode="&#xb7;" horiz-adv-x="250" d="M26 331q0 39 28 65t84 26q48 0 68 -23t20 -72q0 -44 -29.5 -69t-84.5 -25q-86 0 -86 98z" />
<glyph unicode="&#xb8;" horiz-adv-x="472" d="M190 3l52 11q44 -8 66.5 -32.5t22.5 -51.5q0 -36 -30 -60t-83 -24q-39 0 -70 11q-7 20 -7 39q0 40 35 40q6 0 21 -2t22 -2q6 0 26 4q0 45 -55 67z" />
<glyph unicode="&#xb9;" horiz-adv-x="300" d="M211 674v-219l38 1q4 -20 4 -39q0 -24 -10.5 -33t-37.5 -9h-138q-4 20 -4 38q0 24 10.5 33.5t36.5 9.5h8v115q-20 -14 -35 -14q-33 0 -36 69l81 48h83z" />
<glyph unicode="&#xba;" horiz-adv-x="300" d="M127 525q0 -70 23 -70q11 0 16 4q6 30 6 66q0 69 -23 69q-9 0 -15 -3q-7 -23 -7 -66zM30 525q0 73 28.5 113t101.5 40q109 0 109 -146q0 -75 -28 -118t-104 -43q-54 0 -80.5 42t-26.5 112z" />
<glyph unicode="&#xbb;" horiz-adv-x="506" d="M106 516l178 -220l-178 -220q-40 8 -66 27t-26 47q0 24 35 66q35 40 74 80q-33 31 -74 80q-35 42 -35 66q0 28 26 47t66 27zM329 516l178 -220l-178 -220q-39 8 -65 27t-26 47q0 25 34 66l74 80q-26 26 -74 80q-34 41 -34 66q0 28 26 47t65 27z" />
<glyph unicode="&#xbc;" horiz-adv-x="1265" d="M955 629h232v-375h14q35 0 49.5 -12.5t14.5 -53.5q0 -32 -9 -88h-69v-100h-159v100h-143q-67 0 -67 94q0 63 39 189.5t98 245.5zM964 240l64 5v219h-11q-22 -72 -53 -224zM470 0l184 585h141l-183 -585h-142zM350 629v-485h87q6 -54 6 -68q0 -44 -19.5 -60t-69.5 -16 h-291q-6 40 -6 68q0 43 18.5 59.5t66.5 16.5h36v309l-40 -27q-11 -7 -27.5 -14t-28.5 -7q-57 0 -61 126l169 98h160z" />
<glyph unicode="&#xbd;" horiz-adv-x="1265" d="M1233 443q0 -70 -41.5 -131t-106.5 -106q-46 -38 -66 -65l221 5q6 -36 6 -62q0 -44 -19 -64t-66 -20h-303q-18 44 -18 105q0 54 32 101t93 105l45 45q16 16 30 39t14 43q0 45 -47 45q-19 0 -60.5 -20.5t-65.5 -20.5q-44 0 -55 123q88 74 206 74q201 0 201 -196zM470 0 l184 585h141l-183 -585h-142zM350 629v-485h87q6 -54 6 -68q0 -44 -19.5 -60t-69.5 -16h-291q-6 40 -6 68q0 43 18.5 59.5t66.5 16.5h36v309l-40 -27q-11 -7 -27.5 -14t-28.5 -7q-57 0 -61 126l169 98h160z" />
<glyph unicode="&#xbe;" horiz-adv-x="1265" d="M955 629h232v-375h14q35 0 49.5 -12.5t14.5 -53.5q0 -32 -9 -88h-69v-100h-159v100h-143q-67 0 -67 94q0 63 39 189.5t98 245.5zM964 240l64 5v219h-11q-22 -72 -53 -224zM470 0l184 585h141l-183 -585h-142zM201 138q23 0 43 10q12 26 12 50q0 30 -13 42.5t-43 12.5 q-43 0 -81 -10q-18 26 -18 75q0 43 9 66l10 -1q11 -1 26 -1.5t26 -0.5q42 0 59 7q15 22 15 50q0 47 -55 47q-26 0 -58.5 -10.5t-45.5 -10.5q-48 0 -58 120q35 23 90.5 39t109.5 16q191 0 191 -165q0 -40 -21.5 -77.5t-47.5 -55.5q41 -16 63.5 -53.5t22.5 -89.5 q0 -97 -63 -152.5t-166 -55.5q-127 0 -190 67q18 106 73 106q13 0 46 -12.5t64 -12.5z" />
<glyph unicode="&#xbf;" horiz-adv-x="406" d="M326 425q0 -86 -102 -86q-43 0 -60 21.5t-17 68.5q0 86 102 86q77 0 77 -90zM292 299q17 -34 17 -76q0 -47 -19 -83.5t-41.5 -54.5t-41.5 -38.5t-19 -40.5q0 -37 40 -37q24 0 59 18.5t47 18.5q50 0 61 -107q-27 -28 -75.5 -50.5t-111.5 -22.5q-90 1 -138 43t-48 116 q0 41 14.5 72.5t35 51.5t41 37.5t35 41t14.5 52.5q0 69 55 69q49 0 75 -10z" />
<glyph unicode="&#xc0;" horiz-adv-x="486" d="M295 87l-4 33h-103l-14 -120h-173l108 629h271l106 -623q-38 -14 -88 -14q-57 0 -77.5 19.5t-25.5 75.5zM200 842l181 -147l-58 -57q-63 20 -114 52q-63 39 -63 77q0 39 54 75zM230 474l-27 -222h73l-25 222h-21z" />
<glyph unicode="&#xc1;" horiz-adv-x="486" d="M295 87l-4 33h-103l-14 -120h-173l108 629h271l106 -623q-38 -14 -88 -14q-57 0 -77.5 19.5t-25.5 75.5zM230 474l-27 -222h73l-25 222h-21zM134 700l181 147q26 -15 40 -36t14 -39q0 -40 -63 -77q-48 -30 -114 -53z" />
<glyph unicode="&#xc2;" horiz-adv-x="486" d="M295 87l-4 33h-103l-14 -120h-173l108 629h271l106 -623q-38 -14 -88 -14q-57 0 -77.5 19.5t-25.5 75.5zM230 474l-27 -222h73l-25 222h-21zM66 734l169 92h10l169 -92q-7 -45 -27 -63.5t-40 -18.5t-48 23l-59 50q-39 -34 -60 -50q-26 -23 -47 -23q-20 0 -40 18.5 t-27 63.5z" />
<glyph unicode="&#xc3;" horiz-adv-x="486" d="M295 87l-4 33h-103l-14 -120h-173l108 629h271l106 -623q-38 -14 -88 -14q-57 0 -77.5 19.5t-25.5 75.5zM230 474l-27 -222h73l-25 222h-21zM127 640q-65 21 -65 65q0 30 30.5 57t71.5 27q15 0 37 -5t39 -10l41 -15l33 -12q29 16 45 53q60 -26 60 -71q0 -33 -29 -58.5 t-74 -25.5q-22 0 -60 11.5t-66 23.5l-27 11q-24 -13 -36 -51z" />
<glyph unicode="&#xc4;" horiz-adv-x="486" d="M295 87l-4 33h-103l-14 -120h-173l108 629h271l106 -623q-38 -14 -88 -14q-57 0 -77.5 19.5t-25.5 75.5zM230 474l-27 -222h73l-25 222h-21zM70 724q0 71 89 71q57 0 57 -72q0 -70 -90 -70q-56 0 -56 71zM263 724q0 71 91 71q30 0 42.5 -17.5t12.5 -54.5q0 -70 -91 -70 q-55 0 -55 71z" />
<glyph unicode="&#xc5;" horiz-adv-x="486" d="M295 87l-4 33h-103l-14 -120h-173l108 629h271l106 -623q-38 -14 -88 -14q-57 0 -77.5 19.5t-25.5 75.5zM137 748q0 40 27.5 70t80.5 30q48 0 72.5 -27t24.5 -75q0 -47 -29.5 -74t-79.5 -27q-43 0 -69.5 28t-26.5 75zM230 474l-27 -222h73l-25 222h-21zM219 748 q0 -37 22 -37q7 0 13 6q6 9 6 29q0 36 -20 36q-8 0 -14 -4q-7 -14 -7 -30z" />
<glyph unicode="&#xc6;" horiz-adv-x="640" d="M432 138l188 6q6 -48 6 -76q0 -45 -17.5 -56.5t-68.5 -11.5h-179q-69 0 -85 16t-16 81v23h-95l-23 -120h-174l165 629h484q4 -35 4 -64q0 -48 -19 -61q-17 -12 -64 -12h-7l-99 1v-101h164q6 -46 6 -75q0 -43 -18 -54q-15 -9 -56 -9h-16l-80 1v-117zM235 474l-44 -222h69 v222h-25z" />
<glyph unicode="&#xc7;" horiz-adv-x="427" d="M16 326q0 313 265 313q92 0 136 -28q0 -140 -55 -140q-11 0 -36.5 6t-55.5 6q-27 0 -51 -11q-23 -51 -23 -154q0 -93 25.5 -131.5t74.5 -38.5q54 0 96 26l26 -139q-46 -32 -104 -41q38 -25 38 -64q0 -36 -30 -60t-83 -24q-39 0 -70 11q-7 20 -7 39q0 40 35 40q6 0 21 -2 t22 -2q6 0 26 4q0 34 -31 55q-113 7 -166 87t-53 248z" />
<glyph unicode="&#xc8;" horiz-adv-x="420" d="M186 842l181 -147l-58 -57q-63 20 -114 52q-63 39 -63 77q0 39 54 75zM212 255v-117l186 6q6 -29 6 -69q0 -45 -19 -60t-69 -15h-174q-70 0 -85.5 14.5t-15.5 78.5v536h356q5 -31 5 -65q0 -45 -20 -59q-18 -13 -64 -13h-7l-99 1v-101h164q7 -34 7 -70q0 -43 -19 -56 q-17 -12 -58 -12h-13z" />
<glyph unicode="&#xc9;" horiz-adv-x="420" d="M212 255v-117l186 6q6 -29 6 -69q0 -45 -19 -60t-69 -15h-174q-70 0 -85.5 14.5t-15.5 78.5v536h356q5 -31 5 -65q0 -45 -20 -59q-18 -13 -64 -13h-7l-99 1v-101h164q7 -34 7 -70q0 -43 -19 -56q-17 -12 -58 -12h-13zM123 700l181 147q26 -15 40 -36t14 -39 q0 -40 -63 -77q-48 -30 -114 -53z" />
<glyph unicode="&#xca;" horiz-adv-x="420" d="M56 734l169 92h10l169 -92q-7 -45 -27 -63.5t-40 -18.5t-48 23l-59 50q-39 -34 -60 -50q-26 -23 -47 -23q-20 0 -40 18.5t-27 63.5zM212 255v-117l186 6q6 -29 6 -69q0 -45 -19 -60t-69 -15h-174q-70 0 -85.5 14.5t-15.5 78.5v536h356q5 -31 5 -65q0 -45 -20 -59 q-18 -13 -64 -13h-7l-99 1v-101h164q7 -34 7 -70q0 -43 -19 -56q-17 -12 -58 -12h-13z" />
<glyph unicode="&#xcb;" horiz-adv-x="420" d="M212 255v-117l186 6q6 -29 6 -69q0 -45 -19 -60t-69 -15h-174q-70 0 -85.5 14.5t-15.5 78.5v536h356q5 -31 5 -65q0 -45 -20 -59q-18 -13 -64 -13h-7l-99 1v-101h164q7 -34 7 -70q0 -43 -19 -56q-17 -12 -58 -12h-13zM58 724q0 71 89 71q57 0 57 -72q0 -70 -90 -70 q-56 0 -56 71zM251 724q0 71 91 71q30 0 42.5 -17.5t12.5 -54.5q0 -70 -91 -70q-55 0 -55 71z" />
<glyph unicode="&#xcc;" horiz-adv-x="359" d="M94 489l-78 -2q-5 33 -5 71q0 44 16 57.5t66 13.5h251q3 -45 3 -70q0 -36 -9.5 -52.5t-36.5 -18.5q-5 0 -15 0.5t-20 0.5v-349l77 2q4 -37 4 -70q0 -46 -14.5 -59t-66.5 -13h-248q-7 36 -7 71q0 36 13.5 51.5t45.5 18.5q8 1 24 1v347zM140 842l181 -147l-58 -57 q-63 20 -114 52q-63 39 -63 77q0 39 54 75z" />
<glyph unicode="&#xcd;" horiz-adv-x="359" d="M94 489l-78 -2q-5 33 -5 71q0 44 16 57.5t66 13.5h251q3 -45 3 -70q0 -36 -9.5 -52.5t-36.5 -18.5q-5 0 -15 0.5t-20 0.5v-349l77 2q4 -37 4 -70q0 -46 -14.5 -59t-66.5 -13h-248q-7 36 -7 71q0 36 13.5 51.5t45.5 18.5q8 1 24 1v347zM74 700l181 147q26 -15 40 -36 t14 -39q0 -40 -63 -77q-48 -30 -114 -53z" />
<glyph unicode="&#xce;" horiz-adv-x="359" d="M94 489l-78 -2q-5 33 -5 71q0 44 16 57.5t66 13.5h251q3 -45 3 -70q0 -36 -9.5 -52.5t-36.5 -18.5q-5 0 -15 0.5t-20 0.5v-349l77 2q4 -37 4 -70q0 -46 -14.5 -59t-66.5 -13h-248q-7 36 -7 71q0 36 13.5 51.5t45.5 18.5q8 1 24 1v347zM5 734l169 92h10l169 -92 q-7 -45 -27 -63.5t-40 -18.5t-48 23l-59 50q-39 -34 -60 -50q-26 -23 -47 -23q-20 0 -40 18.5t-27 63.5z" />
<glyph unicode="&#xcf;" horiz-adv-x="359" d="M94 489l-78 -2q-5 33 -5 71q0 44 16 57.5t66 13.5h251q3 -45 3 -70q0 -36 -9.5 -52.5t-36.5 -18.5q-5 0 -15 0.5t-20 0.5v-349l77 2q4 -37 4 -70q0 -46 -14.5 -59t-66.5 -13h-248q-7 36 -7 71q0 36 13.5 51.5t45.5 18.5q8 1 24 1v347zM9 724q0 71 89 71q57 0 57 -72 q0 -70 -90 -70q-56 0 -56 71zM202 724q0 71 91 71q30 0 42.5 -17.5t12.5 -54.5q0 -70 -91 -70q-55 0 -55 71z" />
<glyph unicode="&#xd0;" horiz-adv-x="539" d="M51 12v237h-50v137h50v243h222q127 0 178 -74.5t51 -229.5q0 -69 -14 -126t-44.5 -105.5t-87 -76t-135.5 -27.5q-94 0 -170 22zM220 497v-111h66q7 -28 7 -59q0 -37 -14.5 -57.5t-52.5 -20.5h-6v-114q12 -5 35 -5q29 0 48 14q26 69 26 178q0 101 -17 138t-62 37h-30z" />
<glyph unicode="&#xd1;" horiz-adv-x="541" d="M160 640q-65 21 -65 65q0 30 30.5 57t71.5 27q15 0 37 -5t38 -10l42 -15l33 -12q29 16 45 53q60 -26 60 -71q0 -33 -29 -58.5t-74 -25.5q-22 0 -60 11.5t-65 23.5l-28 11q-24 -13 -36 -51zM41 0v629h217l86 -397h11l-1 397h147v-620q-66 -19 -136 -19q-56 0 -78 23.5 t-32 87.5l-63 290h-11v-391h-140z" />
<glyph unicode="&#xd2;" horiz-adv-x="528" d="M224 842l181 -147l-58 -57q-63 20 -114 52q-63 39 -63 77q0 39 54 75zM196 316q0 -91 16 -132.5t54 -41.5q31 0 49 16q17 46 17 158q0 92 -15.5 132.5t-53.5 40.5q-29 0 -47 -14q-20 -63 -20 -159zM16 317q0 74 12.5 129.5t42 100.5t84 68.5t133.5 23.5q224 0 224 -307 q0 -60 -6.5 -107t-24.5 -92.5t-48 -75.5t-79.5 -48.5t-115.5 -18.5q-113 0 -167.5 88t-54.5 239z" />
<glyph unicode="&#xd3;" horiz-adv-x="528" d="M158 700l181 147q26 -15 40 -36t14 -39q0 -40 -63 -77q-48 -30 -114 -53zM196 316q0 -91 16 -132.5t54 -41.5q31 0 49 16q17 46 17 158q0 92 -15.5 132.5t-53.5 40.5q-29 0 -47 -14q-20 -63 -20 -159zM16 317q0 74 12.5 129.5t42 100.5t84 68.5t133.5 23.5 q224 0 224 -307q0 -60 -6.5 -107t-24.5 -92.5t-48 -75.5t-79.5 -48.5t-115.5 -18.5q-113 0 -167.5 88t-54.5 239z" />
<glyph unicode="&#xd4;" horiz-adv-x="528" d="M90 734l169 92h10l169 -92q-7 -45 -27 -63.5t-40 -18.5t-48 23l-59 50q-39 -34 -60 -50q-26 -23 -47 -23q-20 0 -40 18.5t-27 63.5zM196 316q0 -91 16 -132.5t54 -41.5q31 0 49 16q17 46 17 158q0 92 -15.5 132.5t-53.5 40.5q-29 0 -47 -14q-20 -63 -20 -159zM16 317 q0 74 12.5 129.5t42 100.5t84 68.5t133.5 23.5q224 0 224 -307q0 -60 -6.5 -107t-24.5 -92.5t-48 -75.5t-79.5 -48.5t-115.5 -18.5q-113 0 -167.5 88t-54.5 239z" />
<glyph unicode="&#xd5;" horiz-adv-x="528" d="M196 316q0 -91 16 -132.5t54 -41.5q31 0 49 16q17 46 17 158q0 92 -15.5 132.5t-53.5 40.5q-29 0 -47 -14q-20 -63 -20 -159zM16 317q0 74 12.5 129.5t42 100.5t84 68.5t133.5 23.5q224 0 224 -307q0 -60 -6.5 -107t-24.5 -92.5t-48 -75.5t-79.5 -48.5t-115.5 -18.5 q-113 0 -167.5 88t-54.5 239zM151 640q-65 21 -65 65q0 30 30.5 57t71.5 27q15 0 37 -5t39 -10l41 -15l33 -12q29 16 45 53q60 -26 60 -71q0 -33 -29 -58.5t-74 -25.5q-22 0 -60 11.5t-66 23.5l-27 11q-24 -13 -36 -51z" />
<glyph unicode="&#xd6;" horiz-adv-x="528" d="M196 316q0 -91 16 -132.5t54 -41.5q31 0 49 16q17 46 17 158q0 92 -15.5 132.5t-53.5 40.5q-29 0 -47 -14q-20 -63 -20 -159zM16 317q0 74 12.5 129.5t42 100.5t84 68.5t133.5 23.5q224 0 224 -307q0 -60 -6.5 -107t-24.5 -92.5t-48 -75.5t-79.5 -48.5t-115.5 -18.5 q-113 0 -167.5 88t-54.5 239zM93 724q0 71 89 71q57 0 57 -72q0 -70 -90 -70q-56 0 -56 71zM286 724q0 71 91 71q30 0 42.5 -17.5t12.5 -54.5q0 -70 -91 -70q-55 0 -55 71z" />
<glyph unicode="&#xd7;" horiz-adv-x="444" d="M289 292l133 -130q-9 -17 -33 -41q-20 -20 -40 -20t-40 22l-89 103l-129 -132q-19 11 -41 33q-20 21 -20 40q0 21 22 39l101 90l-131 129q9 17 33 41q21 20 40 20q21 0 39 -22l90 -102l129 131q17 -9 41 -33q20 -20 20 -40t-22 -39z" />
<glyph unicode="&#xd8;" horiz-adv-x="528" d="M16 317q0 74 12.5 129.5t42 100.5t84 68.5t133.5 23.5q20 0 40 -3l25 79h76l-32 -101q115 -62 115 -282q0 -60 -6.5 -107t-24.5 -92.5t-48 -75.5t-79.5 -48.5t-115.5 -18.5q-19 0 -37 3l-25 -81h-74l32 104q-118 68 -118 301zM196 316q0 -58 5 -88l80 258q-7 3 -18 3 q-31 0 -47 -14q-20 -63 -20 -159zM332 316q0 49 -4 80l-79 -252q5 -2 17 -2q31 0 49 16q17 46 17 158z" />
<glyph unicode="&#xd9;" horiz-adv-x="507" d="M212 842l181 -147l-58 -57q-63 20 -114 52q-63 39 -63 77q0 39 54 75zM35 196v426q41 11 94 11q50 0 64.5 -18t14.5 -85v-332q0 -32 10.5 -44t34.5 -12q25 0 46 12v475h170v-579q-103 -60 -232 -60q-112 0 -157 47t-45 159z" />
<glyph unicode="&#xda;" horiz-adv-x="507" d="M35 196v426q41 11 94 11q50 0 64.5 -18t14.5 -85v-332q0 -32 10.5 -44t34.5 -12q25 0 46 12v475h170v-579q-103 -60 -232 -60q-112 0 -157 47t-45 159zM147 700l181 147q26 -15 40 -36t14 -39q0 -40 -63 -77q-48 -30 -114 -53z" />
<glyph unicode="&#xdb;" horiz-adv-x="507" d="M78 734l169 92h10l169 -92q-7 -45 -27 -63.5t-40 -18.5t-48 23l-59 50q-39 -34 -60 -50q-26 -23 -47 -23q-20 0 -40 18.5t-27 63.5zM35 196v426q41 11 94 11q50 0 64.5 -18t14.5 -85v-332q0 -32 10.5 -44t34.5 -12q25 0 46 12v475h170v-579q-103 -60 -232 -60 q-112 0 -157 47t-45 159z" />
<glyph unicode="&#xdc;" horiz-adv-x="507" d="M35 196v426q41 11 94 11q50 0 64.5 -18t14.5 -85v-332q0 -32 10.5 -44t34.5 -12q25 0 46 12v475h170v-579q-103 -60 -232 -60q-112 0 -157 47t-45 159zM82 724q0 71 89 71q57 0 57 -72q0 -70 -90 -70q-56 0 -56 71zM275 724q0 71 91 71q30 0 42.5 -17.5t12.5 -54.5 q0 -70 -91 -70q-55 0 -55 71z" />
<glyph unicode="&#xdd;" horiz-adv-x="472" d="M154 195l-154 424q60 18 120 18q50 0 66 -19t23 -75l37 -197h1l61 283h163l-146 -428v-201h-171v195zM138 700l181 147q26 -15 40 -36t14 -39q0 -40 -63 -77q-48 -30 -114 -53z" />
<glyph unicode="&#xde;" horiz-adv-x="478" d="M41 620q36 13 93 13q48 0 61 -14t15 -62v-15h52q110 0 157.5 -52t47.5 -168q0 -107 -59 -172.5t-168 -65.5q-14 0 -30 2v-86h-169v620zM240 224q29 0 43 12q13 36 13 91q0 43 -10.5 64.5t-42.5 21.5q-15 0 -33 -2v-184q12 -3 30 -3z" />
<glyph unicode="&#xdf;" horiz-adv-x="497" d="M36 485q0 99 55.5 154t160.5 55q100 0 142.5 -47t42.5 -117q0 -17 -4.5 -34t-10 -29t-16 -26.5t-16.5 -20.5l-18 -19l-13 -14q-4 -6 -4 -16q0 -11 7 -17.5t28 -18.5q59 -34 79 -71.5t20 -93.5q0 -78 -50 -127.5t-135 -49.5q-54 0 -87 20v33q0 10 1.5 28.5t5 26.5 t9.5 17.5t16 13t24 2.5q3 0 15.5 -2.5t19.5 -2.5l27 5q8 8 8 24q0 14 -11 24t-44 27q-66 30 -66 122q0 24 4 51q1 1 12.5 23t17.5 35t12.5 35.5t6.5 41.5q0 21 -11.5 33t-31.5 12q-10 0 -37 -9v-553h-159v485z" />
<glyph unicode="&#xe0;" horiz-adv-x="436" d="M158 167q0 -48 34 -48q26 0 46 19v83q-57 -4 -71 -9q-9 -21 -9 -45zM403 1q-31 -11 -75 -11q-36 0 -54 13t-22 48q-38 -61 -119 -61q-56 0 -88.5 41t-32.5 110q0 91 53.5 127t172.5 46q0 36 -8 49.5t-38 13.5q-18 0 -55.5 -7.5t-53.5 -7.5q-32 0 -45 26t-14 85 q90 40 208 40q89 0 130 -39t41 -134v-339zM178 744l172 -153l-60 -54q-61 24 -109 56q-59 37 -59 76q0 22 17 42.5t39 32.5z" />
<glyph unicode="&#xe1;" horiz-adv-x="436" d="M158 167q0 -48 34 -48q26 0 46 19v83q-57 -4 -71 -9q-9 -21 -9 -45zM403 1q-31 -11 -75 -11q-36 0 -54 13t-22 48q-38 -61 -119 -61q-56 0 -88.5 41t-32.5 110q0 91 53.5 127t172.5 46q0 36 -8 49.5t-38 13.5q-18 0 -55.5 -7.5t-53.5 -7.5q-32 0 -45 26t-14 85 q90 40 208 40q89 0 130 -39t41 -134v-339zM125 591l172 153q26 -14 41.5 -34.5t15.5 -40.5q0 -38 -59 -76q-46 -31 -110 -56z" />
<glyph unicode="&#xe2;" horiz-adv-x="436" d="M158 167q0 -48 34 -48q26 0 46 19v83q-57 -4 -71 -9q-9 -21 -9 -45zM403 1q-31 -11 -75 -11q-36 0 -54 13t-22 48q-38 -61 -119 -61q-56 0 -88.5 41t-32.5 110q0 91 53.5 127t172.5 46q0 36 -8 49.5t-38 13.5q-18 0 -55.5 -7.5t-53.5 -7.5q-32 0 -45 26t-14 85 q90 40 208 40q89 0 130 -39t41 -134v-339zM41 616l169 92h10l169 -92q-7 -45 -27 -63.5t-40 -18.5t-48 23l-59 50l-60 -51q-27 -22 -47 -22t-40 18.5t-27 63.5z" />
<glyph unicode="&#xe3;" horiz-adv-x="436" d="M158 167q0 -48 34 -48q26 0 46 19v83q-57 -4 -71 -9q-9 -21 -9 -45zM403 1q-31 -11 -75 -11q-36 0 -54 13t-22 48q-38 -61 -119 -61q-56 0 -88.5 41t-32.5 110q0 91 53.5 127t172.5 46q0 36 -8 49.5t-38 13.5q-18 0 -55.5 -7.5t-53.5 -7.5q-32 0 -45 26t-14 85 q90 40 208 40q89 0 130 -39t41 -134v-339zM104 528q-65 23 -65 66q0 30 30.5 57t71.5 27q19 0 43.5 -6.5t60 -20t41.5 -15.5q29 16 45 53q60 -26 60 -71q0 -33 -29.5 -58.5t-74.5 -25.5q-21 0 -58 11.5t-63 22.5l-26 12q-27 -15 -36 -52z" />
<glyph unicode="&#xe4;" horiz-adv-x="436" d="M158 167q0 -48 34 -48q26 0 46 19v83q-57 -4 -71 -9q-9 -21 -9 -45zM403 1q-31 -11 -75 -11q-36 0 -54 13t-22 48q-38 -61 -119 -61q-56 0 -88.5 41t-32.5 110q0 91 53.5 127t172.5 46q0 36 -8 49.5t-38 13.5q-18 0 -55.5 -7.5t-53.5 -7.5q-32 0 -45 26t-14 85 q90 40 208 40q89 0 130 -39t41 -134v-339zM44 619q0 71 88 71q58 0 58 -71t-90 -71q-56 0 -56 71zM237 619q0 71 91 71q55 0 55 -71t-91 -71q-55 0 -55 71z" />
<glyph unicode="&#xe5;" horiz-adv-x="436" d="M158 167q0 -48 34 -48q26 0 46 19v83q-57 -4 -71 -9q-9 -21 -9 -45zM403 1q-31 -11 -75 -11q-36 0 -54 13t-22 48q-38 -61 -119 -61q-56 0 -88.5 41t-32.5 110q0 91 53.5 127t172.5 46q0 36 -8 49.5t-38 13.5q-18 0 -55.5 -7.5t-53.5 -7.5q-32 0 -45 26t-14 85 q90 40 208 40q89 0 130 -39t41 -134v-339zM111 632q0 40 27.5 70.5t80.5 30.5q48 0 72.5 -27.5t24.5 -75.5q0 -47 -29 -74t-80 -27q-43 0 -69.5 28.5t-26.5 74.5zM206 605q3 -8 12 -8h4q7 9 10 27v6q0 23 -7 27q-7 8 -16 8h-2q-9 -9 -11 -26v-8q0 -23 10 -26z" />
<glyph unicode="&#xe6;" horiz-adv-x="647" d="M145 -10q-61 0 -97 41t-36 110q0 81 42.5 117.5t134.5 50.5q7 0 23.5 2t25.5 3q0 19 -0.5 26.5t-4.5 18.5t-14 15t-27 4q-20 0 -56.5 -8t-52.5 -8q-32 0 -45 26t-14 85q88 40 193 40q89 0 126 -42q45 42 120 42q89 0 127 -63t38 -180q0 -43 -4 -79h-221q3 -70 69 -70 q29 0 62.5 8t39.5 8q40 0 41 -92v-18q-61 -37 -164 -37q-56 0 -97.5 20.5t-59.5 54.5q-18 -29 -57.5 -52t-91.5 -23zM158 167q0 -48 34 -48q26 0 46 19v83q-57 -4 -71 -9q-9 -27 -9 -45zM480 294v9q0 82 -37 82q-4 0 -28 -8q-13 -33 -13 -90z" />
<glyph unicode="&#xe7;" horiz-adv-x="360" d="M18 248q0 132 56 198.5t158 66.5q79 0 123 -33q0 -120 -49 -120q-8 0 -30.5 7.5t-38.5 7.5q-12 0 -27 -5q-20 -40 -20 -117q0 -128 77 -128q37 0 73 18l15 -112q-40 -28 -81 -36q40 -25 40 -65q0 -36 -30 -60t-83 -24q-39 0 -70 11q-7 20 -7 39q0 40 35 40q6 0 21 -2 t22 -2q6 0 26 4q0 35 -32 56q-178 15 -178 256z" />
<glyph unicode="&#xe8;" horiz-adv-x="436" d="M268 294v15q0 76 -37 76q-4 0 -28 -8q-13 -33 -13 -90zM18 251q0 118 55 190t160 72q99 0 141 -60t42 -178q0 -44 -4 -84h-221q5 -70 69 -70q30 0 63 8t39 8q23 0 32 -25q9 -22 9 -74v-11q-65 -37 -174 -37q-211 0 -211 261zM194 744l172 -153l-60 -54q-61 24 -109 56 q-59 37 -59 76q0 22 17 42.5t39 32.5z" />
<glyph unicode="&#xe9;" horiz-adv-x="436" d="M123 591l172 153q26 -14 41.5 -34.5t15.5 -40.5q0 -38 -59 -76q-46 -31 -110 -56zM268 294v15q0 76 -37 76q-4 0 -28 -8q-13 -33 -13 -90zM18 251q0 118 55 190t160 72q99 0 141 -60t42 -178q0 -44 -4 -84h-221q5 -70 69 -70q30 0 63 8t39 8q23 0 32 -25q9 -22 9 -74v-11 q-65 -37 -174 -37q-211 0 -211 261z" />
<glyph unicode="&#xea;" horiz-adv-x="436" d="M56 616l169 92h10l169 -92q-7 -45 -27 -63.5t-40 -18.5t-48 23l-59 50l-60 -51q-27 -22 -47 -22t-40 18.5t-27 63.5zM268 294v15q0 76 -37 76q-4 0 -28 -8q-13 -33 -13 -90zM18 251q0 118 55 190t160 72q99 0 141 -60t42 -178q0 -44 -4 -84h-221q5 -70 69 -70q30 0 63 8 t39 8q23 0 32 -25q9 -22 9 -74v-11q-65 -37 -174 -37q-211 0 -211 261z" />
<glyph unicode="&#xeb;" horiz-adv-x="436" d="M60 619q0 71 88 71q58 0 58 -71t-90 -71q-56 0 -56 71zM253 619q0 71 91 71q55 0 55 -71t-91 -71q-55 0 -55 71zM268 294v15q0 76 -37 76q-4 0 -28 -8q-13 -33 -13 -90zM18 251q0 118 55 190t160 72q99 0 141 -60t42 -178q0 -44 -4 -84h-221q5 -70 69 -70q30 0 63 8t39 8 q23 0 32 -25q9 -22 9 -74v-11q-65 -37 -174 -37q-211 0 -211 261z" />
<glyph unicode="&#xec;" horiz-adv-x="243" d="M204 0h-166v489q32 15 86 15q50 0 65 -17t15 -70v-417zM87 744l172 -153l-60 -54q-61 24 -109 56q-59 37 -59 76q0 22 17 42.5t39 32.5z" />
<glyph unicode="&#xed;" horiz-adv-x="243" d="M17 591l172 153q26 -14 41.5 -34.5t15.5 -40.5q0 -38 -59 -76q-46 -31 -110 -56zM204 0h-166v489q32 15 86 15q50 0 65 -17t15 -70v-417z" />
<glyph unicode="&#xee;" horiz-adv-x="243" d="M-49 616l165 92h10l165 -92q-7 -45 -27 -63.5t-39 -18.5t-47 23l-57 50q-38 -34 -59 -51q-27 -22 -46 -22t-39 18.5t-26 63.5zM204 0h-166v489q32 15 86 15q50 0 65 -17t15 -70v-417z" />
<glyph unicode="&#xef;" horiz-adv-x="243" d="M-48 619q0 71 88 71q58 0 58 -71t-90 -71q-56 0 -56 71zM145 619q0 71 91 71q55 0 55 -71t-91 -71q-55 0 -55 71zM204 0h-166v489q32 15 86 15q50 0 65 -17t15 -70v-417z" />
<glyph unicode="&#xf0;" horiz-adv-x="458" d="M402 685v-86l-35 -13q73 -122 73 -308q0 -147 -55.5 -217.5t-174.5 -70.5q-92 0 -142 68.5t-50 191.5q0 105 40.5 172.5t127.5 67.5q62 0 92 -37q-13 49 -43 86l-138 -50v83l67 24q-10 6 -42 18q-36 12 -36 48q0 44 46 87q109 -19 184 -96zM181 240q0 -69 10.5 -95.5 t38.5 -26.5q20 0 34 9q14 51 14 113q0 72 -10 96t-39 24q-20 0 -34 -8q-14 -42 -14 -112z" />
<glyph unicode="&#xf1;" horiz-adv-x="481" d="M37 0v495q42 18 85 18q32 0 50 -11.5t27 -42.5q52 54 127 54q122 0 122 -137v-376h-165v333q0 40 -33 40q-31 0 -46 -17v-356h-167zM134 528q-65 23 -65 66q0 30 30.5 57t71.5 27q19 0 43.5 -6.5t60 -20t41.5 -15.5q29 16 45 53q60 -26 60 -71q0 -33 -29.5 -58.5 t-74.5 -25.5q-21 0 -58 11.5t-63 22.5l-26 12q-27 -15 -36 -52z" />
<glyph unicode="&#xf2;" horiz-adv-x="458" d="M181 251q0 -77 10.5 -105t38.5 -28q20 0 34 9q14 51 14 124q0 78 -10 105t-38 27q-20 0 -35 -8q-14 -42 -14 -124zM243 513q104 0 150.5 -67t46.5 -198q0 -258 -230 -258q-92 0 -142 71t-50 197q0 40 4.5 73t19 68t38.5 59t65.5 39.5t97.5 15.5zM194 744l172 -153 l-60 -54q-61 24 -109 56q-59 37 -59 76q0 22 17 42.5t39 32.5z" />
<glyph unicode="&#xf3;" horiz-adv-x="458" d="M122 591l172 153q26 -14 41.5 -34.5t15.5 -40.5q0 -38 -59 -76q-46 -31 -110 -56zM181 251q0 -77 10.5 -105t38.5 -28q20 0 34 9q14 51 14 124q0 78 -10 105t-38 27q-20 0 -35 -8q-14 -42 -14 -124zM243 513q104 0 150.5 -67t46.5 -198q0 -258 -230 -258q-92 0 -142 71 t-50 197q0 40 4.5 73t19 68t38.5 59t65.5 39.5t97.5 15.5z" />
<glyph unicode="&#xf4;" horiz-adv-x="458" d="M56 616l169 92h10l169 -92q-7 -45 -27 -63.5t-40 -18.5t-48 23l-59 50l-60 -51q-27 -22 -47 -22t-40 18.5t-27 63.5zM181 251q0 -77 10.5 -105t38.5 -28q20 0 34 9q14 51 14 124q0 78 -10 105t-38 27q-20 0 -35 -8q-14 -42 -14 -124zM243 513q104 0 150.5 -67t46.5 -198 q0 -258 -230 -258q-92 0 -142 71t-50 197q0 40 4.5 73t19 68t38.5 59t65.5 39.5t97.5 15.5z" />
<glyph unicode="&#xf5;" horiz-adv-x="458" d="M181 251q0 -77 10.5 -105t38.5 -28q20 0 34 9q14 51 14 124q0 78 -10 105t-38 27q-20 0 -35 -8q-14 -42 -14 -124zM243 513q104 0 150.5 -67t46.5 -198q0 -258 -230 -258q-92 0 -142 71t-50 197q0 40 4.5 73t19 68t38.5 59t65.5 39.5t97.5 15.5zM120 528q-65 23 -65 66 q0 30 30.5 57t71.5 27q19 0 43.5 -6.5t60 -20t41.5 -15.5q29 16 45 53q60 -26 60 -71q0 -33 -29.5 -58.5t-74.5 -25.5q-21 0 -58 11.5t-63 22.5l-26 12q-27 -15 -36 -52z" />
<glyph unicode="&#xf6;" horiz-adv-x="458" d="M60 619q0 71 88 71q58 0 58 -71t-90 -71q-56 0 -56 71zM253 619q0 71 91 71q55 0 55 -71t-91 -71q-55 0 -55 71zM181 251q0 -77 10.5 -105t38.5 -28q20 0 34 9q14 51 14 124q0 78 -10 105t-38 27q-20 0 -35 -8q-14 -42 -14 -124zM243 513q104 0 150.5 -67t46.5 -198 q0 -258 -230 -258q-92 0 -142 71t-50 197q0 40 4.5 73t19 68t38.5 59t65.5 39.5t97.5 15.5z" />
<glyph unicode="&#xf7;" d="M137 481q0 35 25.5 58.5t77.5 23.5q43 0 61.5 -21t18.5 -66q0 -40 -26.5 -62.5t-77.5 -22.5q-79 0 -79 90zM18 223q-6 37 -6 60q0 38 15.5 51.5t48.5 13.5h365q5 -37 5 -56q0 -40 -16 -54.5t-51 -14.5h-361zM136 96q0 -90 79 -90q51 0 78 22.5t27 62.5q0 45 -19 66 t-62 21q-52 0 -77.5 -23.5t-25.5 -58.5z" />
<glyph unicode="&#xf8;" horiz-adv-x="458" d="M243 513q18 0 36 -3l24 65h95l-36 -97q78 -60 78 -230q0 -258 -230 -258q-10 0 -28 2l-27 -73h-94l39 107q-82 65 -82 232q0 40 4.5 73t19 68t38.5 59t65.5 39.5t97.5 15.5zM181 251v-7l51 139h-2q-20 0 -35 -8q-14 -42 -14 -124zM264 127q14 51 14 123l-49 -132h1 q20 0 34 9z" />
<glyph unicode="&#xf9;" horiz-adv-x="480" d="M444 504v-492q-42 -22 -90 -22q-32 0 -47.5 12t-22.5 43q-17 -20 -52 -37.5t-74 -17.5q-61 0 -93 37.5t-32 110.5v363q44 7 77 7q50 0 69.5 -14.5t19.5 -62.5v-254q0 -24 7 -33.5t24 -9.5q29 0 50 21v349h164zM205 744l172 -153l-60 -54q-61 24 -109 56q-59 37 -59 76 q0 22 17 42.5t39 32.5z" />
<glyph unicode="&#xfa;" horiz-adv-x="480" d="M133 591l172 153q26 -14 41.5 -34.5t15.5 -40.5q0 -38 -59 -76q-46 -31 -110 -56zM444 504v-492q-42 -22 -90 -22q-32 0 -47.5 12t-22.5 43q-17 -20 -52 -37.5t-74 -17.5q-61 0 -93 37.5t-32 110.5v363q44 7 77 7q50 0 69.5 -14.5t19.5 -62.5v-254q0 -24 7 -33.5t24 -9.5 q29 0 50 21v349h164z" />
<glyph unicode="&#xfb;" horiz-adv-x="480" d="M66 616l169 92h10l169 -92q-7 -45 -27 -63.5t-40 -18.5t-48 23l-59 50l-60 -51q-27 -22 -47 -22t-40 18.5t-27 63.5zM444 504v-492q-42 -22 -90 -22q-32 0 -47.5 12t-22.5 43q-17 -20 -52 -37.5t-74 -17.5q-61 0 -93 37.5t-32 110.5v363q44 7 77 7q50 0 69.5 -14.5 t19.5 -62.5v-254q0 -24 7 -33.5t24 -9.5q29 0 50 21v349h164z" />
<glyph unicode="&#xfc;" horiz-adv-x="480" d="M71 619q0 71 88 71q58 0 58 -71t-90 -71q-56 0 -56 71zM264 619q0 71 91 71q55 0 55 -71t-91 -71q-55 0 -55 71zM444 504v-492q-42 -22 -90 -22q-32 0 -47.5 12t-22.5 43q-17 -20 -52 -37.5t-74 -17.5q-61 0 -93 37.5t-32 110.5v363q44 7 77 7q50 0 69.5 -14.5 t19.5 -62.5v-254q0 -24 7 -33.5t24 -9.5q29 0 50 21v349h164z" />
<glyph unicode="&#xfd;" horiz-adv-x="423" d="M111 0l-106 497q44 11 96 11q46 0 62.5 -15t21.5 -66l34 -316l41 393h162l-102 -511q-30 -156 -203 -156q-68 0 -109 19l10 111q48 -12 92 -12q48 0 75 8l8 37h-82zM113 591l172 153q26 -14 41.5 -34.5t15.5 -40.5q0 -38 -59 -76q-46 -31 -110 -56z" />
<glyph unicode="&#xfe;" horiz-adv-x="484" d="M37 658l5 2q4 1 12.5 2.5t18.5 3.5t22.5 3.5t23.5 1.5q49 0 65.5 -15t16.5 -61v-131q49 49 115 49q74 0 112 -60.5t38 -199.5q0 -124 -47.5 -193.5t-123.5 -69.5q-59 0 -94 37v-175h-164v806zM293 243q0 81 -10 108.5t-37 27.5q-24 0 -44 -13v-232q17 -17 42 -17 q22 0 31 7q18 36 18 119z" />
<glyph unicode="&#xff;" horiz-adv-x="423" d="M111 0l-106 497q44 11 96 11q46 0 62.5 -15t21.5 -66l34 -316l41 393h162l-102 -511q-30 -156 -203 -156q-68 0 -109 19l10 111q48 -12 92 -12q48 0 75 8l8 37h-82zM243 619q0 71 91 71q55 0 55 -71t-91 -71q-55 0 -55 71zM50 619q0 71 88 71q58 0 58 -71t-90 -71 q-56 0 -56 71z" />
<glyph unicode="&#x152;" horiz-adv-x="697" d="M495 255q-5 -103 -16 -117l199 6q6 -50 6 -78q-1 -44 -18 -55t-70 -11h-177q-53 0 -66 11q-50 -21 -115 -21q-112 0 -167 88.5t-55 238.5q0 74 12.5 129.5t42 100.5t84 68.5t133.5 23.5q41 0 81 -15v5h306q4 -54 4 -66q0 -47 -18 -59q-17 -12 -64 -12h-8l-109 1 q11 -15 15 -101h159q6 -48 6 -76q0 -43 -18 -54q-15 -8 -56 -8h-16zM332 316q0 92 -15.5 132.5t-53.5 40.5q-29 0 -47 -14q-20 -63 -20 -159q0 -91 16 -132.5t54 -41.5q29 0 49 16q17 46 17 158z" />
<glyph unicode="&#x153;" horiz-adv-x="690" d="M244 513q73 0 121 -40q48 40 121 40q60 0 99 -22.5t57.5 -64.5t23.5 -102q3 -24 3 -50q0 -39 -5 -83h-220q3 -70 68 -70q34 0 84 13q9 2 16 2q21 0 31 -16q12 -21 12 -83v-10q-65 -37 -173 -37q-79 0 -128 41q-55 -41 -143 -41q-92 0 -142.5 71t-50.5 197q0 255 226 255z M235 118q20 0 32 9q12 97 12 124q0 77 -11.5 104.5t-40.5 27.5q-21 0 -34 -8q-12 -16 -12 -124q0 -76 12.5 -104.5t41.5 -28.5zM520 294v9q0 82 -37 82q-4 0 -28 -8q-13 -33 -13 -90z" />
<glyph unicode="&#x178;" horiz-adv-x="472" d="M154 195l-154 424q60 18 120 18q50 0 66 -19t23 -75l37 -197h1l61 283h163l-146 -428v-201h-171v195zM73 724q0 71 89 71q57 0 57 -72q0 -70 -90 -70q-56 0 -56 71zM266 724q0 71 91 71q30 0 42.5 -17.5t12.5 -54.5q0 -70 -91 -70q-55 0 -55 71z" />
<glyph unicode="&#x2c6;" horiz-adv-x="472" d="M62 620l169 92h10l169 -92q-7 -45 -27 -63.5t-40 -18.5t-48 23l-59 50l-60 -51q-27 -22 -47 -22t-40 18.5t-27 63.5z" />
<glyph unicode="&#x2dc;" horiz-adv-x="472" d="M125 532q-65 23 -65 66q0 30 30.5 57t71.5 27q19 0 43.5 -6.5t60 -20t41.5 -15.5q29 16 45 53q60 -26 60 -71q0 -33 -29.5 -58.5t-74.5 -25.5q-21 0 -58 11.5t-63 22.5l-26 12q-27 -15 -36 -52z" />
<glyph unicode="&#x2000;" horiz-adv-x="424" />
<glyph unicode="&#x2001;" horiz-adv-x="848" />
<glyph unicode="&#x2002;" horiz-adv-x="424" />
<glyph unicode="&#x2003;" horiz-adv-x="848" />
<glyph unicode="&#x2004;" horiz-adv-x="282" />
<glyph unicode="&#x2005;" horiz-adv-x="212" />
<glyph unicode="&#x2006;" horiz-adv-x="141" />
<glyph unicode="&#x2007;" horiz-adv-x="141" />
<glyph unicode="&#x2008;" horiz-adv-x="106" />
<glyph unicode="&#x2009;" horiz-adv-x="169" />
<glyph unicode="&#x200a;" horiz-adv-x="47" />
<glyph unicode="&#x2010;" horiz-adv-x="344" d="M31 210q-6 26 -6 58q0 79 65 79h224q6 -31 6 -54q0 -83 -70 -83h-219z" />
<glyph unicode="&#x2011;" horiz-adv-x="344" d="M31 210q-6 26 -6 58q0 79 65 79h224q6 -31 6 -54q0 -83 -70 -83h-219z" />
<glyph unicode="&#x2013;" horiz-adv-x="461" d="M31 210q-6 26 -6 58q0 79 65 79h341q6 -31 6 -54q0 -83 -70 -83h-336z" />
<glyph unicode="&#x2014;" horiz-adv-x="586" d="M31 210q-6 26 -6 58q0 79 65 79h466q5 -35 5 -54q0 -83 -70 -83h-460z" />
<glyph unicode="&#x2018;" horiz-adv-x="250" d="M23 441q0 57 35 119t88 98l9 -3q58 -21 58 -53q0 -12 -9 -23q-46 -65 -46 -90q30 -2 48 -21.5t18 -53.5q0 -40 -28 -65t-74 -25q-99 0 -99 117z" />
<glyph unicode="&#x2019;" horiz-adv-x="250" d="M25 554q0 40 28 65t73 25q100 0 100 -117q0 -56 -35 -118t-88 -99l-9 3q-58 21 -58 53q0 12 9 23q46 65 46 90q-30 2 -48 21.5t-18 53.5z" />
<glyph unicode="&#x201a;" horiz-adv-x="250" d="M36 -105q0 12 9 24q46 63 46 89q-30 2 -48 21.5t-18 53.5q0 40 28 65t73 25q100 0 100 -116q0 -57 -35 -119t-88 -99l-9 3q-58 21 -58 53z" />
<glyph unicode="&#x201c;" horiz-adv-x="478" d="M23 441q0 57 35 119t88 98l5 -2l5 -1q57 -21 57 -53q0 -12 -9 -23q-46 -65 -46 -90q30 -2 48 -21.5t18 -53.5q0 -40 -28 -65t-74 -25q-99 0 -99 117zM253 441q0 57 35 119t88 98l9 -3q58 -21 58 -53q0 -12 -9 -23q-46 -65 -46 -90q30 -2 48 -21.5t18 -53.5q0 -40 -28 -65 t-74 -25q-99 0 -99 117z" />
<glyph unicode="&#x201d;" horiz-adv-x="478" d="M25 554q0 40 28 65t73 25q100 0 100 -117q0 -56 -35 -118t-88 -99l-9 3q-58 21 -58 53q0 12 9 23q46 65 46 90q-30 2 -48 21.5t-18 53.5zM255 554q0 40 28 65t73 25q100 0 100 -117q0 -57 -35 -118.5t-89 -98.5q-8 3 -9 3q-57 21 -57 53q0 12 9 23q46 65 46 90 q-30 2 -48 21.5t-18 53.5z" />
<glyph unicode="&#x201e;" horiz-adv-x="478" d="M24 83q0 40 28 65t74 25q99 0 99 -116q0 -57 -34.5 -119.5t-88.5 -98.5l-9 3q-58 21 -58 53q0 12 9 24q46 63 46 89q-30 2 -48 21.5t-18 53.5zM254 83q0 40 28 65t73 25q100 0 100 -116q0 -57 -35 -119t-88 -99l-9 3q-58 21 -58 53q0 12 9 24q46 63 46 89q-30 2 -48 21.5 t-18 53.5z" />
<glyph unicode="&#x2022;" horiz-adv-x="350" d="M334 325q0 -70 -49.5 -108.5t-139.5 -38.5q-66 0 -96.5 46t-30.5 105q0 73 46 116t144 43q65 0 95.5 -44.5t30.5 -118.5z" />
<glyph unicode="&#x2026;" horiz-adv-x="799" d="M22 89q0 39 28 65t84 26q48 0 68 -23.5t20 -72.5q0 -44 -29.5 -68.5t-84.5 -24.5q-86 0 -86 98zM294 89q0 39 27.5 65t83.5 26q48 0 68 -23.5t20 -72.5q0 -44 -29 -68.5t-85 -24.5q-85 0 -85 98zM563 89q0 39 28 65t84 26q48 0 68 -23.5t20 -72.5q0 -44 -29.5 -68.5 t-84.5 -24.5q-86 0 -86 98z" />
<glyph unicode="&#x202f;" horiz-adv-x="169" />
<glyph unicode="&#x2039;" horiz-adv-x="290" d="M4 297l178 220q39 -8 65 -27t26 -47q0 -25 -34 -66l-74 -80q26 -26 74 -80q34 -41 34 -66q0 -28 -26 -47t-65 -27z" />
<glyph unicode="&#x203a;" horiz-adv-x="290" d="M286 296l-178 -220q-39 8 -65 27t-26 47q0 25 34 66l74 80q-26 26 -74 80q-34 41 -34 66q0 28 26 47t65 27z" />
<glyph unicode="&#x2044;" horiz-adv-x="351" d="M13 0l184 585h141l-183 -585h-142z" />
<glyph unicode="&#x205f;" horiz-adv-x="212" />
<glyph unicode="&#x20ac;" horiz-adv-x="470" d="M-9 261v121h56q11 138 81.5 197.5t176.5 59.5q79 0 141 -28q-1 -73 -15.5 -107t-47.5 -34q-13 0 -39.5 6.5t-45.5 6.5q-35 0 -49 -11q-21 -35 -23 -90h202v-121h-199q5 -65 33.5 -89t72.5 -24q46 0 90 27l27 -138q-65 -47 -162 -47q-114 0 -174 66t-69 205h-56z" />
<glyph unicode="&#x2122;" horiz-adv-x="530" d="M67 568l-56 -1q-3 18 -3 30q0 18 8 25t31 7h159q2 -24 2 -30q0 -19 -8 -25.5t-32 -6.5l-23 1v-243h-78v243zM319 389l-26 128l3 -191h-75v303h106l34 -158q24 104 34 158h107v-302q-33 -4 -40 -4q-24 0 -31 6.5t-7 30.5l2 158q-2 -8 -14 -79t-14 -79q-16 -7 -39 -7 q-19 0 -27.5 6.5t-12.5 29.5z" />
</font>
</defs>
</svg>
