<?xml version="1.0" standalone="no"?>
<!DOCTYPE svg PUBLIC "-//W3C//DTD SVG 1.1//EN" "http://www.w3.org/Graphics/SVG/1.1/DTD/svg11.dtd" >
<svg xmlns="http://www.w3.org/2000/svg">
<metadata>
This is a custom SVG webfont generated by Font Squirrel.
Designer    : Cesar Puertas
Foundry     : Cesar Puertas
Foundry URL : www.myfonts.com
</metadata>
<defs>
<font id="webfontKZg9qEId" horiz-adv-x="449" >
<font-face units-per-em="1000" ascent="750" descent="-250" />
<missing-glyph horiz-adv-x="180" />
<glyph unicode=" "  horiz-adv-x="180" />
<glyph unicode="&#x09;" horiz-adv-x="180" />
<glyph unicode="&#xa0;" horiz-adv-x="180" />
<glyph unicode="!" horiz-adv-x="232" d="M63 46q0 49 68 49q40 0 40 -53q0 -48 -68 -48q-40 0 -40 52zM145 198h-51l-21 467q21 4 43 4q33 0 43 -15q8 -12 8 -37v-11z" />
<glyph unicode="&#x22;" horiz-adv-x="423" d="M61 586q0 22 14.5 36t39.5 14q58 0 58 -72q0 -82 -75 -160q-3 0 -5 1q-27 4 -27 19q0 7 4 15q34 66 34 104q-19 0 -31 11t-12 32zM261 586q0 22 14.5 36t39.5 14q58 0 58 -72q0 -82 -75 -160q-4 0 -6 1q-26 4 -26 19q0 7 4 15q34 66 34 104q-19 0 -31 11t-12 32z" />
<glyph unicode="#" d="M124 377l-83 -6q-1 7 -1 16q0 18 7 23q6 5 24 5h7l51 -2l11 170q14 2 27 2q16 0 21 -7.5t2 -26.5l-21 -139h129l13 171q14 2 26 2q16 0 21 -7.5t2 -26.5l-22 -140l88 4q1 -7 1 -20q-1 -16 -9 -21q-7 -3 -23 -3h-8l-55 4l-20 -177l94 3q1 -7 1 -20q-1 -16 -9 -21 q-7 -3 -23 -3h-8l-58 4l-10 -168q-9 -2 -26 -2q-14 0 -18.5 7.5t-2.5 26.5l17 139h-126l-14 -171q-10 -2 -27 -2q-14 0 -19 7.5t-2 26.5l20 140l-80 -6q-1 4 -1 16q0 18 8 23q6 5 24 5h7l48 -2zM294 377h-130l-19 -179h129z" />
<glyph unicode="$" d="M197 -92v82h-9q-18 0 -35.5 2t-31 5t-25.5 7t-20 8l-14 7q-6 3 -8 5l-3 2q0 60 25 60q7 0 49 -16.5t78 -16.5q50 0 81 16q26 35 26 83q0 15 -1.5 24.5t-9.5 28t-31 37t-59 36.5q-153 75 -153 172q0 63 37.5 115t108.5 66v95h55v-90q64 -2 116 -27q-11 -61 -29 -61 q-3 0 -17.5 5t-38 10.5t-46.5 5.5q-54 0 -87 -18q-20 -31 -20 -76q0 -64 120 -126q46 -24 75 -47t41 -45t15.5 -37.5t3.5 -37.5q0 -74 -36.5 -122t-101.5 -63v-89h-55z" />
<glyph unicode="%" d="M124 585q88 0 88 -142q0 -137 -112 -137q-43 0 -67.5 41t-24.5 102q0 136 116 136zM58 446q0 -95 52 -95q21 0 38 7q17 32 17 88q0 95 -52 95q-21 0 -38 -7q-17 -32 -17 -88zM57 0l284 585h52l-284 -585h-52zM350 270q88 0 88 -142q0 -137 -112 -137q-43 0 -67.5 41 t-24.5 102q0 136 116 136zM284 131q0 -95 52 -95q21 0 38 7q17 32 17 88q0 95 -52 95q-21 0 -38 -7q-17 -32 -17 -88z" />
<glyph unicode="&#x26;" horiz-adv-x="550" d="M140 184q0 -135 129 -135q55 0 86 21q34 49 34 140q0 32 -6.5 61.5t-13.5 48t-7 22.5q0 9 9 11l172 16q7 -20 7 -35t-10.5 -21t-36.5 -6h-71q37 -52 37 -122q0 -67 -34 -113t-80 -64t-99 -18q-84 0 -142.5 46t-58.5 134q0 102 103 165q-80 40 -80 129q0 83 53 127.5 t136 44.5q82 0 137 -30q-8 -48 -28 -48l-36 12q-37 11 -75 11q-55 0 -83 -9q-29 -39 -29 -94q0 -63 32.5 -91.5t113.5 -28.5q0 -27 -15 -44q-12 -1 -25 -1q-21 0 -45 3q-29 -18 -51.5 -52.5t-22.5 -79.5z" />
<glyph unicode="'" horiz-adv-x="233" d="M98 404q-32 4 -32 20q0 7 4 15q34 66 34 104q-19 0 -31 11t-12 32q0 22 14.5 36t39.5 14q58 0 58 -72q0 -82 -75 -160z" />
<glyph unicode="(" horiz-adv-x="250" d="M62 291q0 318 151 420q31 -12 31 -33q0 -7 -11.5 -18.5t-28 -34t-33 -59t-28 -108.5t-11.5 -167t11.5 -167t28 -108.5t33 -59t28 -34t11.5 -18.5q0 -21 -31 -33q-151 102 -151 420z" />
<glyph unicode=")" horiz-adv-x="250" d="M118 291q0 95 -11.5 167t-28 108.5t-33 59t-28 34t-11.5 18.5q0 21 31 33q151 -102 151 -420t-151 -420q-31 12 -31 33q0 7 11.5 18.5t28 34t33 59t28 108.5t11.5 167z" />
<glyph unicode="*" horiz-adv-x="418" d="M69 382q-12 11 -16 20q-4 8 -4 14q0 15 18 23l105 51l-127 67q3 16 9 24q9 13 20 13q9 0 19 -7l96 -65l-5 143q14 4 25 4q25 0 25 -25v-6l-8 -117l121 79q7 -6 14 -18q9 -15 7 -23t-17 -15l-107 -53l128 -66q-1 -9 -8 -21q-9 -15 -16.5 -17t-21.5 7q-99 66 -100 67 l7 -146q-8 -3 -22 -3q-18 0 -23.5 5.5t-4.5 22.5q8 118 8 119z" />
<glyph unicode="+" d="M56 328l143 -2l-4 196q11 3 26 3q19 0 25 -6t6 -26l-2 -167l173 4q3 -10 3 -24q0 -19 -6 -24t-26 -5l-143 2l4 -196q-11 -3 -26 -3q-19 0 -25 6t-6 26l1 167l-172 -4q-3 11 -3 24q0 19 6 24t26 5z" />
<glyph unicode="," horiz-adv-x="232" d="M93 -143q-27 4 -27 19q0 7 4 15q34 66 34 104q-19 0 -31 11t-12 32q0 22 14.5 36t39.5 14q58 0 58 -72q0 -82 -75 -160q-3 0 -5 1z" />
<glyph unicode="-" horiz-adv-x="309" d="M43 262q-3 16 -3 27q0 37 37 37h189q3 -15 3 -26q0 -38 -36 -38h-190z" />
<glyph unicode="." horiz-adv-x="232" d="M65 46q0 49 68 49q40 0 40 -53q0 -48 -68 -48q-40 0 -40 52z" />
<glyph unicode="/" horiz-adv-x="320" d="M44 -148l177 817h63l-178 -817h-62z" />
<glyph unicode="0" d="M36 315q0 321 191 321q106 0 146 -79.5t40 -253.5q0 -41 -3.5 -78.5t-16 -82.5t-32 -77t-54.5 -53.5t-82 -21.5q-101 0 -145 83t-44 242zM147 549q-29 -85 -29 -220q0 -155 26 -218.5t80 -63.5q48 0 76 28q29 84 29 219q0 160 -23.5 221t-82.5 61q-47 0 -76 -27z" />
<glyph unicode="1" d="M315 626v-568l98 2q3 -16 3 -28q0 -17 -10 -24.5t-35 -7.5h-269q-4 16 -4 30q0 30 41 30l96 -1v506l-35 -21l-28 -16l-23 -14l-17 -11q-7 -4 -14 -7l-10 -6q-3 -2 -6.5 -3.5t-5 -2t-3.5 -0.5q-18 0 -32 52l171 90h83z" />
<glyph unicode="2" d="M379 472q0 -67 -40.5 -131t-96.5 -114q-65 -58 -82 -91.5t-17 -80.5l248 5q3 -16 3 -27q0 -20 -10 -26.5t-35 -6.5h-275q-8 32 -8 76q0 79 109 188q120 120 120 205q0 106 -94 106q-35 0 -77.5 -24.5t-49.5 -24.5q-18 0 -25 43q71 67 158 67q80 0 126 -40.5t46 -123.5z " />
<glyph unicode="3" d="M203 52q52 0 85 23q29 42 29 102q0 65 -27.5 89.5t-87.5 24.5q-46 0 -82 -9q-4 11 -4 33q0 16 2 32q9 -1 43 -1q54 0 94 16q34 46 34 111q0 103 -96 103q-34 0 -77 -17t-44 -17q-20 0 -24 49q78 45 157 45q168 0 168 -151q0 -46 -20.5 -86t-48.5 -63q53 -17 74.5 -54.5 t21.5 -102.5q0 -85 -57 -137t-143 -52q-105 0 -161 50q11 49 28 49q6 0 21 -9.5t44 -18.5t71 -9z" />
<glyph unicode="4" d="M121 168l140 7v399h-28q-51 -104 -81.5 -219t-30.5 -187zM191 626h147v-445l46 2h6q21 0 30 -7q10 -8 10 -28q0 -8 -4 -36h-88v-112h-77v112h-183q-33 0 -33 59q0 158 146 455z" />
<glyph unicode="5" d="M56 37q9 47 31 47q6 0 20 -8.5t39.5 -17t57.5 -8.5q51 0 84 19q29 48 29 123q0 77 -24 108.5t-81 31.5q-53 0 -126 -16v253q0 37 8.5 47t39.5 10h245q4 -15 4 -29q0 -16 -10 -21.5t-36 -5.5h-176l-3 -187q47 10 80 10q85 0 124 -44.5t39 -140.5q0 -99 -54.5 -158.5 t-141.5 -59.5q-93 0 -146 45z" />
<glyph unicode="6" d="M227 50q50 0 75 23q28 43 28 110q0 71 -22.5 97t-77.5 26q-49 0 -113 -19q0 -114 28 -175.5t82 -61.5zM246 370q79 0 119 -39.5t40 -129.5q0 -94 -50 -152.5t-136 -58.5q-87 0 -134 82t-47 231q0 171 64.5 252t160.5 81q58 0 106 -20q0 -56 -27 -56q-5 0 -31.5 6.5 t-49.5 6.5t-44 -4.5t-30 -8.5l-9 -5q-7 -8 -16.5 -23.5t-26 -70t-16.5 -118.5q60 27 127 27z" />
<glyph unicode="7" d="M345 570h-212l5 -129q1 -21 -10.5 -29.5t-30.5 -8.5t-37 7v216h351q9 -25 9 -49q0 -9 -1 -18q-76 -128 -117.5 -280t-48.5 -279h-83q5 126 58.5 300t116.5 270z" />
<glyph unicode="8" d="M132 477q0 -101 122 -128q61 56 61 128q0 46 -20.5 77.5t-69.5 31.5q-43 0 -73 -25q-20 -30 -20 -84zM190 300q-75 -40 -75 -131q0 -56 28 -89.5t75 -33.5q48 0 82 22q32 36 32 106q0 53 -32 81t-110 45zM139 323q-38 18 -61 55t-23 80q0 88 52 133t120 45 q82 0 123.5 -37.5t41.5 -120.5q0 -41 -23.5 -83t-58.5 -68q45 -19 73 -54t28 -85q0 -82 -51 -140t-142 -58q-78 0 -130.5 44t-52.5 133q0 52 31 96t73 60z" />
<glyph unicode="9" d="M218 576q-38 0 -68 -21q-26 -40 -26 -122q0 -65 24 -95t72 -30q57 0 102 23q0 124 -22 184.5t-82 60.5zM259 66q24 30 43 83.5t19 123.5q-48 -29 -114 -29q-74 0 -120 44.5t-46 136.5q0 90 48 150.5t137 60.5q100 0 140 -78t40 -235q0 -170 -60.5 -251.5t-167.5 -81.5 q-69 0 -115 24q4 57 31 57q4 0 39 -8t61 -8q39 0 65 11z" />
<glyph unicode=":" horiz-adv-x="232" d="M64 46q0 49 68 49q40 0 40 -53q0 -48 -68 -48q-40 0 -40 52zM64 448q0 47 68 47q22 0 31 -12t9 -39q0 -50 -68 -50q-40 0 -40 54z" />
<glyph unicode=";" horiz-adv-x="232" d="M64 448q0 47 68 47q22 0 31 -12t9 -39q0 -50 -67 -50q-41 0 -41 54zM93 -143q2 -1 5 -1q75 78 75 160q0 72 -58 72q-25 0 -39.5 -14t-14.5 -36q0 -21 12 -32t31 -11q0 -38 -34 -104q-4 -8 -4 -15q0 -15 27 -19z" />
<glyph unicode="&#x3c;" d="M53 284l278 251q37 -23 37 -46q0 -13 -15 -27l-220 -178l220 -178q15 -14 15 -27q0 -23 -37 -46z" />
<glyph unicode="=" d="M367 362h-317q-3 16 -3 27q0 37 37 37h316q3 -15 3 -26q0 -38 -36 -38zM367 159h-317q-3 17 -3 27q0 37 37 37h316q3 -15 3 -26q0 -38 -36 -38z" />
<glyph unicode="&#x3e;" d="M113 535l278 -251l-278 -251q-37 23 -37 46q0 13 15 27l220 178l-220 178q-15 14 -15 27q0 23 37 46z" />
<glyph unicode="?" horiz-adv-x="390" d="M117 43q0 50 67 50q40 0 40 -54q0 -48 -67 -48q-40 0 -40 52zM140 193q-7 32 -7 76t21.5 81.5t47 59.5t47 53.5t21.5 64.5q0 77 -88 77q-36 -1 -72 -22t-39 -21q-23 0 -28 45q22 24 64 43.5t92 19.5q73 -1 116.5 -36.5t43.5 -98.5q0 -39 -16 -70.5t-39 -54.5l-45 -44 q-23 -21 -39 -51t-16 -67q0 -33 -7 -45.5t-27 -12.5q-21 0 -30 3z" />
<glyph unicode="@" horiz-adv-x="778" d="M293 261q0 -166 73 -166q33 0 61 26.5t46 67.5v208q-42 33 -92 33q-37 0 -64 -18q-24 -48 -24 -151zM225 259q0 102 37 161.5t114 59.5q61 0 96 -40q13 40 46 40q14 0 22 -4v-316q0 -27 13 -45t37 -18q42 0 62.5 52t20.5 128q0 179 -61 258t-223 79q-56 0 -113 -19.5 t-83 -41.5q-92 -106 -92 -293q0 -181 78.5 -270t203.5 -89q46 0 83 10q6 -15 6 -32q0 -6 -1 -13q-40 -14 -97 -14q-168 0 -253 110.5t-85 291.5q0 191 96.5 304t276.5 113q181 0 257.5 -96t76.5 -286q0 -121 -44.5 -183.5t-114.5 -62.5q-44 0 -71 25t-33 68q-14 -38 -49 -66 t-76 -28q-60 0 -94.5 55t-35.5 162z" />
<glyph unicode="A" horiz-adv-x="450" d="M337 43l-19 91h-193l-29 -134h-77q-1 0 37 156l78 314l39 156h114l145 -621q-16 -8 -44 -8q-25 0 -35 8.5t-16 37.5zM219 563l-82 -374h170l-76 374h-12z" />
<glyph unicode="B" horiz-adv-x="475" d="M229 -10q-91 0 -154 25v611h154q101 0 146.5 -36.5t45.5 -114.5q0 -46 -25.5 -87t-61.5 -62q44 -13 74 -50.5t30 -89.5q0 -94 -62 -145t-147 -51zM286 296h-133v-237q33 -14 85 -14q50 0 83 22q35 44 35 111q0 46 -19.5 76.5t-50.5 41.5zM230 571h-77v-221h137 q26 19 41 51t15 67q0 103 -116 103z" />
<glyph unicode="C" horiz-adv-x="410" d="M40 311q0 166 67.5 245.5t175.5 79.5q69 0 109 -33q-6 -50 -31 -50q-5 0 -34 10.5t-65 10.5q-54 0 -90 -25q-48 -78 -48 -239q0 -258 154 -258q51 0 91 32l21 -51q-50 -43 -132 -43q-102 0 -160 79.5t-58 241.5z" />
<glyph unicode="D" horiz-adv-x="501" d="M153 571v-509q24 -10 72 -10q62 0 100 31q23 36 37.5 99t14.5 135q0 136 -34 195t-117 59h-73zM75 6v620h170q114 0 165.5 -76t51.5 -223q0 -54 -8.5 -102t-27.5 -91.5t-48.5 -75t-74 -50t-100.5 -18.5q-75 0 -128 16z" />
<glyph unicode="E" horiz-adv-x="397" d="M153 292v-234l221 4q2 -18 2 -28q0 -19 -7 -26.5t-28 -7.5h-203q-44 0 -53.5 9.5t-9.5 49.5v567h301q3 -18 3 -29q0 -18 -8 -24t-29 -6l-189 2v-221h192q2 -10 2 -26q0 -18 -7.5 -25.5t-25.5 -7.5z" />
<glyph unicode="F" horiz-adv-x="391" d="M154 272v-272h-79v626h291q3 -18 3 -29q0 -18 -8 -24t-29 -6l-178 2v-241h181q3 -16 3 -28q0 -18 -8 -24.5t-26 -6.5z" />
<glyph unicode="G" horiz-adv-x="451" d="M40 307q0 156 61 242.5t177 86.5q88 0 137 -39q-4 -49 -30 -49q-6 0 -45 13t-78 13q-54 0 -92 -25q-22 -36 -34.5 -105.5t-12.5 -136.5q0 -255 158 -255q32 0 53 12v229h-97q-5 16 -5 33q0 29 36 29h145v-318q-63 -47 -156 -47q-107 0 -162 80.5t-55 236.5z" />
<glyph unicode="H" horiz-adv-x="534" d="M153 0h-78v621q23 5 41 5q24 0 30.5 -10t6.5 -45v-230h228v280q20 5 38 5q26 0 33 -10t7 -45v-571h-78v286h-228v-286z" />
<glyph unicode="I" horiz-adv-x="327" d="M124 574l-93 -4q-4 24 -4 30q0 15 8.5 20.5t31.5 5.5h227q2 -20 2 -26q0 -17 -8 -24q-8 -5 -26 -5h-6l-54 1v-521l94 5q3 -18 3 -29q0 -16 -8 -21.5t-31 -5.5h-229q-3 15 -3 26q0 16 10 22q8 5 26 5h7l53 -1v522z" />
<glyph unicode="J" horiz-adv-x="337" d="M194 573l-129 -4q-4 16 -4 32q0 14 8.5 19.5t30.5 5.5h137q22 0 28.5 -9t6.5 -41v-405q0 -181 -163 -181q-36 0 -64 10q9 51 9 52q26 -7 53 -7q48 0 67.5 26t19.5 95v407z" />
<glyph unicode="K" horiz-adv-x="465" d="M358 626h81l-177 -300l193 -326h-102l-169 309zM153 571v-571h-78v621q23 5 41 5q24 0 30.5 -10t6.5 -45z" />
<glyph unicode="L" horiz-adv-x="344" d="M153 571v-513l183 4q3 -16 3 -30q0 -19 -7 -25.5t-26 -6.5h-231v621q23 5 41 5q24 0 30.5 -10t6.5 -45z" />
<glyph unicode="M" horiz-adv-x="684" d="M75 0v626h137l127 -500h12l125 500h133v-625q-18 -7 -38 -7q-23 0 -30.5 8t-7.5 35v520h-11l-128 -498q-21 -9 -51 -9q-26 0 -39.5 11t-22.5 45l-121 451h-11v-557h-74z" />
<glyph unicode="N" horiz-adv-x="548" d="M75 0v626h131l185 -565h9v565h73v-626q-33 -10 -63 -10q-35 0 -51 13t-30 54l-172 503h-8v-560h-74z" />
<glyph unicode="O" horiz-adv-x="502" d="M124 316q0 -264 132 -264q59 0 100 39q23 81 23 223q0 129 -28 194t-99 65q-58 0 -91 -28q-4 -8 -10 -23.5t-16.5 -74.5t-10.5 -131zM40 306q0 65 12 121.5t37 104.5t70.5 76t106.5 28q100 0 148 -82t48 -230q0 -334 -222 -334q-95 0 -147.5 83t-52.5 233z" />
<glyph unicode="P" horiz-adv-x="463" d="M222 267q62 0 95 26q30 43 30 129q0 82 -28 117t-96 35q-43 0 -70 -4v-294q21 -9 69 -9zM75 626h169q97 0 143 -47.5t46 -146.5q0 -222 -224 -222q-34 0 -56 4v-214h-78v626z" />
<glyph unicode="Q" horiz-adv-x="502" d="M40 306q0 65 12 121.5t37 104.5t70.5 76t106.5 28q100 0 148 -82t48 -230q0 -230 -107 -302l146 -68q-12 -58 -38 -58q-29 0 -161 102q-29 -8 -62 -8q-95 0 -147.5 83t-52.5 233zM124 316q0 -264 132 -264q59 0 100 39q23 81 23 223q0 129 -28 194t-99 65q-58 0 -91 -28 q-4 -8 -10 -23.5t-16.5 -74.5t-10.5 -131z" />
<glyph unicode="R" horiz-adv-x="472" d="M216 307q63 0 92 22q39 39 39 118q0 69 -29 98.5t-98 29.5q-42 0 -67 -3v-259q26 -6 63 -6zM75 0v626h180q177 0 177 -172q0 -60 -34.5 -109.5t-81.5 -67.5l124 -271q-19 -10 -47 -10q-24 0 -36 8t-20 29l-85 221q-21 -4 -49 -4q-23 0 -50 3v-253h-78z" />
<glyph unicode="S" horiz-adv-x="416" d="M47 456q0 72 49 126t142 54q77 0 124 -27q-6 -58 -33 -58q-3 0 -35 9t-63 9q-47 0 -87 -18q-20 -26 -20 -67q0 -21 5.5 -38.5t34 -45.5t79.5 -53q43 -21 72 -44.5t41.5 -46.5t16.5 -40.5t4 -38.5q0 -86 -53.5 -136.5t-146.5 -50.5q-88 0 -140 36q7 56 33 56q3 0 40 -14.5 t72 -14.5q58 0 91 16q10 12 18 37t8 46q0 11 -0.5 17.5t-5.5 23t-14.5 29t-30.5 29t-50 30.5q-88 43 -119 85.5t-32 89.5z" />
<glyph unicode="T" horiz-adv-x="380" d="M149 574l-140 -4q-3 16 -3 28q0 16 8 22t31 6h327q2 -18 2 -27q0 -17 -8 -23q-8 -5 -26 -5h-6l-107 1v-572h-78v574z" />
<glyph unicode="U" horiz-adv-x="501" d="M65 172v449q23 5 41 5q24 0 31 -10.5t7 -44.5v-388q0 -71 24.5 -101t78.5 -30q66 0 111 32v542h78v-563q-84 -73 -204 -73q-89 0 -128 45t-39 137z" />
<glyph unicode="V" horiz-adv-x="470" d="M175 0l-157 621q22 5 46 5t34 -9.5t15 -33.5l118 -520h12l131 563h77l-162 -626h-114z" />
<glyph unicode="W" horiz-adv-x="734" d="M132 0l-114 621q15 5 40 5q29 0 38.5 -10.5t15.5 -49.5l80 -499h7l97 550q32 9 72 9q39 0 54 -13t23 -51l101 -495h6l87 559h77l-119 -626h-112l-116 549h-11l-106 -549h-120z" />
<glyph unicode="X" horiz-adv-x="437" d="M416 626l-151 -305l153 -315q-18 -6 -48 -6q-27 0 -39 11.5t-32 57.5l-82 193l-122 -262h-76l162 314l-152 304q21 8 49 8q25 0 36.5 -9t25.5 -42l90 -206l112 257h74z" />
<glyph unicode="Y" horiz-adv-x="428" d="M178 210l-160 408q22 8 47 8t35.5 -6.5t18.5 -32.5l99 -314h6l113 353h73l-154 -413v-213h-78v210z" />
<glyph unicode="Z" horiz-adv-x="417" d="M383 550l-272 -498l276 7q4 -19 4 -33q0 -15 -8 -20.5t-30 -5.5h-314q-12 29 -12 66l279 505l-234 -3q-39 0 -39 30q0 14 6 28h332q1 0 3.5 -9.5t5.5 -28.5t3 -38z" />
<glyph unicode="[" horiz-adv-x="250" d="M147 665v-728q66 3 67 3q34 0 34 -26q0 -10 -3 -22h-162v818h162q3 -12 3 -22q0 -26 -34 -26q-1 0 -67 3z" />
<glyph unicode="\" horiz-adv-x="320" d="M284 -161h-62l-177 830h62z" />
<glyph unicode="]" horiz-adv-x="250" d="M105 -63v728q-66 -3 -67 -3q-34 0 -34 26q0 10 3 22h162v-818h-162q-3 12 -3 22q0 26 34 26q1 0 67 -3z" />
<glyph unicode="^" horiz-adv-x="380" d="M46 628l143 81l1 1l144 -82q-5 -19 -17.5 -30.5t-23.5 -11.5q-9 0 -27 13l-76 59l-78 -60q-15 -11 -25 -12h-2q-10 0 -21 10q-12 12 -18 32z" />
<glyph unicode="_" horiz-adv-x="545" d="M43 -116q-3 16 -3 27q0 37 37 37h425q3 -15 3 -26q0 -38 -36 -38h-426z" />
<glyph unicode="`" horiz-adv-x="380" d="M133 743l147 -130l-28 -26l-102 62q-49 30 -49 51q0 16 32 43z" />
<glyph unicode="a" horiz-adv-x="426" d="M113 134q0 -84 62 -84q55 0 107 43v139q-98 -8 -156 -26q-13 -27 -13 -72zM356 -4q-15 -6 -37 -6q-17 0 -22.5 9.5t-11.5 42.5q-61 -52 -137 -52q-53 0 -83 36.5t-30 96.5q0 79 52 116t195 42q0 113 -14.5 143t-71.5 30q-24 0 -67 -11t-49 -11q-24 0 -24 48q75 33 146 33 q89 0 121.5 -34t32.5 -128v-355z" />
<glyph unicode="b" horiz-adv-x="473" d="M344 255q0 103 -21.5 148.5t-68.5 45.5t-105 -42v-307q49 -46 100 -46q40 0 70 16q25 70 25 185zM149 611v-149q6 6 17.5 14.5t46.5 22.5t69 14q30 0 53.5 -10t45.5 -36.5t34 -80.5t12 -134q0 -118 -45.5 -190t-120.5 -72q-69 0 -117 53l-3 3q-9 -40 -15.5 -48t-28.5 -8 q-14 0 -23 3v670q26 6 41 6q24 0 29 -9.5t5 -48.5z" />
<glyph unicode="c" horiz-adv-x="345" d="M46 248q0 54 9.5 99.5t29.5 84t55.5 60t83.5 21.5q30 0 55.5 -6t36.5 -12l11 -6q0 -21 -4 -35t-8.5 -19t-10.5 -5q-2 0 -30.5 10t-54.5 10q-28 0 -59 -13q-4 -7 -9.5 -20.5t-15 -63t-9.5 -108.5q0 -97 27.5 -146.5t78.5 -49.5q50 0 84 24l13 -45q-46 -38 -117 -38 q-84 0 -125 74t-41 184z" />
<glyph unicode="d" horiz-adv-x="462" d="M127 241q0 -186 89 -186q52 0 95 41v318q-31 24 -77 31q-13 2 -26 2q-30 0 -56 -11q-25 -58 -25 -195zM46 241q0 125 37.5 198.5t116.5 73.5q59 0 111 -31v183q15 4 39 4q27 0 32 -9.5t5 -48.5v-618q-15 -3 -32 -3q-16 0 -24.5 12t-15.5 45q-5 -6 -15 -15.5t-41.5 -25.5 t-63.5 -16q-74 0 -111.5 68t-37.5 183z" />
<glyph unicode="e" horiz-adv-x="416" d="M298 294q1 16 1 31q0 130 -80 130q-18 0 -35.5 -5.5t-25.5 -11.5l-9 -6q-25 -56 -25 -147zM46 259q0 111 44.5 182.5t137.5 71.5q74 0 109.5 -48.5t35.5 -165.5q0 -40 -2 -63h-247q6 -185 117 -185q35 0 66.5 9.5t34.5 9.5q18 0 18 -48q-56 -32 -142 -32q-88 0 -130 76 t-42 193z" />
<glyph unicode="f" horiz-adv-x="292" d="M27 495h73v50q0 86 31 117t104 32q52 0 99 -21q0 -45 -18 -45q-4 0 -30 5.5t-48 5.5q-39 0 -63 -11v-133h106v-51h-106v-444h-75v444h-73v51z" />
<glyph unicode="g" horiz-adv-x="462" d="M126 258q0 -98 21 -142.5t69 -44.5q54 0 95 44v286q-38 45 -93 45q-39 0 -67 -14q-25 -68 -25 -174zM193 -158q-65 0 -107 21l4 53q46 -16 104 -16q79 0 117 27v139q-46 -60 -121 -60q-65 0 -104.5 61.5t-39.5 186.5q0 130 39 194.5t111 64.5q74 0 122 -56q9 36 18 46 t30 10q16 0 21 -4v-523q0 -71 -46 -107.5t-148 -36.5z" />
<glyph unicode="h" horiz-adv-x="479" d="M75 0v665q19 6 33 6q31 0 36.5 -9t5.5 -49l1 -163q61 63 142 63q118 0 118 -142v-371h-75v369q0 82 -67 82q-32 0 -64.5 -16t-54.5 -40v-395h-75z" />
<glyph unicode="i" horiz-adv-x="225" d="M67 640q0 41 63 41q37 0 37 -44q0 -42 -63 -42q-37 0 -37 45zM150 0h-75v496q20 8 44 8q18 0 24.5 -7t6.5 -30v-467z" />
<glyph unicode="j" horiz-adv-x="225" d="M64 640q0 41 63 41q37 0 37 -44q0 -42 -63 -42q-37 0 -37 45zM150 467v-500q0 -55 -32 -90t-98 -35q-37 0 -64 12l7 52q26 -4 50 -4q40 0 62 14v580q20 8 44 8q18 0 24.5 -7t6.5 -30z" />
<glyph unicode="k" horiz-adv-x="420" d="M151 612v-612h-76v666q28 4 44 4q23 0 27.5 -7.5t4.5 -39.5v-11zM178 257l128 247h86l-141 -240l145 -264h-94z" />
<glyph unicode="l" horiz-adv-x="255" d="M75 97v567q26 6 41 6q24 0 29 -9t5 -49v-513q0 -54 44 -54q23 0 45 8l5 -47q-32 -16 -73 -16q-96 0 -96 107z" />
<glyph unicode="m" horiz-adv-x="729" d="M75 0v509q16 4 32 4q17 0 24 -9.5t19 -55.5q7 7 21 18t55.5 29t83.5 18q22 0 39.5 -6.5t26.5 -15.5t14.5 -18.5t7.5 -16.5l1 -6q8 7 22.5 17.5t57.5 28t85 17.5q27 0 45.5 -8.5t28 -20t14.5 -35t6 -41t1 -50.5v-358h-75v349q0 26 -0.5 37.5t-3.5 27t-9 21.5t-17.5 11 t-28.5 5q-27 0 -67 -19t-55 -32v-400h-74v349q0 28 -0.5 37.5t-3 27t-8 22.5t-17 10t-28.5 5q-23 0 -53.5 -12.5t-49.5 -25.5l-19 -13v-400h-75z" />
<glyph unicode="n" horiz-adv-x="481" d="M75 0v510q18 3 34 3q18 0 26.5 -11.5t14.5 -53.5q61 65 138 65q69 0 96 -37.5t27 -108.5v-367h-75v357q0 51 -16 72.5t-54 21.5q-31 0 -62.5 -16.5t-53.5 -39.5v-395h-75z" />
<glyph unicode="o" horiz-adv-x="461" d="M127 253q0 -99 29 -153t75 -54q39 0 67 21q37 70 37 186q0 200 -98 200q-38 0 -73 -16q-37 -55 -37 -184zM248 513q83 0 125 -70t42 -190q0 -55 -10 -100t-32.5 -83t-62.5 -59t-95 -21q-80 0 -124.5 75.5t-44.5 187.5q0 31 3 58.5t15 67t32 67t59.5 47.5t92.5 20z" />
<glyph unicode="p" horiz-adv-x="472" d="M344 256q0 116 -22.5 154.5t-69.5 38.5q-19 0 -45 -10.5t-42 -20.5l-16 -10v-326q44 -26 92 -26q24 0 43.5 3.5t27.5 6.5l7 4q25 66 25 186zM425 256q0 -70 -15 -126.5t-56 -98t-104 -41.5q-30 0 -60.5 9t-40.5 15v-162h-75v658q30 3 39 3q25 -1 36 -56l19 15 q11 10 44.5 25.5t62.5 15.5q82 0 116 -60t34 -197z" />
<glyph unicode="q" horiz-adv-x="472" d="M322 -148v190q-6 -6 -17 -14.5t-45.5 -23t-70.5 -14.5q-30 0 -53 9.5t-45 35t-33.5 79t-11.5 133.5q0 266 156 266q34 0 65 -9.5t45 -19.5l14 -10q12 30 18 34.5t31 4.5q4 0 22 -3v-658h-75zM127 248q0 -103 21.5 -148t68.5 -45q52 0 105 42l-1 317q-48 36 -99 36 q-17 0 -34 -4t-26 -8l-8 -5q-27 -56 -27 -185z" />
<glyph unicode="r" horiz-adv-x="287" d="M75 0v510q25 3 36 3q17 0 22 -13.5t10 -67.5q1 -13 2 -21q22 46 61 74t81 28q5 -19 5 -52q0 -29 -16 -29q-80 0 -126 -71v-361h-75z" />
<glyph unicode="s" horiz-adv-x="372" d="M46 364q0 65 44.5 107t125.5 42q56 0 98 -24q0 -17 -5.5 -36.5t-17.5 -19.5q-2 0 -28.5 8t-53.5 8q-42 0 -74 -13q-12 -21 -12 -52q0 -33 22 -54t86 -53q57 -29 80 -56t23 -76q0 -72 -49 -113.5t-125 -41.5q-74 0 -121 32q9 54 26 54q5 0 37 -12.5t68 -12.5q48 0 78 19 q12 21 12 59q0 30 -20 50.5t-64 41.5q-69 33 -99.5 66.5t-30.5 76.5z" />
<glyph unicode="t" horiz-adv-x="302" d="M29 444v51h71v60q0 29 15.5 41t59.5 12v-113h110v-51h-110v-338q0 -35 12 -47.5t41 -12.5l48 6l8 -44q-42 -18 -89 -18q-95 0 -95 103v351h-71z" />
<glyph unicode="u" horiz-adv-x="478" d="M403 504v-506q-18 -7 -36 -7t-22.5 7t-16.5 54q-6 -7 -18 -17.5t-47 -27.5t-70 -17q-71 0 -97 39.5t-26 124.5v345q27 5 40 5q25 0 30 -6.5t5 -40.5v-309q0 -52 14 -73t49 -21q60 2 119 54v396h76z" />
<glyph unicode="v" horiz-adv-x="415" d="M147 0l-128 499q23 5 41 5q31 0 40.5 -9.5t18.5 -49.5l87 -385h20l98 444h77l-129 -504h-125z" />
<glyph unicode="w" horiz-adv-x="643" d="M116 0l-94 499q20 6 45 6q26 0 35 -10t14 -47l59 -388h18l70 436q30 8 73 8q40 0 52.5 -10t18.5 -47l62 -390h16l70 447h71l-95 -504h-118l-75 437h-14l-82 -437h-126z" />
<glyph unicode="x" horiz-adv-x="361" d="M339 504l-116 -249l123 -248q-21 -7 -44 -7q-27 0 -38.5 10.5t-31.5 53.5l-60 129l-83 -193h-73l122 257l-120 241q24 7 46 7t34.5 -9.5t28.5 -44.5l63 -135l81 188h68z" />
<glyph unicode="y" horiz-adv-x="415" d="M152 0l-133 499q25 6 48 6q22 0 32 -11t19 -51l88 -382h15l103 443h77l-142 -555q-15 -57 -46 -82t-94 -25q-45 0 -78 13l5 56q31 -7 72 -7q49 0 70 10l18 86h-54z" />
<glyph unicode="z" horiz-adv-x="376" d="M344 420l-230 -362l230 3q3 -19 3 -32q0 -17 -7 -23t-26 -6h-263q-16 25 -16 75l238 373q-146 -3 -193 -3q-21 0 -29.5 6.5t-8.5 23.5q0 19 3 29h282q17 -32 17 -84z" />
<glyph unicode="{" horiz-adv-x="250" d="M38 251v85q40 14 61.5 43t21.5 64q0 48 -22 108t-22 79q0 79 120 79q29 0 58 -11q0 -37 -14 -37h-2q-30 3 -35 3q-52 0 -82 -15q58 -112 58 -203q0 -99 -94 -126v-53q94 -27 94 -126q0 -91 -58 -203q30 -15 82 -15q5 0 35 3h2q14 0 14 -37q-29 -11 -58 -11 q-120 0 -120 79q0 19 22 79t22 108q0 35 -21.5 64t-61.5 43z" />
<glyph unicode="|" horiz-adv-x="320" d="M188 -160h-47v828h47v-828z" />
<glyph unicode="}" horiz-adv-x="250" d="M228 337v-85q-40 -14 -61.5 -43t-21.5 -64q0 -48 22 -108t22 -79q0 -79 -120 -79q-29 0 -58 11q0 37 14 37h2q30 -3 35 -3q52 0 82 15q-58 112 -58 203q0 99 94 126v53q-94 27 -94 126q0 91 58 203q-30 15 -82 15q-5 0 -35 -3h-2q-14 0 -14 37q29 11 58 11q120 0 120 -79 q0 -19 -22 -79t-22 -108q0 -35 21.5 -64t61.5 -43z" />
<glyph unicode="~" horiz-adv-x="500" d="M118 583q-30 17 -30 32q0 16 32 45.5t58 29.5q27 0 65.5 -12t63.5 -24l25 -11q28 18 55 55q24 -17 24 -32q0 -17 -30.5 -46.5t-60.5 -29.5q-26 0 -63.5 12t-62.5 24l-25 12q-28 -15 -51 -55z" />
<glyph unicode="&#xa1;" horiz-adv-x="232" d="M185 463q0 -49 -68 -49q-40 0 -40 53q0 48 68 48q40 0 40 -52zM103 311h51l21 -467q-21 -4 -43 -4q-33 0 -43 14q-8 13 -8 38v11z" />
<glyph unicode="&#xa2;" d="M296 -9v-83h-55v85q-183 25 -183 318q0 147 51 224.5t137 94.5v96h55v-90q65 0 113 -35q-6 -54 -27 -54q-1 0 -32 13.5t-75 13.5q-49 0 -90 -25q-5 -7 -13 -22.5t-21.5 -77t-13.5 -139.5q0 -258 157 -258q57 0 92 33l21 -51q-15 -15 -48.5 -29t-67.5 -14z" />
<glyph unicode="&#xa3;" d="M30 262v55h92q0 73 2.5 115.5t12 87t28 66.5t51 36t81.5 14q60 0 91 -23q0 -53 -20 -53q-3 0 -27.5 6t-44.5 6q-55 0 -93 -29q-9 -38 -9 -113v-113h169v-55h-171q0 -64 -21 -118t-59 -81l298 3q4 -17 4 -32q0 -34 -34 -34h-4h-320q-8 27 -8 60q38 33 54 80t21 122h-93z " />
<glyph unicode="&#xa4;" d="M0 160l59 59q-39 55 -39 120q0 64 37 117l-57 59l45 44l57 -57q53 39 122 39q70 0 121 -40l58 58l46 -44l-61 -60q40 -51 40 -116q0 -66 -40 -120l61 -59l-46 -43l-59 58q-49 -40 -120 -40q-68 0 -121 40l-58 -58zM76 339q0 -61 43.5 -105t104.5 -44t104.5 44t43.5 105 t-43.5 104t-104.5 43t-104.5 -43t-43.5 -104z" />
<glyph unicode="&#xa5;" d="M55 160v55h130l-158 403q22 8 47 8t35.5 -6.5t18.5 -32.5l99 -314h6l113 353h73l-154 -411h133v-55h-133v-160h-78v160h-132z" />
<glyph unicode="&#xa6;" horiz-adv-x="320" d="M189 350h-48v318h48v-318zM189 -160h-48v319h48v-319z" />
<glyph unicode="&#xa7;" horiz-adv-x="404" d="M355 30q0 -65 -51 -111t-142 -46q-66 0 -114 24q1 24 8.5 38.5t16.5 14.5t43.5 -7.5t62.5 -7.5q44 0 75 8q21 30 21 70q0 12 -3 22t-6.5 17.5t-12.5 15.5l-14 14q-5 4 -18.5 12t-18.5 10l-22 11l-20 10q-36 17 -57.5 32.5t-40 46.5t-18.5 73q0 38 20.5 77t51.5 58 q-56 42 -56 123q0 67 48.5 111t124.5 44q72 0 114 -25q-7 -50 -29 -52q-7 0 -41.5 7.5t-59.5 7.5q-35 0 -56 -8q-21 -30 -21 -70q0 -10 2 -19t4 -16t8 -14.5t9.5 -12.5t13 -11t13.5 -9t16 -9t15.5 -7.5t17.5 -8t17 -7.5q35 -15 56.5 -29.5t40 -45.5t18.5 -75 q0 -38 -20.5 -75t-53.5 -61q58 -42 58 -120zM180 378l-28 12q-37 -35 -37 -85q0 -21 8 -38.5t15.5 -27.5t30 -23t29.5 -16l37 -16q4 -2 12 -5.5t12 -5.5q41 37 41 85q0 12 -1.5 22.5t-7 20t-8.5 16t-13.5 14t-14 11t-17.5 10.5l-18 8q-3 2 -20.5 9.5t-19.5 8.5z" />
<glyph unicode="&#xa8;" horiz-adv-x="380" d="M48 660q0 35 55 35q32 0 32 -38q0 -36 -55 -36q-32 0 -32 39zM245 660q0 35 56 35q30 0 30 -38q0 -36 -54 -36q-32 0 -32 39z" />
<glyph unicode="&#xa9;" horiz-adv-x="608" d="M177 316q0 26 6 54t20 59.5t43.5 51.5t69.5 20q41 0 73 -17q0 -36 -18 -36q-3 0 -20 4.5t-32 4.5q-26 0 -48 -10q-4 -4 -10 -13t-16 -43.5t-10 -75.5q0 -69 25 -105.5t68 -36.5q32 0 55 17l9 -32q-29 -27 -78 -27q-62 0 -99.5 48t-37.5 137zM80 322q0 -133 58.5 -204.5 t169.5 -71.5q90 0 153 48q67 87 67 224q0 124 -50 193.5t-170 69.5q-88 0 -152 -33q-76 -80 -76 -226zM21 312q0 153 74.5 234.5t221.5 81.5q72 0 126 -24.5t84.5 -67t45 -94.5t14.5 -114q0 -155 -73.5 -242.5t-221.5 -87.5q-123 0 -197 85t-74 229z" />
<glyph unicode="&#xaa;" horiz-adv-x="300" d="M108 455q0 -40 33 -40q27 0 49 22v67q-49 -4 -76 -13q-6 -14 -6 -36zM242 376q-9 -4 -25 -4q-12 0 -17 5.5t-9 25.5q-24 -31 -71 -31q-32 0 -49 22t-17 56q0 39 21.5 60t77.5 28q18 2 37 3v27q0 34 -9 46t-32 12q-19 0 -40 -5.5t-26 -5.5q-15 0 -17 34q40 20 86 20 q51 0 70.5 -22t19.5 -71v-200z" />
<glyph unicode="&#xab;" horiz-adv-x="500" d="M438 97l-166 203l166 203q29 -15 29 -36q0 -17 -55 -79l-81 -88l81 -88q55 -62 55 -79q0 -21 -29 -36zM208 97l-166 203l166 203q29 -15 29 -36q0 -17 -55 -79l-81 -88l81 -88q55 -62 55 -79q0 -21 -29 -36z" />
<glyph unicode="&#xad;" horiz-adv-x="309" d="M43 262q-3 16 -3 27q0 37 37 37h189q3 -15 3 -26q0 -38 -36 -38h-190z" />
<glyph unicode="&#xae;" horiz-adv-x="417" d="M50 450q0 90 39.5 136t129.5 46q153 0 153 -171q0 -94 -37.5 -142.5t-133.5 -48.5q-73 0 -112 48t-39 132zM88 458q0 -156 125 -156q53 0 92 23q29 52 29 132q0 70 -25.5 107t-97.5 37q-48 0 -91 -16q-32 -47 -32 -127zM155 551h57q59 0 59 -52q0 -42 -33 -56 q16 -36 39 -79q-14 -3 -20 -3q-19 0 -24 15l-20 62q-9 -2 -27 0v-76h-31v189zM207 460q11 0 25 6q8 10 8 32q0 33 -32 33h-22v-70q5 -1 21 -1z" />
<glyph unicode="&#xaf;" horiz-adv-x="380" d="M57 621q-2 18 -2 23q0 18 8 22t29 4h230q2 -14 2 -19q0 -14 -6 -21t-12.5 -8t-21.5 -1h-227z" />
<glyph unicode="&#xb0;" horiz-adv-x="310" d="M30 501q0 54 33.5 89.5t91.5 35.5t91.5 -35.5t33.5 -89.5t-33.5 -89.5t-91.5 -35.5t-91.5 35.5t-33.5 89.5zM81 500q0 -34 19.5 -56t54.5 -22t54.5 22t19.5 56t-19.5 56t-54.5 22t-54.5 -22t-19.5 -56z" />
<glyph unicode="&#xb1;" d="M195 541q11 3 26 3q19 0 25 -6t6 -26l-2 -167l173 4q3 -11 3 -24q0 -19 -6 -24t-26 -5l-143 2l4 -196q-11 -3 -26 -3q-19 0 -25 6t-6 26l1 167l-172 -4q-3 10 -3 24q0 19 6 24t26 5l143 -2zM34 0q-3 16 -3 27q0 37 37 37h349q3 -15 3 -26q0 -38 -36 -38h-350z" />
<glyph unicode="&#xb2;" horiz-adv-x="300" d="M228 594q0 -56 -64 -115q-27 -24 -34 -35.5t-7 -27.5q18 0 55 1t54 1q3 -8 3 -20q0 -14 -6 -18.5t-22 -4.5h-130q-5 18 -5 42q0 39 51 90q52 52 52 86q0 40 -34 40q-12 0 -32.5 -11t-25.5 -11q-13 0 -19 29q38 36 79 36q85 0 85 -82z" />
<glyph unicode="&#xb3;" horiz-adv-x="300" d="M143 414q19 0 32 9q10 18 10 39q0 25 -10.5 34.5t-32.5 9.5q-18 0 -42 -6q-4 9 -4 24t2 23q12 -1 26 -1q19 0 37 6q12 20 12 43q0 38 -35 38q-16 0 -33.5 -7.5t-20.5 -7.5q-16 0 -20 34q43 24 80 24q83 0 83 -76q0 -36 -24 -64q36 -17 36 -73q0 -42 -28 -67t-70 -25 q-51 0 -81 28q7 32 22 32q3 0 19.5 -8.5t41.5 -8.5z" />
<glyph unicode="&#xb4;" horiz-adv-x="380" d="M100 613l147 130q32 -26 32 -43q0 -21 -49 -51l-102 -62z" />
<glyph unicode="&#xb6;" horiz-adv-x="592" d="M260 670h78v-670h-87v254q-96 0 -148.5 59t-52.5 146q0 98 58 154.5t152 56.5zM513 0h-83v665q22 5 48 5q21 0 28 -9t7 -36v-625z" />
<glyph unicode="&#xb7;" horiz-adv-x="232" d="M65 326q0 49 68 49q40 0 40 -53q0 -48 -68 -48q-40 0 -40 52z" />
<glyph unicode="&#xb8;" horiz-adv-x="380" d="M166 14l36 7q64 -44 64 -83q0 -30 -24 -50.5t-68 -20.5q-13 0 -27 2.5t-21 4.5l-8 2q-4 16 -4 27q0 16 4.5 21t16.5 5q5 0 18 -2t20 -2q33 0 42 9q1 4 1 9q0 15 -9 31q-12 23 -41 40z" />
<glyph unicode="&#xb9;" horiz-adv-x="300" d="M193 672v-255l42 1q3 -8 3 -20q0 -13 -6 -18t-22 -5h-128q-2 8 -2 19q0 24 26 24h35v204q-48 -30 -55 -30q-16 0 -24 35l84 45h47z" />
<glyph unicode="&#xba;" horiz-adv-x="300" d="M101 525q0 -111 51 -111q20 0 38 14q9 40 9 96q0 108 -49 108q-20 0 -34 -10q-15 -26 -15 -97zM47 520q0 66 26 111t83 45q96 0 96 -148q0 -157 -108 -157q-46 0 -71.5 39t-25.5 110z" />
<glyph unicode="&#xbb;" horiz-adv-x="500" d="M77 502l166 -203l-166 -203q-29 14 -29 36q0 17 55 79l81 88l-81 88q-55 62 -55 79q0 22 29 36zM307 502l166 -203l-166 -203q-29 14 -29 36q0 17 55 79l81 88l-81 88q-55 62 -55 79q0 22 29 36z" />
<glyph unicode="&#xbc;" horiz-adv-x="1158" d="M830 168l140 7v399h-28q-51 -104 -81.5 -219t-30.5 -187zM900 626h147v-445l46 2h6q21 0 30 -7q10 -8 10 -28q0 -8 -4 -36h-88v-112h-77v112h-183q-33 0 -33 59q0 158 146 455zM454 0l184 585h65q-172 -546 -183 -585h-66zM315 626v-568l98 2q3 -16 3 -28 q0 -17 -10 -24.5t-35 -7.5h-269q-4 16 -4 30q0 30 41 30l96 -1v506l-35 -21l-28 -16l-23 -14l-17 -11q-7 -4 -14 -7l-10 -6q-3 -2 -6.5 -3.5t-5 -2t-3.5 -0.5q-18 0 -32 52l171 90h83z" />
<glyph unicode="&#xbd;" horiz-adv-x="1158" d="M1088 472q0 -67 -40.5 -131t-96.5 -114q-65 -58 -82 -91.5t-17 -80.5l248 5q3 -16 3 -27q0 -20 -10 -26.5t-35 -6.5h-275q-8 32 -8 76q0 79 109 188q120 120 120 205q0 106 -94 106q-35 0 -77.5 -24.5t-49.5 -24.5q-18 0 -25 43q71 67 158 67q80 0 126 -40.5t46 -123.5z M454 0l184 585h65q-172 -546 -183 -585h-66zM315 626v-568l98 2q3 -16 3 -28q0 -17 -10 -24.5t-35 -7.5h-269q-4 16 -4 30q0 30 41 30l96 -1v506l-35 -21l-28 -16l-23 -14l-17 -11q-7 -4 -14 -7l-10 -6q-3 -2 -6.5 -3.5t-5 -2t-3.5 -0.5q-18 0 -32 52l171 90h83z" />
<glyph unicode="&#xbe;" horiz-adv-x="1158" d="M830 168l140 7v399h-28q-51 -104 -81.5 -219t-30.5 -187zM900 626h147v-445l46 2h6q21 0 30 -7q10 -8 10 -28q0 -8 -4 -36h-88v-112h-77v112h-183q-33 0 -33 59q0 158 146 455zM454 0l184 585h65q-172 -546 -183 -585h-66zM203 52q52 0 85 23q29 42 29 102 q0 65 -27.5 89.5t-87.5 24.5q-46 0 -82 -9q-4 11 -4 33q0 16 2 32q9 -1 43 -1q54 0 94 16q34 46 34 111q0 103 -96 103q-34 0 -77 -17t-44 -17q-20 0 -24 49q78 45 157 45q168 0 168 -151q0 -46 -20.5 -86t-48.5 -63q53 -17 74.5 -54.5t21.5 -102.5q0 -85 -57 -137t-143 -52 q-105 0 -161 50q11 49 28 49q6 0 21 -9.5t44 -18.5t71 -9z" />
<glyph unicode="&#xbf;" horiz-adv-x="390" d="M288 461q0 -50 -67 -50q-40 0 -40 54q0 48 67 48q40 0 40 -52zM265 311q7 -32 7 -76t-21.5 -81.5t-47 -59.5t-47 -53.5t-21.5 -64.5q0 -77 88 -77q36 1 72 22t39 21q23 0 28 -45q-22 -24 -64 -43.5t-92 -19.5q-73 1 -116.5 36.5t-43.5 98.5q0 39 16 70.5t39 54.5l45 44 q23 21 39 51t16 67q0 33 7 45.5t27 12.5q21 0 30 -3z" />
<glyph unicode="&#xc0;" horiz-adv-x="450" d="M337 43l-19 91h-193l-29 -134h-77q-1 0 37 156l78 314l39 156h114l145 -621q-16 -8 -44 -8q-25 0 -35 8.5t-16 37.5zM219 563l-82 -374h170l-76 374h-12zM167 824l157 -139l-30 -28l-109 66q-53 34 -53 55t35 46z" />
<glyph unicode="&#xc1;" horiz-adv-x="450" d="M337 43l-19 91h-193l-29 -134h-77q-1 0 37 156l78 314l39 156h114l145 -621q-16 -8 -44 -8q-25 0 -35 8.5t-16 37.5zM219 563l-82 -374h170l-76 374h-12zM126 685l157 139q34 -28 34 -46q0 -22 -52 -55l-109 -66z" />
<glyph unicode="&#xc2;" horiz-adv-x="450" d="M337 43l-19 91h-193l-29 -134h-77q-1 0 37 156l78 314l39 156h114l145 -621q-16 -8 -44 -8q-25 0 -35 8.5t-16 37.5zM219 563l-82 -374h170l-76 374h-12zM81 723l143 81l1 1l144 -82q-5 -19 -17.5 -30.5t-23.5 -11.5q-9 0 -27 13l-76 59l-78 -60q-15 -11 -25 -12h-2 q-10 0 -21 11q-12 11 -18 31z" />
<glyph unicode="&#xc3;" horiz-adv-x="450" d="M337 43l-19 91h-193l-29 -134h-77q-1 0 37 156l78 314l39 156h114l145 -621q-16 -8 -44 -8q-25 0 -35 8.5t-16 37.5zM219 563l-82 -374h170l-76 374h-12zM83 664q-30 17 -30 32q0 16 32 45.5t58 29.5q27 0 70.5 -11.5t73.5 -23.5l30 -12q28 18 55 55q24 -17 24 -32 q0 -17 -30.5 -46.5t-60.5 -29.5q-58 0 -171 48q-28 -15 -51 -55z" />
<glyph unicode="&#xc4;" horiz-adv-x="450" d="M337 43l-19 91h-193l-29 -134h-77q-1 0 37 156l78 314l39 156h114l145 -621q-16 -8 -44 -8q-25 0 -35 8.5t-16 37.5zM219 563l-82 -374h170l-76 374h-12zM83 730q0 35 55 35q32 0 32 -38q0 -36 -55 -36q-32 0 -32 39zM280 730q0 35 56 35q30 0 30 -38q0 -36 -54 -36 q-32 0 -32 39z" />
<glyph unicode="&#xc5;" horiz-adv-x="450" d="M337 43l-19 91h-193l-29 -134h-77q-1 0 37 156l78 314l39 156h114l145 -621q-16 -8 -44 -8q-25 0 -35 8.5t-16 37.5zM219 563l-82 -374h170l-76 374h-12zM142 740q0 35 24 59.5t58 24.5q35 0 59.5 -24.5t24.5 -59.5q0 -34 -24.5 -58t-59.5 -24q-34 0 -58 24t-24 58z M183 741q0 -17 12 -29t29 -12q16 0 30 12q12 12 12 29t-12.5 29.5t-29.5 12.5t-29 -12q-12 -14 -12 -30z" />
<glyph unicode="&#xc6;" horiz-adv-x="612" d="M368 58l221 4q1 -12 1 -29q0 -22 -5 -27.5t-21 -5.5h-211q-44 0 -53.5 9.5t-9.5 49.5v75h-168l-43 -134h-78l220 626h370q2 -22 2 -27q0 -22 -8 -27.5t-28 -4.5l-189 2v-221h192q1 -12 1 -30t-6 -24t-26 -5l-161 3v-234zM259 563l-120 -374h151v374h-31z" />
<glyph unicode="&#xc7;" horiz-adv-x="410" d="M40 311q0 166 67.5 245.5t175.5 79.5q69 0 109 -33q-6 -50 -31 -50q-5 0 -34 10.5t-65 10.5q-54 0 -90 -25q-48 -78 -48 -239q0 -258 154 -258q51 0 91 32l21 -51q-36 -31 -93 -40q29 -27 29 -55q0 -30 -24 -50.5t-68 -20.5q-13 0 -27 2.5t-21 4.5l-8 2q-4 16 -4 27 q0 16 4.5 21t16.5 5q5 0 18 -2t20 -2q33 0 42 9q1 5 1 10q0 22 -21 46q-101 2 -158 81t-57 240z" />
<glyph unicode="&#xc8;" horiz-adv-x="397" d="M153 292v-234l221 4q2 -18 2 -28q0 -19 -7 -26.5t-28 -7.5h-203q-44 0 -53.5 9.5t-9.5 49.5v567h301q3 -18 3 -29q0 -18 -8 -24t-29 -6l-189 2v-221h192q2 -10 2 -26q0 -18 -7.5 -25.5t-25.5 -7.5zM169 824l157 -139l-30 -28l-109 66q-53 34 -53 55t35 46z" />
<glyph unicode="&#xc9;" horiz-adv-x="397" d="M153 292v-234l221 4q2 -18 2 -28q0 -19 -7 -26.5t-28 -7.5h-203q-44 0 -53.5 9.5t-9.5 49.5v567h301q3 -18 3 -29q0 -18 -8 -24t-29 -6l-189 2v-221h192q2 -10 2 -26q0 -18 -7.5 -25.5t-25.5 -7.5zM134 685l157 139q34 -28 34 -46q0 -22 -52 -55l-109 -66z" />
<glyph unicode="&#xca;" horiz-adv-x="397" d="M153 292v-234l221 4q2 -18 2 -28q0 -19 -7 -26.5t-28 -7.5h-203q-44 0 -53.5 9.5t-9.5 49.5v567h301q3 -18 3 -29q0 -18 -8 -24t-29 -6l-189 2v-221h192q2 -10 2 -26q0 -18 -7.5 -25.5t-25.5 -7.5zM96 723l143 81l1 1l144 -82q-5 -19 -17.5 -30.5t-23.5 -11.5 q-9 0 -27 13l-76 59l-78 -60q-15 -11 -25 -12h-2q-10 0 -21 11q-12 11 -18 31z" />
<glyph unicode="&#xcb;" horiz-adv-x="397" d="M153 292v-234l221 4q2 -18 2 -28q0 -19 -7 -26.5t-28 -7.5h-203q-44 0 -53.5 9.5t-9.5 49.5v567h301q3 -18 3 -29q0 -18 -8 -24t-29 -6l-189 2v-221h192q2 -10 2 -26q0 -18 -7.5 -25.5t-25.5 -7.5zM89 730q0 35 55 35q32 0 32 -38q0 -36 -55 -36q-32 0 -32 39zM286 730 q0 35 56 35q30 0 30 -38q0 -36 -54 -36q-32 0 -32 39z" />
<glyph unicode="&#xcc;" horiz-adv-x="327" d="M124 574l-93 -4q-4 24 -4 30q0 15 8.5 20.5t31.5 5.5h227q2 -20 2 -26q0 -17 -8 -24q-8 -5 -26 -5h-6l-54 1v-521l94 5q3 -18 3 -29q0 -16 -8 -21.5t-31 -5.5h-229q-3 15 -3 26q0 16 10 22q8 5 26 5h7l53 -1v522zM107 824l157 -139l-30 -28l-109 66q-53 34 -53 55t35 46z " />
<glyph unicode="&#xcd;" horiz-adv-x="327" d="M124 574l-93 -4q-4 24 -4 30q0 15 8.5 20.5t31.5 5.5h227q2 -20 2 -26q0 -17 -8 -24q-8 -5 -26 -5h-6l-54 1v-521l94 5q3 -18 3 -29q0 -16 -8 -21.5t-31 -5.5h-229q-3 15 -3 26q0 16 10 22q8 5 26 5h7l53 -1v522zM65 685l157 139q34 -28 34 -46q0 -22 -52 -55l-109 -66z " />
<glyph unicode="&#xce;" horiz-adv-x="327" d="M124 574l-93 -4q-4 24 -4 30q0 15 8.5 20.5t31.5 5.5h227q2 -20 2 -26q0 -17 -8 -24q-8 -5 -26 -5h-6l-54 1v-521l94 5q3 -18 3 -29q0 -16 -8 -21.5t-31 -5.5h-229q-3 15 -3 26q0 16 10 22q8 5 26 5h7l53 -1v522zM19 723l143 81l1 1l144 -82q-5 -19 -17.5 -30.5 t-23.5 -11.5q-9 0 -27 13l-76 59l-78 -60q-15 -11 -25 -12h-2q-10 0 -21 11q-12 11 -18 31z" />
<glyph unicode="&#xcf;" horiz-adv-x="327" d="M124 574l-93 -4q-4 24 -4 30q0 15 8.5 20.5t31.5 5.5h227q2 -20 2 -26q0 -17 -8 -24q-8 -5 -26 -5h-6l-54 1v-521l94 5q3 -18 3 -29q0 -16 -8 -21.5t-31 -5.5h-229q-3 15 -3 26q0 16 10 22q8 5 26 5h7l53 -1v522zM22 730q0 35 55 35q32 0 32 -38q0 -36 -55 -36 q-32 0 -32 39zM219 730q0 35 56 35q30 0 30 -38q0 -36 -54 -36q-32 0 -32 39z" />
<glyph unicode="&#xd0;" horiz-adv-x="501" d="M75 6v286h-62v56h62v278h170q114 0 165.5 -76t51.5 -223q0 -54 -8.5 -102t-27.5 -91.5t-48.5 -75t-74 -50t-100.5 -18.5q-75 0 -128 16zM153 571v-223h135q3 -16 3 -27q0 -17 -8 -23t-26 -6h-104v-230q24 -10 72 -10q62 0 100 31q23 36 37.5 99t14.5 135q0 136 -34 195 t-117 59h-73z" />
<glyph unicode="&#xd1;" horiz-adv-x="548" d="M75 0v626h131l185 -565h9v565h73v-626q-33 -10 -63 -10q-35 0 -51 13t-30 54l-172 503h-8v-560h-74zM144 664q-30 17 -30 32q0 16 32 45.5t58 29.5q27 0 70.5 -11.5t73.5 -23.5l30 -12q28 18 55 55q24 -17 24 -32q0 -17 -30.5 -46.5t-60.5 -29.5q-58 0 -171 48 q-28 -15 -51 -55z" />
<glyph unicode="&#xd2;" horiz-adv-x="502" d="M124 316q0 -264 132 -264q59 0 100 39q23 81 23 223q0 129 -28 194t-99 65q-58 0 -91 -28q-4 -8 -10 -23.5t-16.5 -74.5t-10.5 -131zM40 306q0 65 12 121.5t37 104.5t70.5 76t106.5 28q100 0 148 -82t48 -230q0 -334 -222 -334q-95 0 -147.5 83t-52.5 233zM197 824 l157 -139l-30 -28l-109 66q-53 34 -53 55t35 46z" />
<glyph unicode="&#xd3;" horiz-adv-x="502" d="M124 316q0 -264 132 -264q59 0 100 39q23 81 23 223q0 129 -28 194t-99 65q-58 0 -91 -28q-4 -8 -10 -23.5t-16.5 -74.5t-10.5 -131zM40 306q0 65 12 121.5t37 104.5t70.5 76t106.5 28q100 0 148 -82t48 -230q0 -334 -222 -334q-95 0 -147.5 83t-52.5 233zM154 685 l157 139q34 -28 34 -46q0 -22 -52 -55l-109 -66z" />
<glyph unicode="&#xd4;" horiz-adv-x="502" d="M124 316q0 -264 132 -264q59 0 100 39q23 81 23 223q0 129 -28 194t-99 65q-58 0 -91 -28q-4 -8 -10 -23.5t-16.5 -74.5t-10.5 -131zM40 306q0 65 12 121.5t37 104.5t70.5 76t106.5 28q100 0 148 -82t48 -230q0 -334 -222 -334q-95 0 -147.5 83t-52.5 233zM111 723 l143 81l1 1l144 -82q-5 -19 -17.5 -30.5t-23.5 -11.5q-9 0 -27 13l-76 59l-78 -60q-15 -11 -25 -12h-2q-10 0 -21 11q-12 11 -18 31z" />
<glyph unicode="&#xd5;" horiz-adv-x="502" d="M124 316q0 -264 132 -264q59 0 100 39q23 81 23 223q0 129 -28 194t-99 65q-58 0 -91 -28q-4 -8 -10 -23.5t-16.5 -74.5t-10.5 -131zM40 306q0 65 12 121.5t37 104.5t70.5 76t106.5 28q100 0 148 -82t48 -230q0 -334 -222 -334q-95 0 -147.5 83t-52.5 233zM112 664 q-30 17 -30 32q0 16 32 45.5t58 29.5q27 0 70.5 -11.5t73.5 -23.5l30 -12q28 18 55 55q24 -17 24 -32q0 -17 -30.5 -46.5t-60.5 -29.5q-58 0 -171 48q-28 -15 -51 -55z" />
<glyph unicode="&#xd6;" horiz-adv-x="502" d="M124 316q0 -264 132 -264q59 0 100 39q23 81 23 223q0 129 -28 194t-99 65q-58 0 -91 -28q-4 -8 -10 -23.5t-16.5 -74.5t-10.5 -131zM40 306q0 65 12 121.5t37 104.5t70.5 76t106.5 28q100 0 148 -82t48 -230q0 -334 -222 -334q-95 0 -147.5 83t-52.5 233zM111 730 q0 35 55 35q32 0 32 -38q0 -36 -55 -36q-32 0 -32 39zM308 730q0 35 56 35q30 0 30 -38q0 -36 -54 -36q-32 0 -32 39z" />
<glyph unicode="&#xd7;" d="M261 291l148 -142q-3 -6 -15 -23q-11 -13 -22 -13l-22 12l-126 129l-142 -148q-11 4 -23 15q-13 11 -13 22t12 22l129 126l-148 142q2 8 15 23q12 13 23 13t21 -12l126 -129l142 148q6 -3 23 -15q13 -12 13 -23t-12 -21z" />
<glyph unicode="&#xd8;" horiz-adv-x="502" d="M40 306q0 65 12 121.5t37 104.5t70.5 76t106.5 28q26 0 49 -6l23 85h49l-29 -104q104 -64 104 -287q0 -334 -222 -334q-28 0 -49 7l-23 -85h-48l28 103q-108 69 -108 291zM124 316q0 -158 46 -221l127 469q-23 9 -45 9q-61 0 -91 -28q-4 -8 -10 -23.5t-16.5 -74.5 t-10.5 -131zM379 314q0 159 -42 217l-128 -469q23 -10 47 -10q59 0 100 39q23 81 23 223z" />
<glyph unicode="&#xd9;" horiz-adv-x="501" d="M65 172v449q23 5 41 5q24 0 31 -10.5t7 -44.5v-388q0 -71 24.5 -101t78.5 -30q66 0 111 32v542h78v-563q-84 -73 -204 -73q-89 0 -128 45t-39 137zM192 824l157 -139l-30 -28l-109 66q-53 34 -53 55t35 46z" />
<glyph unicode="&#xda;" horiz-adv-x="501" d="M65 172v449q23 5 41 5q24 0 31 -10.5t7 -44.5v-388q0 -71 24.5 -101t78.5 -30q66 0 111 32v542h78v-563q-84 -73 -204 -73q-89 0 -128 45t-39 137zM154 685l157 139q34 -28 34 -46q0 -22 -52 -55l-109 -66z" />
<glyph unicode="&#xdb;" horiz-adv-x="501" d="M65 172v449q23 5 41 5q24 0 31 -10.5t7 -44.5v-388q0 -71 24.5 -101t78.5 -30q66 0 111 32v542h78v-563q-84 -73 -204 -73q-89 0 -128 45t-39 137zM106 723l143 81l1 1l144 -82q-5 -19 -17.5 -30.5t-23.5 -11.5q-9 0 -27 13l-76 59l-78 -60q-15 -11 -25 -12h-2 q-10 0 -21 11q-12 11 -18 31z" />
<glyph unicode="&#xdc;" horiz-adv-x="501" d="M65 172v449q23 5 41 5q24 0 31 -10.5t7 -44.5v-388q0 -71 24.5 -101t78.5 -30q66 0 111 32v542h78v-563q-84 -73 -204 -73q-89 0 -128 45t-39 137zM110 730q0 35 55 35q32 0 32 -38q0 -36 -55 -36q-32 0 -32 39zM307 730q0 35 56 35q30 0 30 -38q0 -36 -54 -36 q-32 0 -32 39z" />
<glyph unicode="&#xdd;" horiz-adv-x="428" d="M178 210l-160 408q22 8 47 8t35.5 -6.5t18.5 -32.5l99 -314h6l113 353h73l-154 -413v-213h-78v210zM122 685l157 139q34 -28 34 -46q0 -22 -52 -55l-109 -66z" />
<glyph unicode="&#xde;" horiz-adv-x="463" d="M75 623q19 3 42 3t29.5 -10.5t6.5 -48.5v-51h91q98 0 143.5 -47.5t45.5 -148.5q0 -106 -52 -163.5t-172 -57.5q-29 0 -56 5v-104h-78v623zM222 157q27 0 51 6.5t34 12.5l10 7q30 42 30 129q0 29 -2 48.5t-9 40.5t-20 33.5t-36.5 21t-56.5 8.5q-28 0 -70 -2v-296 q21 -9 69 -9z" />
<glyph unicode="&#xdf;" horiz-adv-x="471" d="M68 543q0 74 55 112.5t131 38.5q74 0 113 -27.5t39 -92.5q0 -33 -29 -78.5t-57 -74.5l-29 -29q-6 -15 -6 -29q0 -22 13.5 -34.5t51.5 -35.5q6 -3 9 -5q64 -38 82 -68t18 -76q0 -66 -44 -110t-118 -44q-54 0 -94 23q2 28 7 41t16 7q40 -17 77 -17q41 0 63 18q22 31 22 66 q0 31 -18 51.5t-74 53.5q-43 25 -60 57q-12 21 -12 51q0 17 4 37q11 12 26.5 33t41.5 71t26 85q0 42 -18.5 57.5t-53.5 15.5q-31 0 -58 -7.5t-39 -14.5l-12 -8v-610h-73v543z" />
<glyph unicode="&#xe0;" horiz-adv-x="426" d="M113 134q0 -84 62 -84q55 0 107 43v139q-98 -8 -156 -26q-13 -27 -13 -72zM356 -4q-15 -6 -37 -6q-17 0 -22.5 9.5t-11.5 42.5q-61 -52 -137 -52q-53 0 -83 36.5t-30 96.5q0 79 52 116t195 42q0 113 -14.5 143t-71.5 30q-24 0 -67 -11t-49 -11q-24 0 -24 48q75 33 146 33 q89 0 121.5 -34t32.5 -128v-355zM152 723l147 -130l-28 -26l-102 62q-49 30 -49 51q0 16 32 43z" />
<glyph unicode="&#xe1;" horiz-adv-x="426" d="M113 134q0 -84 62 -84q55 0 107 43v139q-98 -8 -156 -26q-13 -27 -13 -72zM356 -4q-15 -6 -37 -6q-17 0 -22.5 9.5t-11.5 42.5q-61 -52 -137 -52q-53 0 -83 36.5t-30 96.5q0 79 52 116t195 42q0 113 -14.5 143t-71.5 30q-24 0 -67 -11t-49 -11q-24 0 -24 48q75 33 146 33 q89 0 121.5 -34t32.5 -128v-355zM109 593l147 130q32 -26 32 -43q0 -21 -49 -51l-102 -62z" />
<glyph unicode="&#xe2;" horiz-adv-x="426" d="M113 134q0 -84 62 -84q55 0 107 43v139q-98 -8 -156 -26q-13 -27 -13 -72zM356 -4q-15 -6 -37 -6q-17 0 -22.5 9.5t-11.5 42.5q-61 -52 -137 -52q-53 0 -83 36.5t-30 96.5q0 79 52 116t195 42q0 113 -14.5 143t-71.5 30q-24 0 -67 -11t-49 -11q-24 0 -24 48q75 33 146 33 q89 0 121.5 -34t32.5 -128v-355zM64 608l143 81l1 1l144 -82q-5 -19 -17.5 -30.5t-23.5 -11.5q-9 0 -27 13l-76 59l-78 -60q-15 -11 -25 -12h-2q-10 0 -21 10q-12 12 -18 32z" />
<glyph unicode="&#xe3;" horiz-adv-x="426" d="M113 134q0 -84 62 -84q55 0 107 43v139q-98 -8 -156 -26q-13 -27 -13 -72zM356 -4q-15 -6 -37 -6q-17 0 -22.5 9.5t-11.5 42.5q-61 -52 -137 -52q-53 0 -83 36.5t-30 96.5q0 79 52 116t195 42q0 113 -14.5 143t-71.5 30q-24 0 -67 -11t-49 -11q-24 0 -24 48q75 33 146 33 q89 0 121.5 -34t32.5 -128v-355zM71 563q-30 17 -30 32q0 16 32 45.5t58 29.5q27 0 65.5 -12t63.5 -24l25 -11q28 18 55 55q24 -17 24 -32q0 -17 -30.5 -46.5t-60.5 -29.5q-26 0 -63.5 12t-62.5 24l-25 12q-28 -15 -51 -55z" />
<glyph unicode="&#xe4;" horiz-adv-x="426" d="M113 134q0 -84 62 -84q55 0 107 43v139q-98 -8 -156 -26q-13 -27 -13 -72zM356 -4q-15 -6 -37 -6q-17 0 -22.5 9.5t-11.5 42.5q-61 -52 -137 -52q-53 0 -83 36.5t-30 96.5q0 79 52 116t195 42q0 113 -14.5 143t-71.5 30q-24 0 -67 -11t-49 -11q-24 0 -24 48q75 33 146 33 q89 0 121.5 -34t32.5 -128v-355zM65 640q0 35 55 35q32 0 32 -38q0 -36 -55 -36q-32 0 -32 39zM262 640q0 35 56 35q30 0 30 -38q0 -36 -54 -36q-32 0 -32 39z" />
<glyph unicode="&#xe5;" horiz-adv-x="426" d="M113 134q0 -84 62 -84q55 0 107 43v139q-98 -8 -156 -26q-13 -27 -13 -72zM356 -4q-15 -6 -37 -6q-17 0 -22.5 9.5t-11.5 42.5q-61 -52 -137 -52q-53 0 -83 36.5t-30 96.5q0 79 52 116t195 42q0 113 -14.5 143t-71.5 30q-24 0 -67 -11t-49 -11q-24 0 -24 48q75 33 146 33 q89 0 121.5 -34t32.5 -128v-355zM122 635q0 35 24 59.5t58 24.5q35 0 59.5 -24.5t24.5 -59.5q0 -34 -24.5 -58t-59.5 -24q-34 0 -58 23.5t-24 58.5zM163 636q0 -17 12 -29t29 -12q16 0 30 12q12 12 12 29t-12.5 29.5t-29.5 12.5t-29 -12q-12 -14 -12 -30z" />
<glyph unicode="&#xe6;" horiz-adv-x="640" d="M148 -10q-53 0 -83 38t-30 95q0 63 32.5 98.5t121.5 50.5q39 6 93 9q0 104 -9 130q-21 42 -77 44q-30 0 -71 -11.5t-45 -11.5q-24 0 -24 48q75 33 146 33q57 0 86.5 -11t46.5 -36q41 47 118 47q83 0 113.5 -54.5t30.5 -163.5q0 -38 -1 -59h-247q0 -88 30 -136.5t87 -48.5 q33 0 65 9.5t36 9.5q14 0 17 -36q0 -1 0.5 -5.5t0.5 -6.5q-51 -32 -132 -32q-51 0 -87 21t-53 54q-75 -75 -165 -75zM113 134q0 -84 61 -84q55 0 108 42v140q-98 -8 -156 -26q-13 -29 -13 -72zM523 294v16q0 71 -17 106q-18 39 -62 39q-18 0 -35.5 -5.5t-26.5 -11.5l-8 -6 q-25 -45 -25 -147z" />
<glyph unicode="&#xe7;" horiz-adv-x="345" d="M46 248q0 54 9.5 99.5t29.5 84t55.5 60t83.5 21.5q30 0 55.5 -6t36.5 -12l11 -6q0 -21 -4 -35t-8.5 -19t-10.5 -5q-2 0 -30.5 10t-54.5 10q-28 0 -59 -13q-4 -7 -9.5 -20.5t-15 -63t-9.5 -108.5q0 -97 27.5 -146.5t78.5 -49.5q50 0 84 24l13 -45q-30 -25 -74 -34 q30 -28 30 -56q0 -30 -24 -50.5t-68 -20.5q-13 0 -27 2.5t-22 4.5l-7 2q-4 16 -4 27q0 16 4.5 21t16.5 5q4 0 17 -2t21 -2q33 0 42 9q1 5 1 10q0 22 -21 46h-2q-84 0 -125 74t-41 184z" />
<glyph unicode="&#xe8;" horiz-adv-x="416" d="M298 294q1 16 1 31q0 130 -80 130q-18 0 -35.5 -5.5t-25.5 -11.5l-9 -6q-25 -56 -25 -147zM46 259q0 111 44.5 182.5t137.5 71.5q74 0 109.5 -48.5t35.5 -165.5q0 -40 -2 -63h-247q6 -185 117 -185q35 0 66.5 9.5t34.5 9.5q18 0 18 -48q-56 -32 -142 -32q-88 0 -130 76 t-42 193zM159 723l147 -130l-28 -26l-102 62q-49 30 -49 51q0 16 32 43z" />
<glyph unicode="&#xe9;" horiz-adv-x="416" d="M298 294q1 16 1 31q0 130 -80 130q-18 0 -35.5 -5.5t-25.5 -11.5l-9 -6q-25 -56 -25 -147zM46 259q0 111 44.5 182.5t137.5 71.5q74 0 109.5 -48.5t35.5 -165.5q0 -40 -2 -63h-247q6 -185 117 -185q35 0 66.5 9.5t34.5 9.5q18 0 18 -48q-56 -32 -142 -32q-88 0 -130 76 t-42 193zM122 593l147 130q32 -26 32 -43q0 -21 -49 -51l-102 -62z" />
<glyph unicode="&#xea;" horiz-adv-x="416" d="M298 294q1 16 1 31q0 130 -80 130q-18 0 -35.5 -5.5t-25.5 -11.5l-9 -6q-25 -56 -25 -147zM46 259q0 111 44.5 182.5t137.5 71.5q74 0 109.5 -48.5t35.5 -165.5q0 -40 -2 -63h-247q6 -185 117 -185q35 0 66.5 9.5t34.5 9.5q18 0 18 -48q-56 -32 -142 -32q-88 0 -130 76 t-42 193zM70 608l143 81l1 1l144 -82q-5 -19 -17.5 -30.5t-23.5 -11.5q-9 0 -27 13l-76 59l-78 -60q-15 -11 -25 -12h-2q-10 0 -21 10q-12 12 -18 32z" />
<glyph unicode="&#xeb;" horiz-adv-x="416" d="M298 294q1 16 1 31q0 130 -80 130q-18 0 -35.5 -5.5t-25.5 -11.5l-9 -6q-25 -56 -25 -147zM46 259q0 111 44.5 182.5t137.5 71.5q74 0 109.5 -48.5t35.5 -165.5q0 -40 -2 -63h-247q6 -185 117 -185q35 0 66.5 9.5t34.5 9.5q18 0 18 -48q-56 -32 -142 -32q-88 0 -130 76 t-42 193zM73 640q0 35 55 35q32 0 32 -38q0 -36 -55 -36q-32 0 -32 39zM270 640q0 35 56 35q30 0 30 -38q0 -36 -54 -36q-32 0 -32 39z" />
<glyph unicode="&#xec;" horiz-adv-x="225" d="M150 0h-75v496q25 8 44 8q23 0 27 -9t4 -48v-447zM60 723l147 -130l-28 -26l-102 62q-49 30 -49 51q0 16 32 43z" />
<glyph unicode="&#xed;" horiz-adv-x="225" d="M150 0h-75v496q25 8 44 8q23 0 27 -9t4 -48v-447zM29 593l147 130q32 -26 32 -43q0 -21 -49 -51l-102 -62z" />
<glyph unicode="&#xee;" horiz-adv-x="225" d="M150 0h-75v496q25 8 44 8q23 0 27 -9t4 -48v-447zM-17 608l129 81l1 1l130 -82q-5 -19 -16 -30.5t-21 -11.5q-9 0 -25 13l-68 59l-71 -60q-14 -11 -22 -12h-2q-9 0 -19 10q-11 12 -16 32z" />
<glyph unicode="&#xef;" horiz-adv-x="225" d="M150 0h-75v496q25 8 44 8q23 0 27 -9t4 -48v-447zM-28 640q0 35 55 35q32 0 32 -38q0 -36 -55 -36q-32 0 -32 39zM169 640q0 35 56 35q30 0 30 -38q0 -36 -54 -36q-32 0 -32 39z" />
<glyph unicode="&#xf0;" horiz-adv-x="462" d="M370 706v-62l-55 -25q100 -136 100 -366q0 -55 -10 -100t-32.5 -83t-62.5 -59t-95 -21q-80 0 -124.5 75.5t-44.5 187.5q0 44 8 85t26 82.5t54.5 67t87.5 25.5q25 0 50.5 -12t39.5 -33q-18 67 -60 121l-124 -57v60l85 40l-23 19l-22 16t-12 9q-23 18 -23 34t21 34 q70 -27 124 -81zM127 253q0 -99 29 -153t75 -54q43 0 67 21q37 70 37 186q0 200 -103 200q-40 0 -68 -16q-37 -55 -37 -184z" />
<glyph unicode="&#xf1;" horiz-adv-x="481" d="M75 0v510q18 3 34 3q18 0 26.5 -11.5t14.5 -53.5q61 65 138 65q69 0 96 -37.5t27 -108.5v-367h-75v357q0 51 -16 72.5t-54 21.5q-31 0 -62.5 -16.5t-53.5 -39.5v-395h-75zM116 563q-30 17 -30 32q0 16 32 45.5t58 29.5q27 0 65.5 -12t63.5 -24l25 -11q28 18 55 55 q24 -17 24 -32q0 -17 -30.5 -46.5t-60.5 -29.5q-26 0 -63.5 12t-62.5 24l-25 12q-28 -15 -51 -55z" />
<glyph unicode="&#xf2;" horiz-adv-x="461" d="M127 253q0 -99 29 -153t75 -54q39 0 67 21q37 70 37 186q0 200 -98 200q-38 0 -73 -16q-37 -55 -37 -184zM248 513q83 0 125 -70t42 -190q0 -55 -10 -100t-32.5 -83t-62.5 -59t-95 -21q-80 0 -124.5 75.5t-44.5 187.5q0 31 3 58.5t15 67t32 67t59.5 47.5t92.5 20z M179 723l147 -130l-28 -26l-102 62q-49 30 -49 51q0 16 32 43z" />
<glyph unicode="&#xf3;" horiz-adv-x="461" d="M127 253q0 -99 29 -153t75 -54q39 0 67 21q37 70 37 186q0 200 -98 200q-38 0 -73 -16q-37 -55 -37 -184zM248 513q83 0 125 -70t42 -190q0 -55 -10 -100t-32.5 -83t-62.5 -59t-95 -21q-80 0 -124.5 75.5t-44.5 187.5q0 31 3 58.5t15 67t32 67t59.5 47.5t92.5 20z M139 593l147 130q32 -26 32 -43q0 -21 -49 -51l-102 -62z" />
<glyph unicode="&#xf4;" horiz-adv-x="461" d="M127 253q0 -99 29 -153t75 -54q39 0 67 21q37 70 37 186q0 200 -98 200q-38 0 -73 -16q-37 -55 -37 -184zM248 513q83 0 125 -70t42 -190q0 -55 -10 -100t-32.5 -83t-62.5 -59t-95 -21q-80 0 -124.5 75.5t-44.5 187.5q0 31 3 58.5t15 67t32 67t59.5 47.5t92.5 20zM88 608 l143 81l1 1l144 -82q-5 -19 -17.5 -30.5t-23.5 -11.5q-9 0 -27 13l-76 59l-78 -60q-15 -11 -25 -12h-2q-10 0 -21 10q-12 12 -18 32z" />
<glyph unicode="&#xf5;" horiz-adv-x="461" d="M127 253q0 -99 29 -153t75 -54q39 0 67 21q37 70 37 186q0 200 -98 200q-38 0 -73 -16q-37 -55 -37 -184zM248 513q83 0 125 -70t42 -190q0 -55 -10 -100t-32.5 -83t-62.5 -59t-95 -21q-80 0 -124.5 75.5t-44.5 187.5q0 31 3 58.5t15 67t32 67t59.5 47.5t92.5 20z M102 563q-30 17 -30 32q0 16 32 45.5t58 29.5q27 0 65.5 -12t63.5 -24l25 -11q28 18 55 55q24 -17 24 -32q0 -17 -30.5 -46.5t-60.5 -29.5q-26 0 -63.5 12t-62.5 24l-25 12q-28 -15 -51 -55z" />
<glyph unicode="&#xf6;" horiz-adv-x="461" d="M92 640q0 35 55 35q32 0 32 -38q0 -36 -55 -36q-32 0 -32 39zM289 640q0 35 56 35q30 0 30 -38q0 -36 -54 -36q-32 0 -32 39zM127 253q0 -99 29 -153t75 -54q39 0 67 21q37 70 37 186q0 200 -98 200q-38 0 -73 -16q-37 -55 -37 -184zM248 513q83 0 125 -70t42 -190 q0 -55 -10 -100t-32.5 -83t-62.5 -59t-95 -21q-80 0 -124.5 75.5t-44.5 187.5q0 31 3 58.5t15 67t32 67t59.5 47.5t92.5 20z" />
<glyph unicode="&#xf7;" d="M173 493q0 41 62 41q38 0 38 -45q0 -42 -63 -42q-37 0 -37 46zM34 269q-3 17 -3 27q0 37 37 37h349q3 -15 3 -26q0 -38 -36 -38h-350zM173 107q0 -46 37 -46q63 0 63 43q0 45 -38 45q-62 0 -62 -42z" />
<glyph unicode="&#xf8;" horiz-adv-x="461" d="M248 513q29 0 53 -9l25 71h49l-34 -95q74 -64 74 -227q0 -55 -10 -100t-32.5 -83t-62.5 -59t-95 -21q-25 0 -47 8l-28 -79h-48l36 102q-40 33 -61 95t-21 137q0 31 3 58.5t15 67t32 67t59.5 47.5t92.5 20zM127 253q0 -98 29 -154l122 342q-18 12 -41 12q-38 0 -73 -16 q-37 -55 -37 -184zM335 253q0 91 -24 145l-121 -339q19 -13 41 -13q39 0 67 21q37 70 37 186z" />
<glyph unicode="&#xf9;" horiz-adv-x="478" d="M403 504v-506q-18 -7 -36 -7t-22.5 7t-16.5 54q-6 -7 -18 -17.5t-47 -27.5t-70 -17q-71 0 -97 39.5t-26 124.5v345q27 5 40 5q25 0 30 -6.5t5 -40.5v-309q0 -52 14 -73t49 -21q60 2 119 54v396h76zM183 723l147 -130l-28 -26l-102 62q-49 30 -49 51q0 16 32 43z" />
<glyph unicode="&#xfa;" horiz-adv-x="478" d="M403 504v-506q-18 -7 -36 -7t-22.5 7t-16.5 54q-6 -7 -18 -17.5t-47 -27.5t-70 -17q-71 0 -97 39.5t-26 124.5v345q27 5 40 5q25 0 30 -6.5t5 -40.5v-309q0 -52 14 -73t49 -21q60 2 119 54v396h76zM144 593l147 130q32 -26 32 -43q0 -21 -49 -51l-102 -62z" />
<glyph unicode="&#xfb;" horiz-adv-x="478" d="M403 504v-506q-18 -7 -36 -7t-22.5 7t-16.5 54q-6 -7 -18 -17.5t-47 -27.5t-70 -17q-71 0 -97 39.5t-26 124.5v345q27 5 40 5q25 0 30 -6.5t5 -40.5v-309q0 -52 14 -73t49 -21q60 2 119 54v396h76zM93 608l143 81l1 1l144 -82q-5 -19 -17.5 -30.5t-23.5 -11.5 q-9 0 -27 13l-76 59l-78 -60q-15 -11 -25 -12h-2q-10 0 -21 10q-12 12 -18 32z" />
<glyph unicode="&#xfc;" horiz-adv-x="478" d="M403 504v-506q-18 -7 -36 -7t-22.5 7t-16.5 54q-6 -7 -18 -17.5t-47 -27.5t-70 -17q-71 0 -97 39.5t-26 124.5v345q27 5 40 5q25 0 30 -6.5t5 -40.5v-309q0 -52 14 -73t49 -21q60 2 119 54v396h76zM96 640q0 35 55 35q32 0 32 -38q0 -36 -55 -36q-32 0 -32 39zM293 640 q0 35 56 35q30 0 30 -38q0 -36 -54 -36q-32 0 -32 39z" />
<glyph unicode="&#xfd;" horiz-adv-x="415" d="M124 593l147 130q32 -26 32 -43q0 -21 -49 -51l-102 -62zM152 0l-133 499q25 6 48 6q22 0 32 -11t19 -51l88 -382h15l103 443h77l-142 -555q-15 -57 -46 -82t-94 -25q-45 0 -78 13l5 56q31 -7 72 -7q49 0 70 10l18 86h-54z" />
<glyph unicode="&#xfe;" horiz-adv-x="473" d="M74 663q26 6 43 6q20 0 26 -7.5t6 -35.5v-164q61 51 133 51q30 0 53.5 -10t45.5 -36.5t34 -80.5t12 -134q0 -118 -45.5 -190t-120.5 -72q-69 0 -112 47v-185h-75v811zM344 255q0 103 -21.5 148.5t-68.5 45.5q-26 0 -56.5 -13.5t-48.5 -28.5v-307q15 -16 44 -31t56 -15 q43 0 70 16q25 70 25 185z" />
<glyph unicode="&#xff;" horiz-adv-x="415" d="M152 0l-133 499q25 6 48 6q22 0 32 -11t19 -51l88 -382h15l103 443h77l-142 -555q-15 -57 -46 -82t-94 -25q-45 0 -78 13l5 56q31 -7 72 -7q49 0 70 10l18 86h-54zM72 640q0 35 55 35q32 0 32 -38q0 -36 -55 -36q-32 0 -32 39zM269 640q0 35 56 35q30 0 30 -38 q0 -36 -54 -36q-32 0 -32 39z" />
<glyph unicode="&#x152;" horiz-adv-x="684" d="M461 291q-5 -157 -67 -233l269 4v-40q-1 -16 -6.5 -19t-26.5 -3h-203q-35 0 -47.5 5.5t-14.5 23.5q-52 -39 -125 -39q-90 0 -145 84.5t-55 231.5q0 65 12 121.5t37 104.5t70.5 76t106.5 28q55 0 98 -31v21h301q1 -14 1 -32q0 -19 -6.5 -23t-28.5 -4l-232 2 q57 -76 62 -221h173q1 -20 1 -30v-7q-1 -11 -5 -15.5t-9 -5.5t-18 -1zM379 314q0 129 -28 194t-99 65q-21 0 -43.5 -7t-34.5 -14l-13 -7q-4 -8 -10 -23.5t-16.5 -74.5t-10.5 -131q0 -264 132 -264q25 0 50 10t38 20l12 9q23 81 23 223z" />
<glyph unicode="&#x153;" horiz-adv-x="698" d="M248 513q41 0 74.5 -20t51.5 -51q48 71 136 71q82 0 118 -62q27 -48 27 -152q0 -29 -2 -63h-245q0 -185 115 -185q34 0 90 17q17 5 22 -3.5t7 -42.5q-51 -32 -142 -32q-88 0 -130 78q-51 -78 -155 -78q-79 0 -124 76t-45 187q0 30 3 58t15 67t32.5 67t59.5 48t92 20z M231 46q38 0 67 21q37 70 37 186q0 200 -98 200q-16 0 -34.5 -4t-28.5 -8l-10 -4q-37 -55 -37 -184q0 -99 29 -153t75 -54zM580 294v17q0 76 -17 109q-19 35 -62 35q-18 0 -35.5 -5.5t-25.5 -11.5l-9 -6q-23 -55 -23 -147z" />
<glyph unicode="&#x178;" horiz-adv-x="428" d="M178 210l-160 408q22 8 47 8t35.5 -6.5t18.5 -32.5l99 -314h6l113 353h73l-154 -413v-213h-78v210zM79 730q0 35 55 35q32 0 32 -38q0 -36 -55 -36q-32 0 -32 39zM276 730q0 35 56 35q30 0 30 -38q0 -36 -54 -36q-32 0 -32 39z" />
<glyph unicode="&#x2c6;" horiz-adv-x="380" d="M46 628l143 81l1 1l144 -82q-5 -19 -17.5 -30.5t-23.5 -11.5q-9 0 -27 13l-76 59l-78 -60q-15 -11 -25 -12h-2q-10 0 -21 10q-12 12 -18 32z" />
<glyph unicode="&#x2dc;" horiz-adv-x="380" d="M59 583q-30 17 -30 32q0 16 32 45.5t58 29.5q27 0 65.5 -12t63.5 -24l25 -11q28 18 55 55q24 -17 24 -32q0 -17 -30.5 -46.5t-60.5 -29.5q-26 0 -63.5 12t-62.5 24l-25 12q-28 -15 -51 -55z" />
<glyph unicode="&#x2000;" horiz-adv-x="412" />
<glyph unicode="&#x2001;" horiz-adv-x="824" />
<glyph unicode="&#x2002;" horiz-adv-x="412" />
<glyph unicode="&#x2003;" horiz-adv-x="824" />
<glyph unicode="&#x2004;" horiz-adv-x="274" />
<glyph unicode="&#x2005;" horiz-adv-x="206" />
<glyph unicode="&#x2006;" horiz-adv-x="137" />
<glyph unicode="&#x2007;" horiz-adv-x="137" />
<glyph unicode="&#x2008;" horiz-adv-x="103" />
<glyph unicode="&#x2009;" horiz-adv-x="164" />
<glyph unicode="&#x200a;" horiz-adv-x="45" />
<glyph unicode="&#x2010;" horiz-adv-x="309" d="M43 262q-3 16 -3 27q0 37 37 37h189q3 -15 3 -26q0 -38 -36 -38h-190z" />
<glyph unicode="&#x2011;" horiz-adv-x="309" d="M43 262q-3 16 -3 27q0 37 37 37h189q3 -15 3 -26q0 -38 -36 -38h-190z" />
<glyph unicode="&#x2013;" horiz-adv-x="459" d="M43 262q-3 16 -3 27q0 37 37 37h339q3 -15 3 -26q0 -38 -36 -38h-340z" />
<glyph unicode="&#x2014;" horiz-adv-x="595" d="M43 262q-3 16 -3 27q0 37 37 37h475q3 -15 3 -26q0 -38 -36 -38h-476z" />
<glyph unicode="&#x2018;" horiz-adv-x="232" d="M53 476q0 82 75 160q3 0 5 -1q27 -4 27 -19q0 -7 -4 -15q-34 -66 -34 -104q19 0 31 -11t12 -32q0 -22 -14.5 -36t-39.5 -14q-58 0 -58 72z" />
<glyph unicode="&#x2019;" horiz-adv-x="232" d="M61 586q0 22 14.5 36t39.5 14q58 0 58 -72q0 -82 -75 -160q-3 0 -5 1q-27 4 -27 19q0 7 4 15q34 66 34 104q-19 0 -31 11t-12 32z" />
<glyph unicode="&#x201a;" horiz-adv-x="232" d="M66 -124q0 7 4 15q34 66 34 104q-19 0 -31 11t-12 32q0 22 14.5 36t39.5 14q58 0 58 -72q0 -82 -75 -160q-4 0 -5 1q-27 4 -27 19z" />
<glyph unicode="&#x201c;" horiz-adv-x="423" d="M53 476q0 82 75 160q1 0 3.5 -0.5t3.5 -0.5q25 -4 25 -19q0 -7 -4 -15q-34 -66 -34 -104q19 0 31 -11t12 -32q0 -22 -14.5 -36t-39.5 -14q-58 0 -58 72zM253 476q0 82 75 160q1 0 3 -0.5t3 -0.5q26 -4 26 -19q0 -7 -4 -15q-34 -66 -34 -104q19 0 31 -11t12 -32 q0 -22 -14.5 -36t-39.5 -14q-58 0 -58 72z" />
<glyph unicode="&#x201d;" horiz-adv-x="423" d="M61 586q0 22 14.5 36t39.5 14q58 0 58 -72q0 -82 -75 -160q-3 0 -5 1q-27 4 -27 19q0 7 4 15q34 66 34 104q-19 0 -31 11t-12 32zM261 586q0 22 14.5 36t39.5 14q58 0 58 -72q0 -82 -75 -160q-4 0 -6 1q-26 4 -26 19q0 7 4 15q34 66 34 104q-19 0 -31 11t-12 32z" />
<glyph unicode="&#x201e;" horiz-adv-x="423" d="M57 38q0 22 14.5 36t39.5 14q58 0 58 -72q0 -82 -75 -160q-3 0 -5 1q-27 4 -27 19q0 7 4 15q34 66 34 104q-19 0 -31 11t-12 32zM257 38q0 22 14.5 36t39.5 14q58 0 58 -72q0 -82 -75 -160q-3 0 -5 1q-27 4 -27 19q0 7 4 15q34 66 34 104q-19 0 -31 11t-12 32z" />
<glyph unicode="&#x2022;" horiz-adv-x="250" d="M237 329q0 -53 -35 -82t-99 -29q-47 0 -68.5 34.5t-21.5 79.5q0 55 32.5 87.5t102.5 32.5q89 0 89 -123z" />
<glyph unicode="&#x2026;" horiz-adv-x="757" d="M53 46q0 49 68 49q40 0 40 -53q0 -48 -68 -48q-40 0 -40 52zM328 46q0 49 68 49q40 0 40 -53q0 -48 -68 -48q-40 0 -40 52zM596 46q0 49 68 49q40 0 40 -53q0 -48 -68 -48q-40 0 -40 52z" />
<glyph unicode="&#x202f;" horiz-adv-x="164" />
<glyph unicode="&#x2039;" horiz-adv-x="300" d="M49 300l166 203q29 -15 29 -36q0 -17 -55 -79l-81 -88l81 -88q55 -62 55 -79q0 -21 -29 -36z" />
<glyph unicode="&#x203a;" horiz-adv-x="300" d="M254 298l-166 -203q-29 15 -29 36q0 17 55 79l81 88l-81 88q-55 62 -55 79q0 21 29 36z" />
<glyph unicode="&#x2044;" horiz-adv-x="260" d="M5 0l184 585h65q-172 -546 -183 -585h-66z" />
<glyph unicode="&#x205f;" horiz-adv-x="206" />
<glyph unicode="&#x20ac;" d="M6 286v55h62q3 80 23.5 138.5t54 92t74.5 49t91 15.5q65 0 113 -35q-5 -54 -27 -54q-4 0 -34.5 13.5t-72.5 13.5q-46 0 -90 -25q-5 -6 -12 -19.5t-20.5 -67t-15.5 -121.5h237v-55h-237q8 -234 157 -234q52 0 92 33l21 -51q-55 -44 -136 -44q-210 0 -218 296h-62z" />
<glyph unicode="&#x2122;" horiz-adv-x="551" d="M334 389l-45 192v-244h-44v289h75l49 -220l50 220h75v-289q-21 -3 -24 -3q-14 0 -18 4.5t-4 19.5v224q-38 -168 -48 -216q-24 -5 -33 -5q-16 0 -22 4.5t-11 23.5zM92 593l-57 -2q-1 8 -1 22q0 9 3 11q4 2 20 2h143v-18q0 -12 -4 -14.5t-20 -2.5l-37 1v-256h-47v257z" />
</font>
</defs>
</svg>
