<?xml version="1.0" standalone="no"?>
<!DOCTYPE svg PUBLIC "-//W3C//DTD SVG 1.1//EN" "http://www.w3.org/Graphics/SVG/1.1/DTD/svg11.dtd" >
<svg xmlns="http://www.w3.org/2000/svg">
<metadata>
This is a custom SVG webfont generated by Font Squirrel.
Designer    : Cesar Puertas
Foundry     : Cesar Puertas
Foundry URL : www.myfonts.com
</metadata>
<defs>
<font id="webfontjOdXD9R2" horiz-adv-x="452" >
<font-face units-per-em="1000" ascent="750" descent="-250" />
<missing-glyph horiz-adv-x="187" />
<glyph unicode=" "  horiz-adv-x="187" />
<glyph unicode="&#x09;" horiz-adv-x="187" />
<glyph unicode="&#xa0;" horiz-adv-x="187" />
<glyph unicode="!" horiz-adv-x="243" d="M57 57q0 61 79 61q52 0 52 -65q0 -60 -79 -60q-52 0 -52 64zM162 201h-75l-21 464q28 5 55 5q40 0 53 -16q10 -15 10 -48v-11z" />
<glyph unicode="&#x22;" horiz-adv-x="441" d="M49 576q0 28 19 45t51 17q71 0 71 -86q0 -43 -24 -91.5t-67 -86.5q-2 0 -6 2q-37 10 -37 29q0 9 6 18q38 69 38 99q-22 1 -36.5 14.5t-14.5 39.5zM259 576q0 28 19 45t50 17q71 0 71 -86q0 -43 -24 -91.5t-66 -86.5q-3 0 -7 2q-36 9 -36 29q0 11 5 18q38 69 38 99 q-22 1 -36 14.5t-14 39.5z" />
<glyph unicode="#" horiz-adv-x="449" d="M116 366l-80 -5q-2 20 -2 23q0 22 10 30q9 6 31 6h6l41 -2l11 165q13 3 35 3q21 0 28 -9q5 -6 5 -18q0 -7 -1 -15l-20 -127h108l12 166q14 3 35 3t28 -9q4 -6 4 -18q0 -6 -1 -15l-20 -128l85 4q2 -20 2 -26q-1 -20 -11 -27q-10 -6 -32 -6h-6l-22 1q-23 2 -24 2l-18 -155 l91 2q2 -18 2 -26q-1 -21 -11 -27q-9 -6 -30 -6h-7q-1 0 -25 2t-25 2l-9 -163q-16 -3 -34 -3q-19 0 -26 10q-4 7 -4 22v10l16 127h-105l-14 -166q-17 -3 -34 -3q-19 0 -26 9q-5 6 -5 20q0 6 1 13l18 127l-77 -5q-2 14 -2 23q0 22 10 29q9 7 32 7h6l39 -2zM282 367h-109 l-16 -159h107z" />
<glyph unicode="$" horiz-adv-x="456" d="M193 -91v81h-6q-40 0 -74.5 9.5t-47.5 16.5t-19 12v7q0 37 10 55q11 19 26 19q11 0 51 -15.5t74 -15.5q40 0 66 13q21 29 21 67q0 13 -2 22t-9.5 24.5t-28.5 31.5t-54 31q-84 39 -117.5 82t-33.5 95q0 67 37.5 119t109.5 68v93h74v-88q53 -2 118 -26q-9 -85 -39 -85 q-5 0 -40 10t-65 10q-44 0 -71 -15q-1 -1 -4.5 -8t-7.5 -22.5t-4 -31.5q0 -53 105 -105q87 -40 114.5 -81t27.5 -94q0 -75 -36.5 -123.5t-101.5 -65.5v-90h-73z" />
<glyph unicode="%" d="M128 589q93 0 93 -146q0 -141 -119 -141q-46 0 -71 42t-25 105q0 140 122 140zM72 446q0 -78 41 -83q19 0 30 5q14 28 14 78q0 79 -40 83q-17 0 -31 -6q-14 -30 -14 -77zM49 0l283 587h71l-283 -587h-71zM350 278q93 0 93 -146q0 -140 -119 -140q-46 0 -71 41.5 t-25 104.5q0 140 122 140zM295 135q0 -79 40 -83q17 0 31 6q13 30 13 78q0 78 -40 82q-19 0 -30 -5q-14 -28 -14 -78z" />
<glyph unicode="&#x26;" horiz-adv-x="548" d="M155 192q0 -115 111 -115q46 0 71 17q28 43 28 120q0 38 -11 78t-11 43q0 26 23 28l175 14q8 -27 8 -44q0 -38 -49 -38h-7l-52 -2q0 -1 3.5 -7t8 -16t9 -22.5t7.5 -29.5t3 -34q0 -93 -64 -143.5t-155 -50.5q-88 0 -149 46.5t-61 137.5q0 100 96 161q-73 41 -73 127 q0 85 56.5 130t140.5 45q91 0 146 -35q-8 -38 -16.5 -53t-23.5 -15q-4 0 -39.5 11t-68.5 11q-44 0 -70 -8q-24 -34 -24 -80q0 -53 27.5 -77.5t95.5 -24.5q1 -7 1 -14q0 -25 -15 -48q-10 -1 -23 -1q-17 0 -38 2q-24 -16 -42 -45.5t-18 -67.5z" />
<glyph unicode="'" horiz-adv-x="239" d="M99 374l-2 1q-41 10 -41 30q0 9 6 18q38 69 38 99q-22 1 -36.5 14.5t-14.5 39.5q0 28 19 45t51 17q71 0 71 -86q0 -43 -24 -91.5t-67 -86.5z" />
<glyph unicode="(" horiz-adv-x="281" d="M66 291v1q0 86 12.5 157t29.5 114.5t40.5 77.5t40.5 49t35 25q45 -18 45 -48q0 -9 -17 -28.5t-37 -48t-37 -107t-17 -191.5t17 -192t37 -107.5t37 -48t17 -28.5q0 -30 -45 -48q-18 10 -35 25t-40.5 49t-40.5 77.5t-29.5 114.5t-12.5 157z" />
<glyph unicode=")" horiz-adv-x="281" d="M120 292q0 92 -11 161t-27 104t-32.5 56.5t-27.5 33t-11 20.5q0 30 45 48q23 -13 45.5 -36.5t50.5 -70t45.5 -128.5t17.5 -188v-1q0 -106 -17.5 -188t-45.5 -128.5t-50.5 -70t-45.5 -36.5q-45 18 -45 48q0 9 11 20.5t27.5 33.5t32.5 56.5t27 104t11 161.5z" />
<glyph unicode="*" horiz-adv-x="414" d="M69 367q-16 16 -22 28q-10 16 -6.5 27.5t23.5 20.5l89 43l-118 59q0 14 12 33q11 19 27 19q10 0 23 -9l82 -55l-7 132q15 5 35 5q19 0 27 -9q6 -7 6 -23v-8l-7 -98l110 74q12 -12 20 -26q10 -15 10 -25q0 -2 -1 -5q-3 -10 -23 -19l-90 -45l119 -58q0 -10 -12 -30 q-10 -20 -20 -22.5t-29 9.5q-84 55 -84 56l8 -134q-16 -4 -32 -4q-23 0 -30 7.5t-6 29.5q7 99 7 100z" />
<glyph unicode="+" d="M67 343l120 -2l-4 185q18 3 40 3q29 0 37 -9q8 -7 8 -30v-6l-2 -143l162 4q4 -16 4 -38q0 -28 -8 -35t-31 -7h-6l-120 1l4 -184q-16 -4 -41 -4q-29 0 -37 8.5t-8 36.5l2 144l-161 -4q-4 15 -4 37q0 28 8.5 35.5t36.5 7.5z" />
<glyph unicode="," horiz-adv-x="238" d="M93 -148q-37 11 -37 30q0 8 6 18q38 69 38 99q-22 1 -36.5 14.5t-14.5 38.5q0 28 19 45.5t51 17.5q71 0 71 -86q0 -43 -24 -91.5t-67 -86.5l-3 1h-3z" />
<glyph unicode="-" horiz-adv-x="320" d="M39 245q-4 20 -4 37q0 51 46 51h200q4 -19 4 -35q0 -53 -47 -53h-199z" />
<glyph unicode="." horiz-adv-x="238" d="M53 60q0 62 81 62q31 0 43.5 -16t12.5 -51q0 -62 -83 -62q-54 0 -54 67z" />
<glyph unicode="/" horiz-adv-x="325" d="M27 -150l186 822h89l-187 -822h-88z" />
<glyph unicode="0" d="M140 316q0 -240 86 -240q34 0 61 27l3 12q2 12 5.5 29.5t7 40.5t5.5 54.5t2 63.5q0 143 -18 194.5t-66 51.5q-9 0 -18 -2t-16 -5l-12 -7l-10 -5l-3 -2q-27 -94 -27 -212zM29 318q0 319 200 319q109 0 151.5 -78.5t42.5 -252.5q0 -54 -8 -103t-27.5 -100.5t-61 -82 t-100.5 -30.5q-105 0 -151 84t-46 244z" />
<glyph unicode="1" d="M326 627v-542l95 2q4 -32 4 -41q0 -26 -13 -36t-46 -10h-276q-5 28 -5 42q0 25 12 35t43 10l77 -1v443l-25 -15q-14 -8 -22.5 -13.5t-18 -11t-15 -9t-12.5 -6.5l-10 -6l-8 -4q-4 -2 -6.5 -3t-5 -1.5t-4.5 -0.5q-31 0 -42 76l171 92h107z" />
<glyph unicode="2" d="M394 463q0 -68 -41 -131.5t-100 -111.5q-52 -46 -68.5 -73.5t-19.5 -63.5l239 5q4 -20 4 -39q0 -28 -13 -38.5t-45 -10.5h-284q-11 36 -11 85t29.5 94.5t84.5 99.5q110 108 110 180q0 87 -79 87q-30 0 -71.5 -23.5t-54.5 -23.5q-27 0 -35 69q78 69 173 69q86 0 134 -43 t48 -131z" />
<glyph unicode="3" d="M203 80q44 0 71 18q23 35 23 86q0 53 -22.5 74t-72.5 21q-44 0 -82 -9q-9 15 -9 46q0 26 5 43q12 -2 49 -2q49 0 82 13q28 40 28 92q0 85 -83 85q-31 0 -70.5 -15t-44.5 -15q-29 0 -35 72q81 48 171 48q175 0 175 -156q0 -44 -21 -83t-48 -60q93 -32 93 -153 q0 -89 -59 -142t-151 -53q-110 0 -170 55q14 68 43 68q4 0 41.5 -16.5t86.5 -16.5z" />
<glyph unicode="4" d="M132 191l116 7v341h-23q-39 -88 -64.5 -185.5t-28.5 -162.5zM177 627h174v-423q4 0 19 1t17 1h5q25 0 36 -8q11 -10 11 -37q0 -9 -6 -53h-82v-108h-103v108h-170q-44 0 -44 70q0 64 34 181t109 268z" />
<glyph unicode="5" d="M45 42q10 67 40 67q3 0 40 -16t80 -16q42 0 69 15q24 42 24 106q0 65 -22.5 91.5t-73.5 26.5q-61 0 -127 -14v249q0 48 12.5 62t50.5 14h255q4 -21 4 -40q0 -26 -12.5 -34.5t-44.5 -8.5h-165l-4 -155q36 9 78 9q84 0 124 -44.5t40 -140.5q0 -102 -57 -162.5t-149 -60.5 q-45 0 -84 12t-54 21.5t-24 18.5z" />
<glyph unicode="6" d="M230 78q40 0 60 18q23 36 23 95q0 60 -18.5 82t-63.5 22q-41 0 -91 -15q0 -202 90 -202zM258 384q74 0 116.5 -39t42.5 -136t-52.5 -158t-143.5 -61q-93 0 -142 82t-49 233q0 170 66 251t168 81q67 0 118 -23v-13q0 -66 -38 -66q-8 0 -36 6t-50 6q-18 0 -35 -3.5 t-25 -7.5l-9 -3l-3 -5l-7 -12l-9 -18q-6 -10 -11 -24.5t-9 -31t-6.5 -38.5t-2.5 -45q53 25 117 25z" />
<glyph unicode="7" d="M319 542h-174q4 -109 4 -118q0 -20 -13 -30q-14 -10 -39 -10q-29 0 -48 9v234h365q12 -30 12 -64q0 -11 -1 -22q-69 -125 -108 -270t-46 -271h-117q4 115 55 279.5t110 262.5z" />
<glyph unicode="8" d="M148 472q0 -87 103 -106q49 49 49 105q0 91 -75 91q-9 0 -17.5 -1.5t-14.5 -3.5t-12 -5t-9 -5l-6 -4l-2 -2l-2 -3q-1 -4 -3.5 -10.5t-5 -14.5t-4 -19t-1.5 -22zM192 276q-50 -36 -50 -93q0 -7 1 -15q2 -42 24 -68q21 -24 56 -24h3q39 0 63 24q0 1 5 13.5t8 34.5 q2 11 2 23q0 11 -1 22q-1 38 -26 56t-85 27zM125 324l-6 4q-6 4 -11 8l-12 11q-8 7 -14 14.5t-13 18.5t-12 22t-8 26t-3 30q0 52 19 89.5t49 55.5t58.5 26t55.5 8q175 0 175 -159q0 -36 -19 -72t-33.5 -51t-25.5 -24l6 -3q6 -4 11 -6.5t13 -8.5t15 -12t15 -14.5t14 -18.5 t11 -21.5t8 -26t3 -29.5q0 -84 -53.5 -142.5t-148.5 -58.5q-82 0 -136 45.5t-54 134.5q0 16 3 31t8 28t11.5 24t14.5 20.5t15 16.5t15 13.5t13 10t11 6.5z" />
<glyph unicode="9" d="M218 549q-29 0 -54 -16q-21 -35 -21 -105q0 -56 18.5 -80.5t59.5 -24.5q10 0 22 2t22.5 4.5t19 5t13.5 4.5l6 2q0 106 -18 157t-68 51zM254 90q50 67 50 171q-45 -27 -105 -27q-75 0 -120.5 44.5t-45.5 140.5q0 95 50 156.5t145 61.5q102 0 146 -78t44 -235 q0 -170 -63 -252t-172 -82q-77 0 -126 26q0 80 42 80q7 0 41 -7.5t58 -7.5q34 0 56 9z" />
<glyph unicode=":" horiz-adv-x="238" d="M52 60q0 62 82 62q30 0 42.5 -16t12.5 -51q0 -62 -83 -62q-54 0 -54 67zM52 439q0 61 82 61q30 0 42.5 -15.5t12.5 -49.5q0 -64 -83 -64q-54 0 -54 68z" />
<glyph unicode=";" horiz-adv-x="238" d="M52 439q0 61 82 61q30 0 42.5 -15.5t12.5 -49.5q0 -64 -82 -64q-55 0 -55 68zM93 -148h3l3 -1q43 38 67 86.5t24 91.5q0 86 -71 86q-32 0 -51 -17.5t-19 -45.5q0 -25 14.5 -38.5t36.5 -14.5q0 -30 -38 -99q-6 -10 -6 -18q0 -19 37 -30z" />
<glyph unicode="&#x3c;" horiz-adv-x="449" d="M45 290l281 262q52 -24 52 -60q0 -20 -22 -40q-9 -8 -99.5 -82t-98.5 -80q2 -2 96 -79t102 -84q22 -20 22 -40q0 -36 -52 -60z" />
<glyph unicode="=" d="M360 345h-312q-4 20 -4 37q0 28 11.5 37.5t36.5 9.5h313q4 -19 4 -36q0 -28 -12 -38t-37 -10zM360 153h-312q-4 21 -4 38q0 27 11.5 36.5t36.5 9.5h313q4 -19 4 -35q0 -28 -12 -38.5t-37 -10.5z" />
<glyph unicode="&#x3e;" horiz-adv-x="449" d="M119 552l282 -262l-282 -263q-21 9 -36 25t-15 35q0 21 22 40q9 8 99 82l99 81q-7 4 -97.5 78.5t-100.5 83.5q-22 19 -22 40q0 19 15 35t36 25z" />
<glyph unicode="?" horiz-adv-x="395" d="M108 55q0 62 79 62q28 0 40 -16t12 -50q0 -60 -79 -60q-52 0 -52 64zM135 198q-10 31 -10 76q0 37 13.5 68t33 51.5t39 39t33 40.5t13.5 46q0 64 -73 64q-32 -1 -68 -21t-41 -20q-31 0 -39 65q24 25 68 45.5t98 20.5q79 -1 124 -38.5t45 -103.5q0 -40 -15.5 -72 t-37.5 -53l-44 -42q-23 -20 -38.5 -48t-15.5 -62q0 -33 -9 -47.5t-32 -14.5q-30 0 -44 6z" />
<glyph unicode="@" horiz-adv-x="770" d="M309 265q0 -147 60 -147q27 0 49.5 21t36.5 53v196q-33 25 -73 25q-32 0 -53 -14q-20 -43 -20 -134zM215 262q0 225 150 225q59 0 93 -37q17 37 52 37q19 0 32 -11v-304q0 -22 11 -37.5t30 -15.5h1q34 0 52 47q17 47 17 118q0 87 -11 142t-40 95t-81 57t-133 17 q-52 0 -108 -17.5t-85 -39.5q-80 -101 -81 -275q0 -171 72 -254.5t191 -83.5q53 0 92 13q10 -23 10 -50q0 -7 -1 -14q-43 -18 -111 -18q-161 0 -249.5 106.5t-88.5 295.5q0 191 96 302t279 111q185 0 261.5 -93.5t76.5 -284.5q0 -123 -46 -187.5t-121 -64.5q-43 0 -70.5 23 t-34.5 62q-14 -35 -48 -60.5t-72 -25.5q-62 0 -98 55.5t-37 166.5z" />
<glyph unicode="A" horiz-adv-x="462" d="M324 57l-13 73h-166l-24 -130h-108q-1 0 34 157l71 313l35 157h164l132 -622q-23 -10 -58 -10t-48.5 12t-18.5 50zM222 535l-62 -326h136l-59 326h-15z" />
<glyph unicode="B" horiz-adv-x="478" d="M226 -10q-93 0 -162 24v613h165q104 0 152.5 -36.5t48.5 -115.5q0 -44 -23.5 -84.5t-57.5 -61.5q43 -14 71.5 -51t28.5 -88q0 -95 -63.5 -147.5t-159.5 -52.5zM281 286h-110v-207q26 -11 68 -11q40 0 69 18q30 39 30 97q0 80 -57 103zM232 549h-61v-191h111q47 37 47 104 q0 87 -97 87z" />
<glyph unicode="C" horiz-adv-x="415" d="M32 316q0 166 68 243.5t182 77.5q78 0 118 -32q-4 -78 -39 -78q-6 0 -34 9t-62 9q-45 0 -78 -20q-40 -69 -40 -213q0 -229 137 -229q54 0 92 30l23 -79q-54 -44 -141 -44q-226 0 -226 326z" />
<glyph unicode="D" horiz-adv-x="503" d="M171 547v-462q20 -8 60 -8q52 0 84 26q43 79 43 215q0 125 -28.5 177t-99.5 52h-59zM64 8v619h187q118 0 169.5 -75.5t51.5 -225.5q0 -54 -8.5 -101.5t-28 -91.5t-49.5 -75t-76.5 -49.5t-104.5 -18.5q-84 0 -141 18z" />
<glyph unicode="E" horiz-adv-x="404" d="M172 280v-196l210 4q3 -20 3 -41q0 -28 -11 -37.5t-41 -9.5h-194q-52 0 -63.5 11t-11.5 59v557h319q3 -24 3 -41q0 -27 -11.5 -35t-42.5 -8l-160 2v-183h183q4 -19 4 -40q0 -26 -11 -36q-11 -8 -36 -8h-5z" />
<glyph unicode="F" horiz-adv-x="393" d="M173 259v-259h-109v627h307q4 -20 4 -40q0 -26 -11.5 -35t-42.5 -9l-148 2v-204h171q4 -32 4 -41q0 -26 -12 -35q-11 -8 -35 -8h-6z" />
<glyph unicode="G" horiz-adv-x="460" d="M32 312q0 159 63 242t186 83q93 0 144 -37q-4 -75 -39 -75q-7 0 -44.5 11t-72.5 11q-51 0 -84 -21q-18 -32 -28.5 -93t-10.5 -121q0 -233 135 -233q26 0 43 10v196h-83q-6 17 -6 41q0 23 11.5 33t37.5 10h141v-331q-66 -48 -166 -48q-227 0 -227 322z" />
<glyph unicode="H" horiz-adv-x="532" d="M172 0h-108v621q28 7 59 7q32 0 40.5 -12.5t8.5 -56.5v-202h188v264q26 7 57 7q34 0 42.5 -12.5t8.5 -56.5v-559h-108v275h-188v-275z" />
<glyph unicode="I" horiz-adv-x="337" d="M114 547l-88 -4q-4 34 -4 44q0 24 10.5 32t42.5 8h235q2 -32 2 -40q0 -24 -9 -33t-33 -9h-48v-466l89 5q3 -27 3 -43q0 -25 -10 -33t-42 -8h-235q-4 20 -4 40q0 23 10.5 32t37.5 9h43v466z" />
<glyph unicode="J" horiz-adv-x="341" d="M177 545l-124 -3q-4 23 -4 45q0 23 11 31.5t41 8.5h135q31 0 39.5 -11.5t8.5 -52.5v-381q0 -192 -172 -192q-42 0 -77 14q11 78 11 79q28 -8 53 -8q42 0 60 22.5t18 81.5v366z" />
<glyph unicode="K" horiz-adv-x="482" d="M345 627h118l-162 -299l174 -328h-133l-149 309zM172 558v-558h-108v621q32 7 58 7q33 0 41.5 -12.5t8.5 -57.5z" />
<glyph unicode="L" horiz-adv-x="354" d="M172 557v-472l174 4q4 -20 4 -41q0 -27 -11 -37.5t-39 -10.5h-236v621q32 7 58 7q34 0 42 -12.5t8 -58.5z" />
<glyph unicode="M" horiz-adv-x="683" d="M64 0v627h165l109 -447h11l106 447h164v-622q-27 -11 -52 -11q-30 0 -41 11q-9 10 -9 40v6l2 450h-11l-106 -441q-31 -11 -63 -11q-30 0 -45 13.5t-24 53.5l-98 386h-11l2 -502h-99z" />
<glyph unicode="N" horiz-adv-x="546" d="M64 0v627h159l153 -511h10l-1 511h97v-624q-42 -13 -86 -13q-42 0 -59.5 16t-31.5 65l-137 435h-9v-506h-95z" />
<glyph unicode="O" horiz-adv-x="510" d="M147 316q0 -115 26 -175t86 -60q50 0 84 31q21 63 21 202q0 118 -24 175t-84 57q-49 0 -77 -23q-32 -96 -32 -207zM32 310q0 68 12 124t38.5 103t75 73.5t115.5 26.5q205 0 205 -311q0 -336 -239 -336q-101 0 -154 84.5t-53 235.5z" />
<glyph unicode="P" horiz-adv-x="468" d="M228 281q51 0 78 22q25 39 25 117q0 69 -23 99.5t-79 30.5q-33 0 -58 -3v-259q21 -7 57 -7zM64 627h186q101 0 147.5 -48.5t46.5 -153.5q0 -106 -54.5 -166.5t-170.5 -60.5q-33 0 -48 3v-201h-107v627z" />
<glyph unicode="Q" horiz-adv-x="510" d="M32 310q0 68 12 124t38.5 103t75 73.5t115.5 26.5q205 0 205 -311q0 -223 -104 -298l136 -58q-18 -77 -54 -77q-27 0 -160 103q-27 -6 -57 -6q-101 0 -154 84.5t-53 235.5zM147 316q0 -115 26 -175t86 -60q50 0 84 31q21 63 21 202q0 118 -24 175t-84 57q-49 0 -77 -23 q-32 -96 -32 -207z" />
<glyph unicode="R" horiz-adv-x="478" d="M222 316q51 0 75 17q34 34 34 105q0 61 -23.5 87t-82.5 26q-28 0 -54 -2v-228q5 -5 51 -5zM64 0v627h193q186 0 186 -178q0 -60 -32 -107.5t-75 -65.5l118 -267q-26 -14 -68 -14q-30 0 -44 10t-24 38l-74 205q-12 -3 -36 -3q-9 0 -37 2v-247h-107z" />
<glyph unicode="S" horiz-adv-x="420" d="M38 449q0 78 51 133t150 55q81 0 137 -27q-6 -83 -43 -83q-8 0 -40 9t-62 9q-35 0 -71 -15q-16 -22 -16 -55q0 -64 105 -113q44 -20 74 -42.5t43.5 -46.5t18.5 -44t5 -45q0 -89 -56 -141.5t-150 -52.5q-97 0 -153 38q4 78 42 78q8 0 44.5 -14t69.5 -14q44 0 74 13 q20 22 20 67q0 12 -2 21t-9.5 25.5t-28 33t-53.5 31.5q-84 39 -116.5 82t-33.5 98z" />
<glyph unicode="T" horiz-adv-x="390" d="M138 548l-129 -5q-4 21 -4 43q0 25 11 33t43 8h323q3 -19 3 -39q0 -25 -11 -34q-10 -9 -34 -9h-5l-89 2v-547h-108v548z" />
<glyph unicode="U" horiz-adv-x="503" d="M55 180v441q31 7 58 7q33 0 42 -12.5t9 -57.5v-370q0 -59 20 -83t65 -24q54 0 90 26v520h108v-568q-91 -69 -213 -69q-97 0 -138 45.5t-41 144.5z" />
<glyph unicode="V" horiz-adv-x="478" d="M159 0l-145 621q30 7 62 7q34 0 46.5 -11.5t18.5 -46.5q1 -11 47 -236t47 -238h15l107 531h107l-148 -627h-157z" />
<glyph unicode="W" horiz-adv-x="756" d="M126 0l-112 621q24 7 60 7t48.5 -13t18.5 -59l65 -444h9l82 507q41 9 84 9q49 0 66.5 -14t25.5 -60l84 -442h8l71 515h106l-115 -627h-144l-100 515h-11l-92 -515h-154z" />
<glyph unicode="X" horiz-adv-x="455" d="M439 627l-147 -304l148 -315q-26 -10 -66 -10q-34 0 -49 12.5t-33 58.5l-68 168l-105 -237h-104l154 312l-147 306q29 11 68 11q34 0 47.5 -11t27.5 -48l73 -177l97 234h104z" />
<glyph unicode="Y" horiz-adv-x="442" d="M170 205l-158 413q31 11 71 11q32 0 44.5 -10.5t20.5 -45.5l79 -276h4l97 330h102l-152 -418v-209h-108v205z" />
<glyph unicode="Z" horiz-adv-x="421" d="M391 536l-249 -456l251 6q6 -26 6 -45q0 -23 -12.5 -32t-42.5 -9h-308q-13 46 -13 82l255 463l-195 -3q-30 0 -42.5 10.5t-12.5 34.5q0 19 7 40h342q14 -28 14 -91z" />
<glyph unicode="[" horiz-adv-x="281" d="M171 633v-670q42 2 58 2q27 0 38 -10t11 -34q0 -15 -3 -31h-194v816h194q3 -16 3 -31q0 -24 -11 -34t-38 -10q-16 0 -58 2z" />
<glyph unicode="\" horiz-adv-x="325" d="M297 -154h-88l-176 824h88z" />
<glyph unicode="]" horiz-adv-x="281" d="M111 -37v670q-42 -2 -58 -2q-26 0 -37.5 10t-11.5 34q0 15 3 31h194v-816h-194q-3 16 -3 31q0 24 11.5 34t37.5 10q16 0 58 -2z" />
<glyph unicode="^" horiz-adv-x="409" d="M51 626l151 84l4 1l152 -85q-5 -28 -20 -41.5t-29 -13.5q-12 0 -34 16l-70 56q-66 -52 -72 -57q-22 -15 -33 -15h-2q-13 0 -26 13q-15 13 -21 42z" />
<glyph unicode="_" horiz-adv-x="547" d="M39 -116q-4 19 -4 37q0 50 46 50h427q4 -17 4 -35q0 -52 -47 -52h-426z" />
<glyph unicode="`" horiz-adv-x="409" d="M147 744l156 -137l-39 -35q-21 8 -104 60q-52 33 -52 59t39 53z" />
<glyph unicode="a" horiz-adv-x="429" d="M127 145q0 -73 53 -73q46 0 88 35v122q-83 -6 -129 -21q-12 -26 -12 -63zM371 -3q-23 -7 -49 -7q-23 0 -33 11.5t-15 43.5q-51 -55 -131 -55q-54 0 -84.5 38t-30.5 101q0 82 52.5 119t187.5 44q0 89 -12.5 113.5t-60.5 24.5q-23 0 -64 -10t-50 -10q-35 0 -35 68 q77 35 166 35q88 0 123.5 -35.5t35.5 -130.5v-350z" />
<glyph unicode="b" horiz-adv-x="476" d="M328 251q0 96 -18 136t-59 40q-8 0 -16.5 -2t-16.5 -4.5t-15.5 -6t-14 -7t-11.5 -6.5t-8 -5l-3 -2v-283q3 -3 12.5 -10t30.5 -17t39 -10q14 0 28 3t21 6t8 4q3 6 8 25.5t10 59t5 79.5zM166 604v-141q6 6 19.5 15.5t45 22t62.5 12.5q68 0 107 -57t39 -204 q0 -119 -46 -190.5t-121 -71.5q-30 0 -57.5 12.5t-39.5 23t-18 18.5q-12 -36 -23 -45t-38 -9q-23 0 -34 4v667q35 8 54 8q33 0 41.5 -11.5t8.5 -53.5z" />
<glyph unicode="c" horiz-adv-x="350" d="M37 248q0 120 47 192.5t142 72.5q74 0 110 -27q0 -79 -32 -79q-4 0 -30 9.5t-49 9.5q-24 0 -49 -11q-30 -60 -30 -168q0 -87 25.5 -130.5t71.5 -43.5q45 0 81 22l13 -66q-49 -39 -122 -39q-87 0 -132.5 71t-45.5 187z" />
<glyph unicode="d" horiz-adv-x="469" d="M147 245q0 -169 76 -169q41 0 79 33v290q-26 19 -62 25q-13 3 -26 3q-23 0 -45 -8q-22 -51 -22 -174zM37 246q0 123 40 195t121 72q56 0 104 -31v181q24 7 55 7q33 0 41 -11.5t8 -54.5v-610q-17 -4 -48 -4q-21 0 -33 12.5t-19 44.5q-6 -8 -18.5 -19t-41 -24.5 t-59.5 -13.5q-74 0 -112 69t-38 187z" />
<glyph unicode="e" horiz-adv-x="422" d="M288 294q1 15 1 29q0 110 -66 110q-14 0 -28.5 -5t-20.5 -8.5t-8 -5.5q-21 -52 -21 -128zM37 256q0 113 48 185t145 72q82 0 119.5 -52.5t37.5 -169.5q0 -31 -3 -69h-238q5 -149 101 -149q33 0 65 9t36 9q14 0 20 -15t6 -53q-59 -33 -152 -33q-95 0 -140 74t-45 192z" />
<glyph unicode="f" horiz-adv-x="302" d="M21 495h68v40q0 89 34 123.5t119 35.5q55 0 106 -21q0 -66 -29 -66q-5 0 -28.5 4.5t-41.5 4.5q-34 0 -57 -9v-112h102v-75h-102v-420h-103v420h-68v75z" />
<glyph unicode="g" horiz-adv-x="469" d="M147 260q0 -89 17 -129.5t59 -40.5q46 0 79 36v263q-31 37 -80 37q-29 0 -53 -11q-22 -55 -22 -155zM197 -160q-74 0 -120 23l8 74q48 -17 112 -17q69 0 105 21v118q-41 -53 -115 -53q-70 0 -110 62.5t-40 190.5q0 127 42 190.5t115 63.5q72 0 117 -52q11 32 23.5 42 t41.5 10q5 0 10 -0.5t8.5 -1.5t6.5 -2t4 -1l1 -1v-502q0 -86 -51 -125.5t-158 -39.5z" />
<glyph unicode="h" horiz-adv-x="479" d="M63 0v662q26 9 50 9q37 0 45.5 -11.5t8.5 -53.5l1 -151q58 58 136 58q119 0 119 -140v-373h-104v358q0 67 -56 67q-57 0 -96 -43v-382h-104z" />
<glyph unicode="i" horiz-adv-x="229" d="M55 634q0 52 76 52q49 0 49 -55q0 -54 -76 -54q-49 0 -49 57zM167 0h-104v494q23 10 57 10q28 0 37.5 -10t9.5 -41v-453z" />
<glyph unicode="j" horiz-adv-x="229" d="M167 453v-469q0 -66 -36 -105t-112 -39q-41 0 -73 12l7 72q28 -4 54 -4q39 0 56 11v563q23 10 57 10q28 0 37.5 -10t9.5 -41zM53 634q0 52 75 52q26 0 37 -13.5t11 -41.5q0 -52 -74 -52q-49 0 -49 55z" />
<glyph unicode="k" horiz-adv-x="432" d="M169 605v-605h-106v662q30 8 57 8q33 0 41 -11t8 -54zM186 259l118 245h112l-129 -236l133 -268h-121z" />
<glyph unicode="l" horiz-adv-x="260" d="M62 106v555q27 9 55 9q32 0 40.5 -12t8.5 -53v-488q0 -48 40 -48q23 0 42 7l6 -66q-36 -20 -87 -20q-105 0 -105 116z" />
<glyph unicode="m" horiz-adv-x="723" d="M63 0v505q19 8 48 8q23 0 33 -10t21 -51q8 8 23.5 19.5t53 26.5t74.5 15q68 0 91 -61q7 7 25.5 19.5t57 27t74.5 14.5q64 0 82.5 -38t18.5 -121v-354h-104v342q0 25 -1 37t-5.5 24.5t-14.5 17t-28 4.5q-22 0 -54 -15t-43 -24v-386h-103v342q0 21 -0.5 30.5t-2.5 22.5 t-7 17.5t-14.5 8.5t-23.5 4q-11 0 -25.5 -4t-26.5 -9.5t-22 -11.5l-18 -10l-6 -4v-386h-103z" />
<glyph unicode="n" horiz-adv-x="481" d="M63 0v505q24 8 50 8q23 0 34 -11.5t19 -49.5q57 61 134 61q67 0 95 -36.5t28 -106.5v-370h-104v349q0 42 -13 59.5t-45 17.5q-51 0 -94 -43v-383h-104z" />
<glyph unicode="o" horiz-adv-x="460" d="M144 253q0 -92 23 -138t64 -46q31 0 56 17l2 5q2 5 4.5 12.5t5.5 18t6.5 24.5t6 30t4 36t1.5 41q0 178 -82 178q-30 0 -61 -14q-30 -51 -30 -164zM247 513q89 0 132.5 -69t43.5 -193q0 -119 -50 -190t-159 -71q-84 0 -130.5 74t-46.5 190q0 259 210 259z" />
<glyph unicode="p" horiz-adv-x="475" d="M328 252q0 74 -10.5 113.5t-26 50.5t-41.5 11q-16 0 -37 -8.5t-34 -16.5l-13 -7v-296q1 -2 11.5 -7t29.5 -10.5t36 -5.5q11 0 21.5 1t17.5 3l12 4q6 1 8 2l3 1q3 6 8 25t10 58.5t5 81.5zM438 254q0 -70 -15.5 -126.5t-56.5 -97t-103 -40.5q-61 0 -97 26v-164h-104v657 q28 4 52 4q38 -2 49 -56q8 8 21 18t44 24t60 14q81 0 115.5 -61.5t34.5 -197.5z" />
<glyph unicode="q" horiz-adv-x="476" d="M310 -148v189q-5 -6 -18.5 -16t-44.5 -22.5t-65 -12.5q-65 0 -105 55.5t-40 203.5q0 264 161 264q31 0 60.5 -10t41.5 -17.5t16 -11.5q13 26 23 32.5t40 6.5q11 0 34 -5v-656h-103zM147 251q0 -92 18 -133.5t59 -41.5q10 0 21 2.5t19.5 6t17.5 8t14.5 8t9.5 6.5l4 3 l-1 289q-1 2 -12 9t-32 14.5t-40 7.5q-8 0 -16.5 -1.5t-15 -3t-11.5 -3.5t-8 -4l-3 -1q-24 -72 -24 -166z" />
<glyph unicode="r" horiz-adv-x="296" d="M63 0v505q10 8 50 8q24 0 31 -16.5t14 -76.5q21 41 58 67t80 26q6 -23 6 -67q-1 -40 -23 -40q-72 0 -112 -56v-350h-104z" />
<glyph unicode="s" horiz-adv-x="370" d="M38 356q0 69 46.5 113t132.5 44q16 0 31.5 -2t27.5 -5l22 -6q8 -3 16 -6.5t9 -3.5q1 -8 -1 -21q-5 -56 -31 -56q-4 0 -30.5 7.5t-52.5 7.5q-14 0 -29 -2.5t-23.5 -5t-9.5 -3.5q-9 -15 -9 -40q0 -26 20 -41.5t80 -43.5q58 -23 81 -54t23 -85q0 -76 -50.5 -119.5 t-130.5 -43.5q-71 0 -125 31q0 5 0.5 13.5t0.5 12.5q8 49 28 49q6 0 37 -11t67 -11q19 0 35.5 3.5t23.5 7t8 4.5q9 16 9 45q0 25 -18.5 39.5t-64.5 34.5q-123 53 -123 148z" />
<glyph unicode="t" horiz-adv-x="309" d="M21 420v75h68v55q0 34 23 48q19 12 65 12h13v-115h103v-75h-103v-298q0 -30 11 -41.5t36 -11.5q20 0 48 7l10 -64q-44 -22 -103 -22q-106 0 -106 115v315h-65z" />
<glyph unicode="u" horiz-adv-x="479" d="M416 504v-502q-26 -11 -53 -11q-23 0 -31 9t-18 50q-6 -7 -20.5 -19t-47 -26.5t-64.5 -14.5q-68 0 -96 39t-28 120v350q36 6 52 6q33 0 42.5 -9t9.5 -47v-292q0 -43 12 -60.5t41 -17.5q22 0 47 11.5t35 19.5t15 13v381h104z" />
<glyph unicode="v" horiz-adv-x="417" d="M134 0l-120 498q21 7 55 7q38 0 50.5 -11t19.5 -54l71 -370h13l79 434h105l-121 -504h-152z" />
<glyph unicode="w" horiz-adv-x="663" d="M109 0l-93 498q26 8 61 8q32 0 43.5 -11.5t16.5 -51.5l53 -373h11l58 424q36 10 87 10q47 0 62.5 -11.5t21.5 -51.5l55 -373h9l57 436h100l-94 -504h-144l-70 420h-8l-73 -420h-153z" />
<glyph unicode="x" horiz-adv-x="375" d="M357 504l-112 -245l120 -249q-26 -12 -64 -12q-30 0 -43.5 11t-29.5 50l-49 117l-71 -176h-95l117 253l-117 243q35 11 65 11q27 0 41.5 -10t27.5 -46l50 -119l69 172h91z" />
<glyph unicode="y" horiz-adv-x="417" d="M139 0l-124 499q28 7 63 7q30 0 41.5 -12t19.5 -56l72 -367h9l83 433h105l-129 -541q-15 -63 -52 -93t-109 -30q-51 0 -88 15l7 74q36 -9 79 -9q48 0 71 10l15 70h-63z" />
<glyph unicode="z" horiz-adv-x="377" d="M350 408l-205 -326l205 3q4 -34 4 -42q0 -24 -9 -33.5t-31 -9.5h-268q-17 29 -17 87l214 336q-121 -3 -162 -3q-26 0 -37 9t-11 33q0 22 5 42h297q15 -34 15 -96z" />
<glyph unicode="{" horiz-adv-x="281" d="M39 242v105q37 10 57.5 35.5t20.5 58.5q0 43 -20.5 102t-20.5 82q0 42 35 64.5t95 22.5q45 0 79 -17q1 -63 -27 -63h-2q-6 0 -18 1.5t-19 2.5q-40 0 -64 -11q48 -98 48 -184q0 -99 -92 -126v-41q92 -27 92 -126q0 -86 -48 -184q24 -11 65 -11q7 1 19 2.5t17 1.5 q30 0 29 -64q-36 -16 -79 -16q-60 0 -95 22t-35 65q0 23 20.5 82t20.5 101q0 33 -20.5 58.5t-57.5 36.5z" />
<glyph unicode="|" horiz-adv-x="325" d="M204 -156h-76v825h76v-825z" />
<glyph unicode="}" horiz-adv-x="281" d="M254 347v-105q-37 -10 -57.5 -35.5t-20.5 -58.5q0 -43 20.5 -102t20.5 -82q0 -42 -35 -64.5t-95 -22.5q-45 0 -79 17q-1 63 27 63h2q6 0 18 -1.5t19 -2.5q40 0 64 11q-48 98 -48 184q0 99 92 126v41q-92 27 -92 126q0 86 48 184q-24 11 -65 11q-7 -1 -19 -2.5t-17 -1.5 q-30 0 -29 64q36 16 79 16q60 0 95 -22t35 -65q0 -23 -20.5 -82t-20.5 -101q0 -33 20.5 -58.5t57.5 -36.5z" />
<glyph unicode="~" horiz-adv-x="500" d="M125 567q-14 5 -28 17t-14 26q0 20 32 49t62 29q19 0 45.5 -7t45.5 -15l39 -15q19 -8 21 -9q27 17 52 54q13 -5 24.5 -18t11.5 -26q0 -22 -30 -50.5t-65 -28.5q-24 0 -61.5 12t-63.5 24l-25 12q-29 -16 -46 -54z" />
<glyph unicode="&#xa1;" horiz-adv-x="243" d="M198 451q0 -61 -79 -61q-52 0 -52 65q0 60 79 60q52 0 52 -64zM93 307h75l21 -463q-25 -6 -55 -6q-40 0 -52 16q-11 15 -11 48v11z" />
<glyph unicode="&#xa2;" horiz-adv-x="456" d="M305 -9v-82h-73v85q-182 27 -182 322q0 273 185 314v94h73v-87q63 -1 112 -33q-5 -82 -37 -82q-5 0 -35.5 11.5t-67.5 11.5q-41 0 -76 -20l-2 -3q-2 -4 -4 -9t-5.5 -12.5t-6.5 -17.5l-6 -22q-4 -12 -7 -28t-5 -33.5t-3.5 -39.5t-1.5 -46q0 -231 143 -231q57 0 92 31 l23 -79q-16 -15 -49 -29t-67 -15z" />
<glyph unicode="&#xa3;" horiz-adv-x="456" d="M26 256v76h88q0 57 2 94t8.5 75.5t18.5 60.5t32.5 41t50.5 27t71 8q66 0 104 -24q-2 -77 -34 -77q-4 0 -28 5.5t-42 5.5q-49 0 -77 -23q-7 -29 -7 -98v-95h162v-76h-166q0 -53 -17 -98t-47 -69l277 3q5 -27 5 -42q0 -29 -13 -40q-12 -10 -36 -10h-5h-318q-12 32 -12 78 q63 51 70 178h-87z" />
<glyph unicode="&#xa4;" horiz-adv-x="456" d="M-4 166l59 58q-35 52 -35 115q0 62 33 111q-10 12 -57 59l59 57l56 -57q50 35 116 35q68 0 116 -36l57 58l60 -57l-61 -59q36 -50 36 -111q0 -62 -36 -114q2 -3 17 -17l28 -27l16 -15l-60 -56l-58 57q-47 -35 -115 -35q-64 0 -115 35l-57 -57zM95 339q0 -54 39 -93.5 t93 -39.5q55 0 94 39.5t39 93.5t-39 92.5t-94 38.5t-93.5 -38.5t-38.5 -92.5z" />
<glyph unicode="&#xa5;" horiz-adv-x="456" d="M46 158v77h117l-146 383q31 11 71 11q32 0 44.5 -10.5t20.5 -45.5l79 -276h4l97 330h102l-143 -392h120v-77h-129v-158h-108v158h-129z" />
<glyph unicode="&#xa6;" horiz-adv-x="325" d="M205 336h-77v333h77v-333zM205 -156h-77v334h77v-334z" />
<glyph unicode="&#xa7;" horiz-adv-x="406" d="M363 35q0 -72 -51.5 -118.5t-145.5 -46.5q-69 0 -118 23v7q0 32 9 49q10 19 25 19q12 0 43.5 -6.5t56.5 -6.5q37 0 64 7q16 24 16 54q0 8 -1.5 15t-3.5 12t-7 11t-7.5 9.5t-10.5 9t-11.5 7.5t-14.5 7.5t-14 6.5l-17 8q-13 5 -17 7q-59 24 -90.5 59t-31.5 98q0 40 23 76 t58 57q-66 45 -66 131q0 72 50.5 117.5t132.5 45.5q72 0 118 -23q-1 -38 -12 -56t-25 -19q-10 0 -42 6.5t-55 6.5q-30 0 -49 -6q-16 -24 -16 -55q0 -25 14 -42.5t30 -25.5t50 -22q7 -3 10 -4q58 -23 90 -57t32 -98q0 -41 -23.5 -76t-61.5 -57q69 -45 69 -130zM172 372h-2 l-2 1q-37 -30 -37 -77q0 -18 7.5 -33.5t14.5 -24t27.5 -19.5t27.5 -14l35 -14q0 -1 1 -1q40 31 40 77q0 11 -2 20t-6.5 17t-8 13.5t-12.5 12t-13 10t-16 8.5l-16 8l-19.5 8t-18.5 8z" />
<glyph unicode="&#xa8;" horiz-adv-x="409" d="M54 648q0 47 65 47q40 0 40 -49q0 -47 -66 -47q-39 0 -39 49zM249 648q0 47 68 47q38 0 38 -49q0 -47 -66 -47q-40 0 -40 49z" />
<glyph unicode="&#xa9;" horiz-adv-x="613" d="M174 315q0 44 12 83.5t46.5 71.5t86.5 32q46 0 79 -19q0 -53 -24 -53q-4 0 -20.5 5t-30.5 5q-18 0 -40 -8l-3 -6q-4 -6 -8 -15.5t-8 -22.5t-7 -32.5t-3 -40.5q0 -62 22 -94.5t60 -32.5q30 0 54 16l10 -48q-33 -28 -84 -28q-65 0 -103.5 47.5t-38.5 139.5zM88 321 q0 -129 57.5 -198.5t164.5 -69.5q87 0 150 46q65 84 65 218q0 121 -49 188t-166 67q-87 0 -147 -32q-75 -75 -75 -219zM18 312q0 153 76.5 235.5t227.5 82.5q73 0 127 -24.5t85 -68t45.5 -95.5t14.5 -114q0 -156 -75 -244.5t-227 -88.5q-124 0 -199 86.5t-75 230.5z" />
<glyph unicode="&#xaa;" horiz-adv-x="305" d="M250 377q-13 -5 -31 -5q-15 0 -21.5 6t-10.5 27q-21 -33 -69 -33q-32 0 -49.5 22.5t-17.5 58.5q0 41 22.5 62.5t77.5 28.5q15 2 33 3v21q0 27 -8 37t-28 10q-17 0 -38 -5t-27 -5q-19 0 -22 44q46 21 97 21t71.5 -22.5t20.5 -72.5v-198zM115 461q0 -35 28 -35q23 0 41 18 v60q-48 -5 -64 -11q-5 -10 -5 -32z" />
<glyph unicode="&#xab;" horiz-adv-x="502" d="M427 91l-170 208l170 208q49 -16 49 -48q0 -20 -49 -74q-2 -3 -78 -86l78 -85q49 -56 49 -75q0 -32 -49 -48zM199 91l-170 208l170 208q49 -16 49 -48q0 -19 -48 -74l-79 -86q23 -23 79 -85q48 -57 48 -75q0 -32 -49 -48z" />
<glyph unicode="&#xad;" horiz-adv-x="320" d="M39 245q-4 20 -4 37q0 51 46 51h200q4 -19 4 -35q0 -53 -47 -53h-199z" />
<glyph unicode="&#xae;" horiz-adv-x="419" d="M47 450q0 91 41 137t131 46q157 0 157 -172q0 -94 -39.5 -143t-135.5 -49q-74 0 -114 48.5t-40 132.5zM94 458q0 -149 119 -149q51 0 88 21q28 52 28 127q0 66 -24.5 101.5t-93.5 35.5q-45 0 -86 -15q-31 -44 -31 -121zM153 551h59q62 0 62 -54q0 -21 -9.5 -35.5 t-21.5 -18.5q27 -60 37 -79q-8 -4 -24 -4q-13 0 -18 3.5t-8 13.5l-18 56h-21v-72h-38v190zM207 461q12 0 22 5q7 7 7 30q0 29 -28 29h-17v-63q4 -1 16 -1z" />
<glyph unicode="&#xaf;" horiz-adv-x="409" d="M68 603q-3 19 -3 31q0 22 9.5 28.5t32.5 6.5h234q3 -17 3 -27q0 -25 -10.5 -32t-35.5 -7h-230z" />
<glyph unicode="&#xb0;" horiz-adv-x="311" d="M27 501q0 55 35 91.5t93 36.5q59 0 94 -36.5t35 -91.5t-35 -91.5t-94 -36.5q-58 0 -93 36.5t-35 91.5zM91 500q0 -29 17 -48t47 -19t47.5 19t17.5 48t-17.5 48t-47.5 19t-47 -19t-17 -48z" />
<glyph unicode="&#xb1;" horiz-adv-x="449" d="M181 551q24 4 41 4q28 0 36.5 -9t8.5 -36l-2 -142l161 4q4 -16 4 -37q0 -28 -8.5 -35.5t-36.5 -7.5l-120 2l4 -182q-16 -4 -40 -4q-29 0 -37 8t-8 31v6l1 141l-161 -4q-4 16 -4 37q0 28 9 36q8 7 30 7h6l120 -1zM31 0q-4 20 -4 36q0 25 11 34.5t35 9.5h349q4 -26 4 -34 q0 -46 -46 -46h-349z" />
<glyph unicode="&#xb2;" horiz-adv-x="300" d="M234 590q0 -56 -63 -112q-33 -29 -34 -50q66 2 100 2q3 -10 3 -25q0 -17 -7.5 -23.5t-25.5 -6.5h-134q-7 23 -7 46q0 41 54 93q47 45 47 74q0 32 -28 32q-11 0 -30.5 -10.5t-26.5 -10.5q-18 0 -23 41q40 36 85 36q90 0 90 -86z" />
<glyph unicode="&#xb3;" horiz-adv-x="300" d="M142 426q13 0 25 8q8 14 8 31q0 35 -34 35q-20 0 -42 -5q-7 14 -7 29q0 17 4 28q9 -1 28 -1q14 0 32 5q10 16 10 34q0 30 -29 30q-14 0 -31 -6.5t-21 -6.5q-19 0 -25 44q45 25 86 25q86 0 86 -78q0 -34 -24 -62q35 -18 35 -70q0 -43 -29 -69t-73 -26q-53 0 -85 30 q9 41 28 41q4 0 20.5 -8t37.5 -8z" />
<glyph unicode="&#xb4;" horiz-adv-x="409" d="M107 607l155 137q40 -25 40 -53q0 -26 -52 -59l-26 -16l-50 -28q-24 -14 -28 -16z" />
<glyph unicode="&#xb6;" horiz-adv-x="599" d="M519 0h-93v666q25 5 51 5q27 0 34.5 -10t7.5 -43v-618zM257 670h87v-670h-96v255h-2q-96 0 -149 58.5t-53 146.5q0 99 58.5 154.5t154.5 55.5z" />
<glyph unicode="&#xb7;" horiz-adv-x="238" d="M53 328q0 62 81 62q31 0 43.5 -16t12.5 -51q0 -62 -83 -62q-54 0 -54 67z" />
<glyph unicode="&#xb8;" horiz-adv-x="409" d="M174 11l41 8q72 -35 72 -84q0 -31 -26 -53t-73 -22q-40 0 -60 10q-5 17 -5 31q0 18 6.5 24t18.5 6q5 0 19 -2t21 -2q21 0 37 8v6q0 41 -51 70z" />
<glyph unicode="&#xb9;" horiz-adv-x="300" d="M199 672v-243l40 1q4 -11 4 -26q0 -17 -7.5 -23t-27.5 -6h-131q-2 14 -2 25q0 17 7 23.5t25 6.5h27v176q-40 -25 -49 -25q-21 0 -28 46l83 45h59z" />
<glyph unicode="&#xba;" horiz-adv-x="300" d="M109 525q0 -98 43 -98q17 0 30 11q8 36 8 86q0 96 -40 96q-16 0 -28 -8q-13 -26 -13 -87zM42 522q0 154 115 154q100 0 100 -147q0 -158 -115 -158q-49 0 -74.5 39.5t-25.5 111.5z" />
<glyph unicode="&#xbb;" horiz-adv-x="502" d="M86 506l170 -208l-170 -208q-49 16 -49 48q0 20 49 74q2 3 78 86l-78 85q-49 56 -49 75q0 32 49 48zM314 506l170 -208l-170 -208q-49 16 -49 48q0 19 48 74l79 86q-23 23 -79 85q-48 57 -48 75q0 32 49 48z" />
<glyph unicode="&#xbc;" horiz-adv-x="1193" d="M873 191l116 7v341h-23q-39 -88 -64.5 -185.5t-28.5 -162.5zM918 627h174v-423q4 0 19 1t17 1h5q25 0 36 -8q11 -10 11 -37q0 -9 -6 -53h-82v-108h-103v108h-170q-44 0 -44 70q0 64 34 181t109 268zM459 0l184 585h90l-183 -585h-91zM326 627v-542l95 2q4 -32 4 -41 q0 -26 -13 -36t-46 -10h-276q-5 28 -5 42q0 25 12 35t43 10l77 -1v443l-25 -15q-14 -8 -22.5 -13.5t-18 -11t-15 -9t-12.5 -6.5l-10 -6l-8 -4q-4 -2 -6.5 -3t-5 -1.5t-4.5 -0.5q-31 0 -42 76l171 92h107z" />
<glyph unicode="&#xbd;" horiz-adv-x="1193" d="M1135 463q0 -68 -41 -131.5t-100 -111.5q-52 -46 -68.5 -73.5t-19.5 -63.5l239 5q4 -20 4 -39q0 -28 -13 -38.5t-45 -10.5h-284q-11 36 -11 85t29.5 94.5t84.5 99.5q110 108 110 180q0 87 -79 87q-30 0 -71.5 -23.5t-54.5 -23.5q-27 0 -35 69q78 69 173 69q86 0 134 -43 t48 -131zM459 0l184 585h90l-183 -585h-91zM326 627v-542l95 2q4 -32 4 -41q0 -26 -13 -36t-46 -10h-276q-5 28 -5 42q0 25 12 35t43 10l77 -1v443l-25 -15q-14 -8 -22.5 -13.5t-18 -11t-15 -9t-12.5 -6.5l-10 -6l-8 -4q-4 -2 -6.5 -3t-5 -1.5t-4.5 -0.5q-31 0 -42 76 l171 92h107z" />
<glyph unicode="&#xbe;" horiz-adv-x="1193" d="M873 191l116 7v341h-23q-39 -88 -64.5 -185.5t-28.5 -162.5zM918 627h174v-423q4 0 19 1t17 1h5q25 0 36 -8q11 -10 11 -37q0 -9 -6 -53h-82v-108h-103v108h-170q-44 0 -44 70q0 64 34 181t109 268zM459 0l184 585h90l-183 -585h-91zM203 80q44 0 71 18q23 35 23 86 q0 53 -22.5 74t-72.5 21q-44 0 -82 -9q-9 15 -9 46q0 26 5 43q12 -2 49 -2q49 0 82 13q28 40 28 92q0 85 -83 85q-31 0 -70.5 -15t-44.5 -15q-29 0 -35 72q81 48 171 48q175 0 175 -156q0 -44 -21 -83t-48 -60q93 -32 93 -153q0 -89 -59 -142t-151 -53q-110 0 -170 55 q14 68 43 68q4 0 41.5 -16.5t86.5 -16.5z" />
<glyph unicode="&#xbf;" horiz-adv-x="395" d="M300 449q0 -61 -78 -61q-28 0 -40 16t-12 49q0 60 78 60q52 0 52 -64zM274 307q10 -37 10 -76q0 -37 -13.5 -68t-33 -51.5t-39 -39t-33 -40.5t-13.5 -46q0 -65 73 -65q32 1 67.5 21t41.5 20q31 0 39 -65q-25 -25 -69 -45t-98 -20q-78 0 -123 37.5t-45 104.5 q0 40 15.5 71.5t38.5 52.5l44 42q22 21 37.5 49t15.5 62q0 33 8.5 47t31.5 14q33 0 45 -5z" />
<glyph unicode="&#xc0;" horiz-adv-x="462" d="M324 57l-13 73h-166l-24 -130h-108q-1 0 34 157l71 313l35 157h164l132 -622q-23 -10 -58 -10t-48.5 12t-18.5 50zM222 535l-62 -326h136l-59 326h-15zM178 830l165 -142l-40 -37q-30 12 -110 61q-56 36 -56 63q0 26 41 55z" />
<glyph unicode="&#xc1;" horiz-adv-x="462" d="M324 57l-13 73h-166l-24 -130h-108q-1 0 34 157l71 313l35 157h164l132 -622q-23 -10 -58 -10t-48.5 12t-18.5 50zM222 535l-62 -326h136l-59 326h-15zM128 690l165 141q40 -27 40 -55t-56 -62q-88 -54 -110 -62z" />
<glyph unicode="&#xc2;" horiz-adv-x="462" d="M324 57l-13 73h-166l-24 -130h-108q-1 0 34 157l71 313l35 157h164l132 -622q-23 -10 -58 -10t-48.5 12t-18.5 50zM222 535l-62 -326h136l-59 326h-15zM76 727l151 84l4 1l152 -85q-5 -28 -20 -41.5t-29 -13.5q-12 0 -34 16l-70 56q-66 -51 -72 -57q-22 -15 -33 -15h-2 q-13 0 -27 12q-14 14 -20 43z" />
<glyph unicode="&#xc3;" horiz-adv-x="462" d="M324 57l-13 73h-166l-24 -130h-108q-1 0 34 157l71 313l35 157h164l132 -622q-23 -10 -58 -10t-48.5 12t-18.5 50zM222 535l-62 -326h136l-59 326h-15zM97 656q-14 5 -28 17t-14 26q0 20 32 49t62 29q47 0 167 -46q29 19 51 55q13 -6 24.5 -19t11.5 -26q0 -22 -30 -50 t-65 -28q-24 0 -65.5 11.5t-70.5 23.5l-29 12q-29 -16 -46 -54z" />
<glyph unicode="&#xc4;" horiz-adv-x="462" d="M324 57l-13 73h-166l-24 -130h-108q-1 0 34 157l71 313l35 157h164l132 -622q-23 -10 -58 -10t-48.5 12t-18.5 50zM222 535l-62 -326h136l-59 326h-15zM78 728q0 47 66 47q40 0 40 -49q0 -47 -66 -47q-40 0 -40 49zM274 728q0 47 67 47q39 0 39 -49q0 -47 -66 -47 q-40 0 -40 49z" />
<glyph unicode="&#xc5;" horiz-adv-x="462" d="M324 57l-13 73h-166l-24 -130h-108q-1 0 34 157l71 313l35 157h164l132 -622q-23 -10 -58 -10t-48.5 12t-18.5 50zM140 742q0 37 25 63.5t66 26.5q39 0 63.5 -25.5t24.5 -64.5q0 -38 -26 -63t-66 -25q-37 0 -62 25t-25 63zM222 535l-62 -326h136l-59 326h-15zM195 743 q0 -17 9.5 -28t24.5 -11q12 0 25 9q10 12 10 30t-10 29t-25 11q-14 0 -24 -10q-10 -12 -10 -30z" />
<glyph unicode="&#xc6;" horiz-adv-x="621" d="M389 84l210 4q3 -27 3 -44q0 -29 -9 -36.5t-37 -7.5h-200q-52 0 -64 11.5t-12 59.5v59h-144l-37 -130h-109l203 627h406q3 -24 3 -39q0 -30 -11 -38q-10 -7 -35 -7h-7l-160 2v-183h183q2 -36 2 -44q0 -26 -10 -34q-8 -6 -29 -6h-11l-135 2v-196zM251 535l-93 -326h122 v326h-29z" />
<glyph unicode="&#xc7;" horiz-adv-x="415" d="M32 316q0 166 68 243.5t182 77.5q78 0 118 -32q-4 -78 -39 -78q-6 0 -34 9t-62 9q-45 0 -78 -20q-40 -69 -40 -213q0 -229 137 -229q54 0 92 30l23 -79q-41 -33 -97 -41q32 -27 32 -58t-26 -53t-73 -22q-40 0 -60 10q-5 17 -5 31q0 18 6.5 24t18.5 6q5 0 19 -2t21 -2 q21 0 37 8q2 29 -23 55q-217 6 -217 326z" />
<glyph unicode="&#xc8;" horiz-adv-x="404" d="M174 830l165 -142l-40 -37q-30 12 -110 61q-56 36 -56 63q0 26 41 55zM172 280v-196l210 4q3 -20 3 -41q0 -28 -11 -37.5t-41 -9.5h-194q-52 0 -63.5 11t-11.5 59v557h319q3 -24 3 -41q0 -27 -11.5 -35t-42.5 -8l-160 2v-183h183q4 -19 4 -40q0 -26 -11 -36 q-11 -8 -36 -8h-5z" />
<glyph unicode="&#xc9;" horiz-adv-x="404" d="M172 280v-196l210 4q3 -20 3 -41q0 -28 -11 -37.5t-41 -9.5h-194q-52 0 -63.5 11t-11.5 59v557h319q3 -24 3 -41q0 -27 -11.5 -35t-42.5 -8l-160 2v-183h183q4 -19 4 -40q0 -26 -11 -36q-11 -8 -36 -8h-5zM130 690l165 141q40 -27 40 -55t-56 -62q-88 -54 -110 -62z" />
<glyph unicode="&#xca;" horiz-adv-x="404" d="M82 727l151 84l4 1l152 -85q-5 -28 -20 -41.5t-29 -13.5q-12 0 -34 16l-70 56q-66 -51 -72 -57q-22 -15 -33 -15h-2q-13 0 -27 12q-14 14 -20 43zM172 280v-196l210 4q3 -20 3 -41q0 -28 -11 -37.5t-41 -9.5h-194q-52 0 -63.5 11t-11.5 59v557h319q3 -24 3 -41 q0 -27 -11.5 -35t-42.5 -8l-160 2v-183h183q4 -19 4 -40q0 -26 -11 -36q-11 -8 -36 -8h-5z" />
<glyph unicode="&#xcb;" horiz-adv-x="404" d="M172 280v-196l210 4q3 -20 3 -41q0 -28 -11 -37.5t-41 -9.5h-194q-52 0 -63.5 11t-11.5 59v557h319q3 -24 3 -41q0 -27 -11.5 -35t-42.5 -8l-160 2v-183h183q4 -19 4 -40q0 -26 -11 -36q-11 -8 -36 -8h-5zM78 728q0 47 66 47q40 0 40 -49q0 -47 -66 -47q-40 0 -40 49z M274 728q0 47 67 47q39 0 39 -49q0 -47 -66 -47q-40 0 -40 49z" />
<glyph unicode="&#xcc;" horiz-adv-x="337" d="M114 547l-88 -4q-4 34 -4 44q0 24 10.5 32t42.5 8h235q2 -32 2 -40q0 -24 -9 -33t-33 -9h-48v-466l89 5q3 -27 3 -43q0 -25 -10 -33t-42 -8h-235q-4 20 -4 40q0 23 10.5 32t37.5 9h43v466zM118 830l165 -142l-40 -37q-30 12 -110 61q-56 36 -56 63q0 26 41 55z" />
<glyph unicode="&#xcd;" horiz-adv-x="337" d="M114 547l-88 -4q-4 34 -4 44q0 24 10.5 32t42.5 8h235q2 -32 2 -40q0 -24 -9 -33t-33 -9h-48v-466l89 5q3 -27 3 -43q0 -25 -10 -33t-42 -8h-235q-4 20 -4 40q0 23 10.5 32t37.5 9h43v466zM68 690l165 141q40 -27 40 -55t-56 -62q-88 -54 -110 -62z" />
<glyph unicode="&#xce;" horiz-adv-x="337" d="M114 547l-88 -4q-4 34 -4 44q0 24 10.5 32t42.5 8h235q2 -32 2 -40q0 -24 -9 -33t-33 -9h-48v-466l89 5q3 -27 3 -43q0 -25 -10 -33t-42 -8h-235q-4 20 -4 40q0 23 10.5 32t37.5 9h43v466zM15 727l151 84l4 1l152 -85q-5 -28 -20 -41.5t-29 -13.5q-12 0 -34 16l-70 56 q-66 -51 -72 -57q-22 -15 -33 -15h-2q-13 0 -26 12q-15 14 -21 43z" />
<glyph unicode="&#xcf;" horiz-adv-x="337" d="M114 547l-88 -4q-4 34 -4 44q0 24 10.5 32t42.5 8h235q2 -32 2 -40q0 -24 -9 -33t-33 -9h-48v-466l89 5q3 -27 3 -43q0 -25 -10 -33t-42 -8h-235q-4 20 -4 40q0 23 10.5 32t37.5 9h43v466zM18 728q0 47 66 47q40 0 40 -49q0 -47 -66 -47q-40 0 -40 49zM214 728 q0 47 67 47q39 0 39 -49q0 -47 -66 -47q-40 0 -40 49z" />
<glyph unicode="&#xd0;" horiz-adv-x="513" d="M67 8v270h-58v82h58v267h187q118 0 169.5 -75.5t51.5 -225.5q0 -54 -8.5 -101.5t-28 -91.5t-49.5 -75t-76.5 -49.5t-104.5 -18.5q-84 0 -141 18zM174 547v-187h114q4 -24 4 -37q0 -24 -10.5 -34.5t-34.5 -10.5h-73v-193q20 -8 60 -8q52 0 84 26q43 79 43 215 q0 125 -28.5 177t-99.5 52h-59z" />
<glyph unicode="&#xd1;" horiz-adv-x="546" d="M149 656q-14 5 -28 17t-14 26q0 20 32 49t62 29q47 0 167 -46q29 19 51 55q13 -6 24.5 -19t11.5 -26q0 -22 -30 -50t-65 -28q-24 0 -65.5 11.5t-70.5 23.5l-29 12q-29 -16 -46 -54zM64 0v627h159l153 -511h10l-1 511h97v-624q-42 -13 -86 -13q-42 0 -59.5 16t-31.5 65 l-137 435h-9v-506h-95z" />
<glyph unicode="&#xd2;" horiz-adv-x="510" d="M206 830l165 -142l-40 -37q-30 12 -110 61q-56 36 -56 63q0 26 41 55zM147 316q0 -115 26 -175t86 -60q50 0 84 31q21 63 21 202q0 118 -24 175t-84 57q-49 0 -77 -23q-32 -96 -32 -207zM32 310q0 68 12 124t38.5 103t75 73.5t115.5 26.5q205 0 205 -311 q0 -336 -239 -336q-101 0 -154 84.5t-53 235.5z" />
<glyph unicode="&#xd3;" horiz-adv-x="510" d="M155 690l165 141q40 -27 40 -55t-56 -62q-88 -54 -110 -62zM147 316q0 -115 26 -175t86 -60q50 0 84 31q21 63 21 202q0 118 -24 175t-84 57q-49 0 -77 -23q-32 -96 -32 -207zM32 310q0 68 12 124t38.5 103t75 73.5t115.5 26.5q205 0 205 -311q0 -336 -239 -336 q-101 0 -154 84.5t-53 235.5z" />
<glyph unicode="&#xd4;" horiz-adv-x="510" d="M104 727l151 84l4 1l152 -85q-5 -28 -20 -41.5t-29 -13.5q-12 0 -34 16l-70 56q-66 -51 -72 -57q-22 -15 -33 -15h-2q-13 0 -27 12q-14 14 -20 43zM147 316q0 -115 26 -175t86 -60q50 0 84 31q21 63 21 202q0 118 -24 175t-84 57q-49 0 -77 -23q-32 -96 -32 -207zM32 310 q0 68 12 124t38.5 103t75 73.5t115.5 26.5q205 0 205 -311q0 -336 -239 -336q-101 0 -154 84.5t-53 235.5z" />
<glyph unicode="&#xd5;" horiz-adv-x="510" d="M147 316q0 -115 26 -175t86 -60q50 0 84 31q21 63 21 202q0 118 -24 175t-84 57q-49 0 -77 -23q-32 -96 -32 -207zM32 310q0 68 12 124t38.5 103t75 73.5t115.5 26.5q205 0 205 -311q0 -336 -239 -336q-101 0 -154 84.5t-53 235.5zM124 656q-14 5 -28 17t-14 26 q0 20 32 49t62 29q47 0 167 -46q29 19 51 55q13 -6 24.5 -19t11.5 -26q0 -22 -30 -50t-65 -28q-24 0 -65.5 11.5t-70.5 23.5l-29 12q-29 -16 -46 -54z" />
<glyph unicode="&#xd6;" horiz-adv-x="510" d="M147 316q0 -115 26 -175t86 -60q50 0 84 31q21 63 21 202q0 118 -24 175t-84 57q-49 0 -77 -23q-32 -96 -32 -207zM32 310q0 68 12 124t38.5 103t75 73.5t115.5 26.5q205 0 205 -311q0 -336 -239 -336q-101 0 -154 84.5t-53 235.5zM104 728q0 47 66 47q40 0 40 -49 q0 -47 -66 -47q-40 0 -40 49zM300 728q0 47 67 47q39 0 39 -49q0 -47 -66 -47q-40 0 -40 49z" />
<glyph unicode="&#xd7;" horiz-adv-x="448" d="M270 291l143 -138q-5 -9 -20 -28q-14 -16 -28.5 -15.5t-27.5 15.5l-114 120l-138 -143q-13 6 -29 21q-15 15 -14.5 28.5t14.5 26.5l120 114l-142 139q5 11 20 28q14 14 28.5 14.5t27.5 -14.5l114 -120l138 142q9 -4 29 -20q14 -14 14 -28.5t-14 -27.5z" />
<glyph unicode="&#xd8;" horiz-adv-x="510" d="M32 310q0 68 12 124t38.5 103t75 73.5t115.5 26.5q23 0 46 -5l24 83h57l-30 -103q108 -64 108 -286q0 -336 -239 -336q-22 0 -45 5l-23 -83h-57l29 103q-111 69 -111 295zM147 316q0 -128 30 -183l116 406q-19 7 -37 7q-52 0 -77 -23q-32 -96 -32 -207zM364 314 q0 125 -27 180l-116 -406q15 -7 38 -7q50 0 84 31q21 63 21 202z" />
<glyph unicode="&#xd9;" horiz-adv-x="503" d="M198 830l165 -142l-40 -37q-30 12 -110 61q-56 36 -56 63q0 26 41 55zM55 180v441q31 7 58 7q33 0 42 -12.5t9 -57.5v-370q0 -59 20 -83t65 -24q54 0 90 26v520h108v-568q-91 -69 -213 -69q-97 0 -138 45.5t-41 144.5z" />
<glyph unicode="&#xda;" horiz-adv-x="503" d="M55 180v441q31 7 58 7q33 0 42 -12.5t9 -57.5v-370q0 -59 20 -83t65 -24q54 0 90 26v520h108v-568q-91 -69 -213 -69q-97 0 -138 45.5t-41 144.5zM152 690l165 141q40 -27 40 -55t-56 -62q-88 -54 -110 -62z" />
<glyph unicode="&#xdb;" horiz-adv-x="503" d="M97 727l151 84l4 1l152 -85q-5 -28 -20 -41.5t-29 -13.5q-12 0 -34 16l-70 56q-66 -51 -72 -57q-22 -15 -33 -15h-2q-13 0 -26 12q-15 14 -21 43zM55 180v441q31 7 58 7q33 0 42 -12.5t9 -57.5v-370q0 -59 20 -83t65 -24q54 0 90 26v520h108v-568q-91 -69 -213 -69 q-97 0 -138 45.5t-41 144.5z" />
<glyph unicode="&#xdc;" horiz-adv-x="503" d="M55 180v441q31 7 58 7q33 0 42 -12.5t9 -57.5v-370q0 -59 20 -83t65 -24q54 0 90 26v520h108v-568q-91 -69 -213 -69q-97 0 -138 45.5t-41 144.5zM100 728q0 47 66 47q40 0 40 -49q0 -47 -66 -47q-40 0 -40 49zM296 728q0 47 67 47q39 0 39 -49q0 -47 -66 -47 q-40 0 -40 49z" />
<glyph unicode="&#xdd;" horiz-adv-x="442" d="M170 205l-158 413q31 11 71 11q32 0 44.5 -10.5t20.5 -45.5l79 -276h4l97 330h102l-152 -418v-209h-108v205zM127 690l165 141q40 -27 40 -55t-56 -62q-88 -54 -110 -62z" />
<glyph unicode="&#xde;" horiz-adv-x="468" d="M64 622q26 6 58 6t40.5 -11.5t8.5 -52.5v-40h79q102 0 148 -48.5t46 -155.5q0 -106 -54 -166t-171 -60q-20 0 -48 4v-98h-107v622zM228 178q21 0 40.5 5.5t27.5 10t10 6.5l2 4q2 4 4 8.5t4.5 12t5 17t4.5 20.5t3.5 25.5t1.5 29.5q0 65 -19.5 98t-82.5 33q-24 0 -58 -2 v-260q16 -8 57 -8z" />
<glyph unicode="&#xdf;" horiz-adv-x="479" d="M58 524q0 81 55.5 125.5t139.5 44.5q163 0 163 -134q0 -15 -5 -32t-14 -32.5t-19 -30.5t-22 -28l-20 -23q-8 -9 -16 -16l-7 -8q-5 -5 -5 -25q0 -19 11.5 -29.5t49.5 -32.5q63 -37 81.5 -69t18.5 -82q0 -69 -46 -115t-124 -46q-55 0 -92 22q1 20 2.5 31.5t5 23t10 15.5 t16.5 2l10 -3q10 -4 25.5 -7.5t28.5 -3.5q15 0 27.5 3.5t17.5 7.5l6 3q1 1 5 7.5t8.5 19.5t4.5 26q0 25 -16 42.5t-64 44.5q-70 38 -70 118q0 17 3 36q1 1 10.5 14t20.5 31l22 38q12 22 19.5 45.5t7.5 43.5q0 64 -63 64q-15 0 -29 -2.5t-24 -5.5t-17.5 -6.5t-11.5 -6.5 l-4 -2v-592h-100v524z" />
<glyph unicode="&#xe0;" horiz-adv-x="429" d="M127 145q0 -73 53 -73q46 0 88 35v122q-83 -6 -129 -21q-12 -26 -12 -63zM371 -3q-23 -7 -49 -7q-23 0 -33 11.5t-15 43.5q-51 -55 -131 -55q-54 0 -84.5 38t-30.5 101q0 82 52.5 119t187.5 44q0 89 -12.5 113.5t-60.5 24.5q-23 0 -64 -10t-50 -10q-35 0 -35 68 q77 35 166 35q88 0 123.5 -35.5t35.5 -130.5v-350zM160 729l156 -137l-39 -35q-21 8 -104 60q-52 33 -52 59t39 53z" />
<glyph unicode="&#xe1;" horiz-adv-x="429" d="M127 145q0 -73 53 -73q46 0 88 35v122q-83 -6 -129 -21q-12 -26 -12 -63zM371 -3q-23 -7 -49 -7q-23 0 -33 11.5t-15 43.5q-51 -55 -131 -55q-54 0 -84.5 38t-30.5 101q0 82 52.5 119t187.5 44q0 89 -12.5 113.5t-60.5 24.5q-23 0 -64 -10t-50 -10q-35 0 -35 68 q77 35 166 35q88 0 123.5 -35.5t35.5 -130.5v-350zM113 592l155 137q40 -25 40 -53q0 -26 -52 -59l-26 -15l-50 -30q-24 -13 -28 -15z" />
<glyph unicode="&#xe2;" horiz-adv-x="429" d="M127 145q0 -73 53 -73q46 0 88 35v122q-83 -6 -129 -21q-12 -26 -12 -63zM371 -3q-23 -7 -49 -7q-23 0 -33 11.5t-15 43.5q-51 -55 -131 -55q-54 0 -84.5 38t-30.5 101q0 82 52.5 119t187.5 44q0 89 -12.5 113.5t-60.5 24.5q-23 0 -64 -10t-50 -10q-35 0 -35 68 q77 35 166 35q88 0 123.5 -35.5t35.5 -130.5v-350zM56 611l151 84l4 1l152 -85q-5 -28 -20 -41.5t-29 -13.5q-12 0 -34 16l-70 56q-66 -52 -72 -57q-22 -15 -33 -15h-2q-13 0 -27 12q-14 14 -20 43z" />
<glyph unicode="&#xe3;" horiz-adv-x="429" d="M127 145q0 -73 53 -73q46 0 88 35v122q-83 -6 -129 -21q-12 -26 -12 -63zM371 -3q-23 -7 -49 -7q-23 0 -33 11.5t-15 43.5q-51 -55 -131 -55q-54 0 -84.5 38t-30.5 101q0 82 52.5 119t187.5 44q0 89 -12.5 113.5t-60.5 24.5q-23 0 -64 -10t-50 -10q-35 0 -35 68 q77 35 166 35q88 0 123.5 -35.5t35.5 -130.5v-350zM81 552q-14 5 -27.5 17t-13.5 26q0 20 32 49t62 29q24 0 57.5 -10t63.5 -23l30 -13q27 18 52 54q13 -5 24 -18t11 -26q0 -22 -30 -50.5t-65 -28.5q-24 0 -61.5 12t-63.5 24l-25 12q-26 -15 -46 -54z" />
<glyph unicode="&#xe4;" horiz-adv-x="429" d="M127 145q0 -73 53 -73q46 0 88 35v122q-83 -6 -129 -21q-12 -26 -12 -63zM371 -3q-23 -7 -49 -7q-23 0 -33 11.5t-15 43.5q-51 -55 -131 -55q-54 0 -84.5 38t-30.5 101q0 82 52.5 119t187.5 44q0 89 -12.5 113.5t-60.5 24.5q-23 0 -64 -10t-50 -10q-35 0 -35 68 q77 35 166 35q88 0 123.5 -35.5t35.5 -130.5v-350zM58 633q0 47 65 47q40 0 40 -49q0 -47 -66 -47q-39 0 -39 49zM253 633q0 47 68 47q38 0 38 -49q0 -47 -66 -47q-40 0 -40 49z" />
<glyph unicode="&#xe5;" horiz-adv-x="429" d="M127 145q0 -73 53 -73q46 0 88 35v122q-83 -6 -129 -21q-12 -26 -12 -63zM371 -3q-23 -7 -49 -7q-23 0 -33 11.5t-15 43.5q-51 -55 -131 -55q-54 0 -84.5 38t-30.5 101q0 82 52.5 119t187.5 44q0 89 -12.5 113.5t-60.5 24.5q-23 0 -64 -10t-50 -10q-35 0 -35 68 q77 35 166 35q88 0 123.5 -35.5t35.5 -130.5v-350zM118 634q0 37 25 63t65 26t64.5 -25t24.5 -65q0 -38 -26.5 -63t-66.5 -25q-37 0 -61.5 25.5t-24.5 63.5zM176 626q1 -13 10 -22q9 -8 20 -8h3q14 1 24 16q6 16 6 27q0 15 -11 25q-10 10 -24 10q-14 -4 -23 -17 q-6 -13 -6 -23q0 -4 1 -8z" />
<glyph unicode="&#xe6;" horiz-adv-x="642" d="M147 -10q-55 0 -87 39.5t-32 99.5q0 68 36 104t125 51q43 6 79 8v10q0 33 -0.5 47.5t-4 34t-11 27t-21.5 13.5t-36 6q-27 0 -66.5 -10t-47.5 -10q-35 0 -35 68q82 35 161 35q97 0 130 -46q42 46 119 46q85 0 118 -57t33 -169q0 -42 -2 -65h-239q1 -71 27 -110t75 -39 q32 0 64.5 9t36.5 9q22 0 25 -53q0 -2 0.5 -7t0.5 -8q-56 -33 -142 -33q-53 0 -90.5 21t-55.5 54q-9 -12 -27 -27t-56 -31.5t-77 -16.5zM127 145q0 -73 53 -73q44 0 88 35v122q-83 -6 -129 -21q-12 -36 -12 -63zM509 294v18q0 121 -65 121q-14 0 -28.5 -5t-20.5 -8.5 t-8 -5.5q-21 -52 -21 -128z" />
<glyph unicode="&#xe7;" horiz-adv-x="350" d="M37 248q0 120 47 192.5t142 72.5q74 0 110 -27q0 -79 -32 -79q-4 0 -30 9.5t-49 9.5q-24 0 -49 -11q-30 -60 -30 -168q0 -87 25.5 -130.5t71.5 -43.5q45 0 81 22l13 -66q-32 -25 -76 -34q33 -27 33 -60q0 -31 -26 -53t-73 -22q-40 0 -60 10q-5 17 -5 31q0 18 6.5 24 t18.5 6q5 0 19 -2t21 -2q21 0 37 8q2 29 -23 55q-85 3 -128.5 73.5t-43.5 184.5z" />
<glyph unicode="&#xe8;" horiz-adv-x="422" d="M288 294q1 15 1 29q0 110 -66 110q-14 0 -28.5 -5t-20.5 -8.5t-8 -5.5q-21 -52 -21 -128zM37 256q0 113 48 185t145 72q82 0 119.5 -52.5t37.5 -169.5q0 -31 -3 -69h-238q5 -149 101 -149q33 0 65 9t36 9q14 0 20 -15t6 -53q-59 -33 -152 -33q-95 0 -140 74t-45 192z M169 729l156 -137l-39 -35q-21 8 -104 60q-52 33 -52 59t39 53z" />
<glyph unicode="&#xe9;" horiz-adv-x="422" d="M121 592l155 137q40 -25 40 -53q0 -26 -52 -59l-26 -15l-50 -30q-24 -13 -28 -15zM288 294q1 15 1 29q0 110 -66 110q-14 0 -28.5 -5t-20.5 -8.5t-8 -5.5q-21 -52 -21 -128zM37 256q0 113 48 185t145 72q82 0 119.5 -52.5t37.5 -169.5q0 -31 -3 -69h-238q5 -149 101 -149 q33 0 65 9t36 9q14 0 20 -15t6 -53q-59 -33 -152 -33q-95 0 -140 74t-45 192z" />
<glyph unicode="&#xea;" horiz-adv-x="422" d="M65 611l151 84l4 1l152 -85q-5 -28 -20 -41.5t-29 -13.5q-12 0 -34 16l-70 56q-66 -52 -72 -57q-22 -15 -33 -15h-2q-13 0 -26 12q-15 14 -21 43zM288 294q1 15 1 29q0 110 -66 110q-14 0 -28.5 -5t-20.5 -8.5t-8 -5.5q-21 -52 -21 -128zM37 256q0 113 48 185t145 72 q82 0 119.5 -52.5t37.5 -169.5q0 -31 -3 -69h-238q5 -149 101 -149q33 0 65 9t36 9q14 0 20 -15t6 -53q-59 -33 -152 -33q-95 0 -140 74t-45 192z" />
<glyph unicode="&#xeb;" horiz-adv-x="422" d="M68 633q0 47 65 47q40 0 40 -49q0 -47 -66 -47q-39 0 -39 49zM263 633q0 47 68 47q38 0 38 -49q0 -47 -66 -47q-40 0 -40 49zM288 294q1 15 1 29q0 110 -66 110q-14 0 -28.5 -5t-20.5 -8.5t-8 -5.5q-21 -52 -21 -128zM37 256q0 113 48 185t145 72q82 0 119.5 -52.5 t37.5 -169.5q0 -31 -3 -69h-238q5 -149 101 -149q33 0 65 9t36 9q14 0 20 -15t6 -53q-59 -33 -152 -33q-95 0 -140 74t-45 192z" />
<glyph unicode="&#xec;" horiz-adv-x="231" d="M167 0h-104v494q30 10 58 10q31 0 38.5 -12t7.5 -55v-437zM69 729l156 -137l-39 -35q-21 8 -104 60q-52 33 -52 59t39 53z" />
<glyph unicode="&#xed;" horiz-adv-x="231" d="M25 592l155 137q40 -25 40 -53q0 -26 -52 -59l-26 -15l-50 -30q-24 -13 -28 -15zM167 0h-104v494q30 10 58 10q31 0 38.5 -12t7.5 -55v-437z" />
<glyph unicode="&#xee;" horiz-adv-x="231" d="M-28 611l140 84l4 1l141 -85q-5 -28 -19 -41.5t-27 -13.5q-10 0 -31 16l-65 56l-67 -57q-20 -15 -30 -15q-13 -1 -26.5 12.5t-19.5 42.5zM167 0h-104v494q30 10 58 10q31 0 38.5 -12t7.5 -55v-437z" />
<glyph unicode="&#xef;" horiz-adv-x="231" d="M-34 633q0 47 65 47q40 0 40 -49q0 -47 -66 -47q-39 0 -39 49zM161 633q0 47 68 47q38 0 38 -49q0 -47 -66 -47q-40 0 -40 49zM167 0h-104v494q30 10 58 10q31 0 38.5 -12t7.5 -55v-437z" />
<glyph unicode="&#xf0;" horiz-adv-x="461" d="M380 699v-69l-48 -21q91 -131 91 -348q0 -271 -209 -271q-84 0 -130.5 73.5t-46.5 188.5q0 46 8.5 87.5t27 80.5t54 62.5t83.5 23.5q61 0 91 -43q-16 62 -54 110l-129 -55v68l81 35q-18 14 -54 35q-27 15 -27 39q0 25 29 50q80 -22 143 -85zM144 249q0 -89 23 -134.5 t64 -45.5q34 0 56 17l2 4q2 5 4.5 12.5t5.5 18t6.5 24t6 29t4 35.5t1.5 40q0 90 -21 132t-65 42q-34 0 -57 -13q-30 -51 -30 -161z" />
<glyph unicode="&#xf1;" horiz-adv-x="481" d="M63 0v505q24 8 50 8q23 0 34 -11.5t19 -49.5q57 61 134 61q67 0 95 -36.5t28 -106.5v-370h-104v349q0 42 -13 59.5t-45 17.5q-51 0 -94 -43v-383h-104zM121 552q-14 5 -27.5 17t-13.5 26q0 20 32 49t62 29q24 0 57.5 -10t63.5 -23l30 -13q27 18 52 54q13 -5 24 -18 t11 -26q0 -22 -30 -50.5t-65 -28.5q-24 0 -61.5 12t-63.5 24l-25 12q-26 -15 -46 -54z" />
<glyph unicode="&#xf2;" horiz-adv-x="460" d="M144 253q0 -92 23 -138t64 -46q31 0 56 17l2 5q2 5 4.5 12.5t5.5 18t6.5 24.5t6 30t4 36t1.5 41q0 178 -82 178q-30 0 -61 -14q-30 -51 -30 -164zM247 513q89 0 132.5 -69t43.5 -193q0 -119 -50 -190t-159 -71q-84 0 -130.5 74t-46.5 190q0 259 210 259zM183 729 l156 -137l-39 -35q-21 8 -104 60q-52 33 -52 59t39 53z" />
<glyph unicode="&#xf3;" horiz-adv-x="460" d="M133 592l155 137q40 -25 40 -53q0 -26 -52 -59l-26 -15l-50 -30q-24 -13 -28 -15zM144 253q0 -92 23 -138t64 -46q31 0 56 17l2 5q2 5 4.5 12.5t5.5 18t6.5 24.5t6 30t4 36t1.5 41q0 178 -82 178q-30 0 -61 -14q-30 -51 -30 -164zM247 513q89 0 132.5 -69t43.5 -193 q0 -119 -50 -190t-159 -71q-84 0 -130.5 74t-46.5 190q0 259 210 259z" />
<glyph unicode="&#xf4;" horiz-adv-x="460" d="M77 611l151 84l4 1l152 -85q-5 -28 -20 -41.5t-29 -13.5q-12 0 -34 16l-70 56q-66 -52 -72 -57q-22 -15 -33 -15h-2q-13 0 -26 12q-15 14 -21 43zM144 253q0 -92 23 -138t64 -46q31 0 56 17l2 5q2 5 4.5 12.5t5.5 18t6.5 24.5t6 30t4 36t1.5 41q0 178 -82 178 q-30 0 -61 -14q-30 -51 -30 -164zM247 513q89 0 132.5 -69t43.5 -193q0 -119 -50 -190t-159 -71q-84 0 -130.5 74t-46.5 190q0 259 210 259z" />
<glyph unicode="&#xf5;" horiz-adv-x="460" d="M144 253q0 -92 23 -138t64 -46q31 0 56 17l2 5q2 5 4.5 12.5t5.5 18t6.5 24.5t6 30t4 36t1.5 41q0 178 -82 178q-30 0 -61 -14q-30 -51 -30 -164zM247 513q89 0 132.5 -69t43.5 -193q0 -119 -50 -190t-159 -71q-84 0 -130.5 74t-46.5 190q0 259 210 259zM107 552 q-14 5 -27.5 17t-13.5 26q0 20 32 49t62 29q24 0 57.5 -10t63.5 -23l30 -13q27 18 52 54q13 -5 24 -18t11 -26q0 -22 -30 -50.5t-65 -28.5q-24 0 -61.5 12t-63.5 24l-25 12q-26 -15 -46 -54z" />
<glyph unicode="&#xf6;" horiz-adv-x="460" d="M81 633q0 47 65 47q40 0 40 -49q0 -47 -66 -47q-39 0 -39 49zM276 633q0 47 68 47q38 0 38 -49q0 -47 -66 -47q-40 0 -40 49zM144 253q0 -92 23 -138t64 -46q31 0 56 17l2 5q2 5 4.5 12.5t5.5 18t6.5 24.5t6 30t4 36t1.5 41q0 178 -82 178q-30 0 -61 -14 q-30 -51 -30 -164zM247 513q89 0 132.5 -69t43.5 -193q0 -119 -50 -190t-159 -71q-84 0 -130.5 74t-46.5 190q0 259 210 259z" />
<glyph unicode="&#xf7;" d="M161 489q0 54 75 54q28 0 40 -14t12 -44q0 -56 -76 -56q-51 0 -51 60zM29 254q-4 21 -4 38q0 26 11.5 36t34.5 10h354q3 -21 3 -36q0 -48 -45 -48h-354zM161 103q0 -60 51 -60q76 0 76 57q0 30 -12 44t-40 14q-75 0 -75 -55z" />
<glyph unicode="&#xf8;" horiz-adv-x="460" d="M247 513q26 0 47 -6l25 68h63l-35 -95q76 -63 76 -229q0 -119 -50 -190t-159 -71q-20 0 -42 5l-27 -76h-63l37 104q-82 67 -82 231q0 259 210 259zM144 253q0 -75 15 -119l105 290q-11 7 -29 7q-30 0 -61 -14q-30 -51 -30 -164zM317 253q0 68 -12 110l-104 -287 q13 -7 30 -7q31 0 56 17l2 5q2 5 4.5 12.5t5.5 18t6.5 24.5t6 30t4 36t1.5 41z" />
<glyph unicode="&#xf9;" horiz-adv-x="479" d="M416 504v-502q-26 -11 -53 -11q-23 0 -31 9t-18 50q-6 -7 -20.5 -19t-47 -26.5t-64.5 -14.5q-68 0 -96 39t-28 120v350q36 6 52 6q33 0 42.5 -9t9.5 -47v-292q0 -43 12 -60.5t41 -17.5q22 0 47 11.5t35 19.5t15 13v381h104zM189 729l156 -137l-39 -35q-21 8 -104 60 q-52 33 -52 59t39 53z" />
<glyph unicode="&#xfa;" horiz-adv-x="479" d="M140 592l155 137q40 -25 40 -53q0 -26 -52 -59l-26 -15l-50 -30q-24 -13 -28 -15zM416 504v-502q-26 -11 -53 -11q-23 0 -31 9t-18 50q-6 -7 -20.5 -19t-47 -26.5t-64.5 -14.5q-68 0 -96 39t-28 120v350q36 6 52 6q33 0 42.5 -9t9.5 -47v-292q0 -43 12 -60.5t41 -17.5 q22 0 47 11.5t35 19.5t15 13v381h104z" />
<glyph unicode="&#xfb;" horiz-adv-x="479" d="M84 611l151 84l4 1l152 -85q-5 -28 -20 -41.5t-29 -13.5q-12 0 -34 16l-70 56q-66 -52 -72 -57q-22 -15 -33 -15h-2q-13 0 -27 12q-14 14 -20 43zM416 504v-502q-26 -11 -53 -11q-23 0 -31 9t-18 50q-6 -7 -20.5 -19t-47 -26.5t-64.5 -14.5q-68 0 -96 39t-28 120v350 q36 6 52 6q33 0 42.5 -9t9.5 -47v-292q0 -43 12 -60.5t41 -17.5q22 0 47 11.5t35 19.5t15 13v381h104z" />
<glyph unicode="&#xfc;" horiz-adv-x="479" d="M88 633q0 47 65 47q40 0 40 -49q0 -47 -66 -47q-39 0 -39 49zM283 633q0 47 68 47q38 0 38 -49q0 -47 -66 -47q-40 0 -40 49zM416 504v-502q-26 -11 -53 -11q-23 0 -31 9t-18 50q-6 -7 -20.5 -19t-47 -26.5t-64.5 -14.5q-68 0 -96 39t-28 120v350q36 6 52 6q33 0 42.5 -9 t9.5 -47v-292q0 -43 12 -60.5t41 -17.5q22 0 47 11.5t35 19.5t15 13v381h104z" />
<glyph unicode="&#xfd;" horiz-adv-x="417" d="M139 0l-124 499q28 7 63 7q30 0 41.5 -12t19.5 -56l72 -367h9l83 433h105l-129 -541q-15 -63 -52 -93t-109 -30q-51 0 -88 15l7 74q36 -9 79 -9q48 0 71 10l15 70h-63zM119 592l155 137q40 -25 40 -53q0 -26 -52 -59l-26 -15l-50 -30q-24 -13 -28 -15z" />
<glyph unicode="&#xfe;" horiz-adv-x="476" d="M62 661q40 9 56 9q29 0 38.5 -10t9.5 -44v-153q56 50 127 50q68 0 107 -57t39 -204q0 -119 -46 -190.5t-121 -71.5q-66 0 -106 44v-182h-104v809zM328 251q0 96 -18 136t-59 40q-45 0 -85 -33v-283q12 -13 35.5 -25t46.5 -12q36 0 57 13q3 6 8 25.5t10 59t5 79.5z" />
<glyph unicode="&#xff;" horiz-adv-x="417" d="M139 0l-124 499q28 7 63 7q30 0 41.5 -12t19.5 -56l72 -367h9l83 433h105l-129 -541q-15 -63 -52 -93t-109 -30q-51 0 -88 15l7 74q36 -9 79 -9q48 0 71 10l15 70h-63zM260 633q0 47 68 47q38 0 38 -49q0 -47 -66 -47q-40 0 -40 49zM65 633q0 47 65 47q40 0 40 -49 q0 -47 -66 -47q-39 0 -39 49z" />
<glyph unicode="&#x152;" horiz-adv-x="688" d="M472 279q-4 -138 -51 -195l247 4q2 -46 2 -52q-1 -25 -10.5 -30.5t-40.5 -5.5h-194q-34 0 -47 4.5t-17 18.5q-53 -33 -122 -33q-96 0 -151.5 86t-55.5 234q0 68 12 124t38.5 103t75 73.5t115.5 26.5q52 0 92 -26v16h303q2 -18 2 -43q0 -28 -10 -34.5t-42 -6.5l-193 2 q43 -57 47 -183h168q3 -33 3 -45q0 -28 -11 -35q-8 -4 -31 -4h-9zM364 314q0 118 -24 175t-84 57q-17 0 -36.5 -6t-29.5 -11t-11 -6q-32 -96 -32 -207q0 -115 26 -175t86 -60q9 0 19 1.5t18 4.5l14 6q8 3 13.5 6.5t10 6t6.5 4.5l3 2q21 63 21 202z" />
<glyph unicode="&#x153;" horiz-adv-x="695" d="M247 513q80 0 124 -61q49 61 131 61q93 0 130 -68q28 -52 28 -156q0 -31 -3 -67h-237q0 -149 100 -149q31 0 88 16q8 2 13 2q12 0 17 -9q7 -13 8 -59q-59 -33 -152 -33q-86 0 -129 66q-53 -66 -151 -66q-83 0 -130 74t-47 190q0 33 3.5 63t16.5 68t34.5 64.5t61.5 45 t94 18.5zM232 69q14 0 28 4.5t20.5 8t7.5 4.5q29 79 29 167q0 178 -83 178q-33 0 -61 -14q-29 -42 -29 -164q0 -91 23.5 -137.5t64.5 -46.5zM561 294v9q0 68 -15 98q-15 32 -51 32q-14 0 -28 -5t-20 -8.5t-8 -5.5q-20 -50 -20 -128z" />
<glyph unicode="&#x178;" horiz-adv-x="442" d="M170 205l-158 413q31 11 71 11q32 0 44.5 -10.5t20.5 -45.5l79 -276h4l97 330h102l-152 -418v-209h-108v205zM76 728q0 47 66 47q40 0 40 -49q0 -47 -66 -47q-40 0 -40 49zM272 728q0 47 67 47q39 0 39 -49q0 -47 -66 -47q-40 0 -40 49z" />
<glyph unicode="&#x2c6;" horiz-adv-x="409" d="M51 626l151 84l4 1l152 -85q-5 -28 -20 -41.5t-29 -13.5q-12 0 -34 16l-70 56q-66 -52 -72 -57q-22 -15 -33 -15h-2q-13 0 -26 13q-15 13 -21 42z" />
<glyph unicode="&#x2dc;" horiz-adv-x="409" d="M80 567q-14 5 -27.5 17t-13.5 26q0 20 32 49t62 29q24 0 57.5 -10t63.5 -23l30 -13q27 18 52 54q13 -5 24 -18t11 -26q0 -22 -30 -50.5t-65 -28.5q-24 0 -61.5 12t-62.5 24l-26 12q-26 -15 -46 -54z" />
<glyph unicode="&#x2000;" horiz-adv-x="416" />
<glyph unicode="&#x2001;" horiz-adv-x="832" />
<glyph unicode="&#x2002;" horiz-adv-x="416" />
<glyph unicode="&#x2003;" horiz-adv-x="832" />
<glyph unicode="&#x2004;" horiz-adv-x="277" />
<glyph unicode="&#x2005;" horiz-adv-x="208" />
<glyph unicode="&#x2006;" horiz-adv-x="138" />
<glyph unicode="&#x2007;" horiz-adv-x="138" />
<glyph unicode="&#x2008;" horiz-adv-x="104" />
<glyph unicode="&#x2009;" horiz-adv-x="166" />
<glyph unicode="&#x200a;" horiz-adv-x="46" />
<glyph unicode="&#x2010;" horiz-adv-x="320" d="M39 245q-4 20 -4 37q0 51 46 51h200q4 -19 4 -35q0 -53 -47 -53h-199z" />
<glyph unicode="&#x2011;" horiz-adv-x="320" d="M39 245q-4 20 -4 37q0 51 46 51h200q4 -19 4 -35q0 -53 -47 -53h-199z" />
<glyph unicode="&#x2013;" horiz-adv-x="460" d="M39 245q-4 20 -4 37q0 51 46 51h340q4 -28 4 -35q0 -53 -47 -53h-339z" />
<glyph unicode="&#x2014;" horiz-adv-x="592" d="M39 245q-4 20 -4 37q0 51 46 51h472q4 -19 4 -35q0 -53 -47 -53h-471z" />
<glyph unicode="&#x2018;" horiz-adv-x="238" d="M43 465q0 43 24 91.5t67 86.5q4 0 6 -2q37 -10 37 -29q0 -9 -6 -18q-37 -67 -37 -99q22 -1 36 -14.5t14 -39.5q0 -28 -19 -45t-50 -17q-72 0 -72 86z" />
<glyph unicode="&#x2019;" horiz-adv-x="238" d="M49 576q0 28 19 45t51 17q71 0 71 -86q0 -43 -24 -91.5t-67 -86.5q-2 0 -6 2q-37 10 -37 29q0 9 6 18q38 69 38 99q-22 1 -36.5 14.5t-14.5 39.5z" />
<glyph unicode="&#x201a;" horiz-adv-x="238" d="M56 -118q0 8 6 18q38 69 38 99q-22 1 -36.5 14.5t-14.5 38.5q0 28 19 45.5t51 17.5q71 0 71 -86q0 -43 -24 -91.5t-67 -86.5q-1 0 -3 0.5t-3 0.5q-37 11 -37 30z" />
<glyph unicode="&#x201c;" horiz-adv-x="441" d="M43 465q0 43 24 91.5t67 86.5l4 -1q3 -1 4 -1q35 -10 35 -29q0 -9 -6 -18q-37 -67 -37 -99q22 -1 36 -14.5t14 -39.5q0 -28 -19 -45t-50 -17q-72 0 -72 86zM253 465q0 43 24 91.5t66 86.5q1 0 4 -1l3 -1q36 -9 36 -29q0 -10 -5 -18q-38 -69 -38 -99q22 -1 36 -14.5 t14 -39.5q0 -28 -18.5 -45t-50.5 -17q-71 0 -71 86z" />
<glyph unicode="&#x201d;" horiz-adv-x="441" d="M49 576q0 28 19 45t51 17q71 0 71 -86q0 -43 -24 -91.5t-67 -86.5q-2 0 -6 2q-37 10 -37 29q0 9 6 18q38 69 38 99q-22 1 -36.5 14.5t-14.5 39.5zM259 576q0 28 19 45t50 17q71 0 71 -86q0 -43 -24 -91.5t-66 -86.5q-3 0 -7 2q-36 9 -36 29q0 11 5 18q38 69 38 99 q-22 1 -36 14.5t-14 39.5z" />
<glyph unicode="&#x201e;" horiz-adv-x="441" d="M46 52q0 28 19 45.5t51 17.5q71 0 71 -86q0 -43 -24 -91.5t-67 -86.5l-2 1h-4q-37 11 -37 30q0 8 6 18q38 69 38 99q-22 1 -36.5 14.5t-14.5 38.5zM256 52q0 28 19 45.5t50 17.5q71 0 71 -86q0 -43 -24 -91.5t-66 -86.5q-1 0 -4 1h-2q-37 11 -37 30q0 9 5 18q38 69 38 99 q-22 1 -36 14.5t-14 38.5z" />
<glyph unicode="&#x2022;" horiz-adv-x="282" d="M268 328q0 -58 -40 -90.5t-112 -32.5q-52 0 -76.5 38.5t-24.5 87.5q0 61 36.5 97t115.5 36q101 0 101 -136z" />
<glyph unicode="&#x2026;" horiz-adv-x="770" d="M43 60q0 62 82 62q30 0 43 -16t13 -51q0 -62 -83 -62q-55 0 -55 67zM317 60q0 62 82 62q30 0 42.5 -16t12.5 -51q0 -62 -82 -62q-55 0 -55 67zM585 60q0 62 82 62q31 0 43.5 -16t12.5 -51q0 -62 -83 -62q-55 0 -55 67z" />
<glyph unicode="&#x202f;" horiz-adv-x="166" />
<glyph unicode="&#x2039;" horiz-adv-x="297" d="M35 299l169 208q49 -16 49 -48q0 -21 -48 -74q-24 -28 -79 -86l79 -85q48 -55 48 -75q0 -32 -49 -48z" />
<glyph unicode="&#x203a;" horiz-adv-x="297" d="M264 297l-169 -208q-49 16 -49 48q0 21 48 74q24 28 79 86q-39 39 -79 85q-48 55 -48 75q0 32 49 48z" />
<glyph unicode="&#x2044;" horiz-adv-x="289" d="M7 0l184 585h90l-183 -585h-91z" />
<glyph unicode="&#x205f;" horiz-adv-x="208" />
<glyph unicode="&#x20ac;" horiz-adv-x="456" d="M1 278v76h60q4 77 25.5 133.5t56 88.5t75.5 46.5t91 14.5q66 0 122 -33q-4 -82 -38 -82q-7 0 -36 11.5t-64 11.5q-39 0 -77 -20l-2 -3q-1 -3 -3 -6.5t-5 -10t-6 -14.5l-6 -18q-4 -10 -6.5 -22.5t-5 -27t-4 -32.5t-2.5 -37h225v-76h-225q9 -195 141 -195q52 0 92 31 l23 -79q-58 -45 -145 -45q-215 0 -226 288h-60z" />
<glyph unicode="&#x2122;" horiz-adv-x="544" d="M329 389l-39 172l1 -228h-54v294h85l44 -200l45 200h85v-293q-24 -4 -28 -4q-17 0 -22.5 5t-5.5 23l1 204q-8 -36 -41 -198q-18 -6 -36 -6q-17 0 -23.5 5.5t-11.5 25.5zM84 585l-57 -2q-1 10 -1 26q0 11 4 14q6 4 24 4h148v-22q0 -14 -5.5 -18t-23.5 -4l-32 1v-252h-57 v253z" />
</font>
</defs>
</svg>
